<ttFont>
    <TTGlyph name=".notdef" xMin="71" yMin="-220" xMax="709" yMax="1030">
      <contour>
        <pt x="71" y="1030" on="1"/>
        <pt x="709" y="1030" on="1"/>
        <pt x="709" y="-220" on="1"/>
        <pt x="71" y="-220" on="1"/>
      </contour>
      <contour>
        <pt x="560" y="-81" on="1"/>
        <pt x="560" y="892" on="1"/>
        <pt x="220" y="892" on="1"/>
        <pt x="220" y="-81" on="1"/>
      </contour>
    </TTGlyph>
    <TTGlyph name="A" xMin="-2" yMin="0" xMax="719" yMax="740">
      <contour>
        <pt x="-2" y="9" on="1"/>
        <pt x="216" y="740" on="1"/>
        <pt x="500" y="740" on="1"/>
        <pt x="719" y="9" on="1"/>
        <pt x="719" y="0" on="1"/>
        <pt x="536" y="0" on="1"/>
        <pt x="487" y="166" on="1"/>
        <pt x="228" y="166" on="1"/>
        <pt x="180" y="0" on="1"/>
        <pt x="-2" y="0" on="1"/>
      </contour>
      <contour>
        <pt x="447" y="314" on="1"/>
        <pt x="403" y="470" on="1"/>
        <pt x="365" y="606" on="1"/>
        <pt x="351" y="606" on="1"/>
        <pt x="313" y="469" on="1"/>
        <pt x="269" y="314" on="1"/>
      </contour>
    </TTGlyph>
    <TTGlyph name="A.sc" xMin="0" yMin="0" xMax="661" yMax="577">
      <contour>
        <pt x="0" y="8" on="1"/>
        <pt x="197" y="577" on="1"/>
        <pt x="465" y="577" on="1"/>
        <pt x="661" y="8" on="1"/>
        <pt x="661" y="0" on="1"/>
        <pt x="488" y="0" on="1"/>
        <pt x="448" y="110" on="1"/>
        <pt x="213" y="110" on="1"/>
        <pt x="172" y="0" on="1"/>
        <pt x="0" y="0" on="1"/>
      </contour>
      <contour>
        <pt x="416" y="229" on="1"/>
        <pt x="372" y="357" on="1"/>
        <pt x="338" y="453" on="1"/>
        <pt x="323" y="453" on="1"/>
        <pt x="289" y="356" on="1"/>
        <pt x="245" y="229" on="1"/>
      </contour>
    </TTGlyph>
    <TTGlyph name="AE" xMin="-6" yMin="0" xMax="922" yMax="740">
      <contour>
        <pt x="-6" y="9" on="1"/>
        <pt x="263" y="740" on="1"/>
        <pt x="908" y="740" on="1"/>
        <pt x="908" y="589" on="1"/>
        <pt x="619" y="589" on="1"/>
        <pt x="629" y="446" on="1"/>
        <pt x="896" y="446" on="1"/>
        <pt x="896" y="296" on="1"/>
        <pt x="639" y="296" on="1"/>
        <pt x="649" y="151" on="1"/>
        <pt x="922" y="151" on="1"/>
        <pt x="922" y="0" on="1"/>
        <pt x="461" y="0" on="1"/>
        <pt x="454" y="163" on="1"/>
        <pt x="242" y="163" on="1"/>
        <pt x="183" y="0" on="1"/>
        <pt x="-6" y="0" on="1"/>
      </contour>
      <contour>
        <pt x="298" y="318" on="1"/>
        <pt x="448" y="318" on="1"/>
        <pt x="436" y="604" on="1"/>
        <pt x="402" y="604" on="1"/>
      </contour>
    </TTGlyph>
    <TTGlyph name="AE.sc" xMin="-3" yMin="0" xMax="850" yMax="577">
      <contour>
        <pt x="-3" y="8" on="1"/>
        <pt x="243" y="577" on="1"/>
        <pt x="837" y="577" on="1"/>
        <pt x="837" y="441" on="1"/>
        <pt x="576" y="441" on="1"/>
        <pt x="582" y="350" on="1"/>
        <pt x="827" y="350" on="1"/>
        <pt x="827" y="228" on="1"/>
        <pt x="595" y="228" on="1"/>
        <pt x="603" y="136" on="1"/>
        <pt x="850" y="136" on="1"/>
        <pt x="850" y="0" on="1"/>
        <pt x="425" y="0" on="1"/>
        <pt x="420" y="110" on="1"/>
        <pt x="222" y="110" on="1"/>
        <pt x="175" y="0" on="1"/>
        <pt x="-3" y="0" on="1"/>
      </contour>
      <contour>
        <pt x="276" y="231" on="1"/>
        <pt x="413" y="231" on="1"/>
        <pt x="404" y="451" on="1"/>
        <pt x="373" y="451" on="1"/>
      </contour>
    </TTGlyph>
    <TTGlyph name="AEacute" xMin="-6" yMin="0" xMax="922" yMax="987">
      <contour>
        <pt x="456" y="807" on="1"/>
        <pt x="522" y="987" on="1"/>
        <pt x="712" y="987" on="1"/>
        <pt x="590" y="798" on="1"/>
      </contour>
      <contour>
        <pt x="-6" y="9" on="1"/>
        <pt x="263" y="740" on="1"/>
        <pt x="908" y="740" on="1"/>
        <pt x="908" y="589" on="1"/>
        <pt x="619" y="589" on="1"/>
        <pt x="629" y="446" on="1"/>
        <pt x="896" y="446" on="1"/>
        <pt x="896" y="296" on="1"/>
        <pt x="639" y="296" on="1"/>
        <pt x="649" y="151" on="1"/>
        <pt x="922" y="151" on="1"/>
        <pt x="922" y="0" on="1"/>
        <pt x="461" y="0" on="1"/>
        <pt x="454" y="163" on="1"/>
        <pt x="242" y="163" on="1"/>
        <pt x="183" y="0" on="1"/>
        <pt x="-6" y="0" on="1"/>
      </contour>
      <contour>
        <pt x="298" y="318" on="1"/>
        <pt x="448" y="318" on="1"/>
        <pt x="436" y="604" on="1"/>
        <pt x="402" y="604" on="1"/>
      </contour>
    </TTGlyph>
    <TTGlyph name="AEacute.sc" xMin="-3" yMin="0" xMax="850" yMax="784">
      <contour>
        <pt x="-3" y="8" on="1"/>
        <pt x="243" y="577" on="1"/>
        <pt x="837" y="577" on="1"/>
        <pt x="837" y="441" on="1"/>
        <pt x="576" y="441" on="1"/>
        <pt x="582" y="350" on="1"/>
        <pt x="827" y="350" on="1"/>
        <pt x="827" y="228" on="1"/>
        <pt x="595" y="228" on="1"/>
        <pt x="603" y="136" on="1"/>
        <pt x="850" y="136" on="1"/>
        <pt x="850" y="0" on="1"/>
        <pt x="425" y="0" on="1"/>
        <pt x="420" y="110" on="1"/>
        <pt x="222" y="110" on="1"/>
        <pt x="175" y="0" on="1"/>
        <pt x="-3" y="0" on="1"/>
      </contour>
      <contour>
        <pt x="413" y="231" on="1"/>
        <pt x="404" y="451" on="1"/>
        <pt x="373" y="451" on="1"/>
        <pt x="276" y="231" on="1"/>
      </contour>
      <contour>
        <pt x="416" y="632" on="1"/>
        <pt x="473" y="784" on="1"/>
        <pt x="653" y="784" on="1"/>
        <pt x="542" y="624" on="1"/>
      </contour>
    </TTGlyph>
    <TTGlyph name="Aacute" xMin="-2" yMin="0" xMax="719" yMax="987">
      <contour>
        <pt x="-2" y="9" on="1"/>
        <pt x="216" y="740" on="1"/>
        <pt x="500" y="740" on="1"/>
        <pt x="719" y="9" on="1"/>
        <pt x="719" y="0" on="1"/>
        <pt x="536" y="0" on="1"/>
        <pt x="487" y="166" on="1"/>
        <pt x="228" y="166" on="1"/>
        <pt x="180" y="0" on="1"/>
        <pt x="-2" y="0" on="1"/>
      </contour>
      <contour>
        <pt x="447" y="314" on="1"/>
        <pt x="403" y="470" on="1"/>
        <pt x="365" y="606" on="1"/>
        <pt x="351" y="606" on="1"/>
        <pt x="313" y="469" on="1"/>
        <pt x="269" y="314" on="1"/>
      </contour>
      <contour>
        <pt x="285" y="807" on="1"/>
        <pt x="351" y="987" on="1"/>
        <pt x="541" y="987" on="1"/>
        <pt x="419" y="798" on="1"/>
      </contour>
    </TTGlyph>
    <TTGlyph name="Aacute.sc" xMin="0" yMin="0" xMax="661" yMax="784">
      <contour>
        <pt x="0" y="8" on="1"/>
        <pt x="197" y="577" on="1"/>
        <pt x="465" y="577" on="1"/>
        <pt x="661" y="8" on="1"/>
        <pt x="661" y="0" on="1"/>
        <pt x="488" y="0" on="1"/>
        <pt x="448" y="110" on="1"/>
        <pt x="213" y="110" on="1"/>
        <pt x="172" y="0" on="1"/>
        <pt x="0" y="0" on="1"/>
      </contour>
      <contour>
        <pt x="415" y="233" on="1"/>
        <pt x="372" y="357" on="1"/>
        <pt x="338" y="453" on="1"/>
        <pt x="323" y="453" on="1"/>
        <pt x="289" y="356" on="1"/>
        <pt x="246" y="233" on="1"/>
      </contour>
      <contour>
        <pt x="263" y="632" on="1"/>
        <pt x="321" y="784" on="1"/>
        <pt x="501" y="784" on="1"/>
        <pt x="390" y="624" on="1"/>
      </contour>
    </TTGlyph>
    <TTGlyph name="Abreve" xMin="-2" yMin="0" xMax="719" yMax="985">
      <contour>
        <pt x="-2" y="9" on="1"/>
        <pt x="216" y="740" on="1"/>
        <pt x="500" y="740" on="1"/>
        <pt x="719" y="9" on="1"/>
        <pt x="719" y="0" on="1"/>
        <pt x="536" y="0" on="1"/>
        <pt x="487" y="166" on="1"/>
        <pt x="228" y="166" on="1"/>
        <pt x="180" y="0" on="1"/>
        <pt x="-2" y="0" on="1"/>
      </contour>
      <contour>
        <pt x="447" y="314" on="1"/>
        <pt x="403" y="470" on="1"/>
        <pt x="365" y="606" on="1"/>
        <pt x="351" y="606" on="1"/>
        <pt x="313" y="469" on="1"/>
        <pt x="269" y="314" on="1"/>
      </contour>
      <contour>
        <pt x="359" y="803" on="1"/>
        <pt x="302" y="803" on="0"/>
        <pt x="221" y="830" on="0"/>
        <pt x="170" y="878" on="0"/>
        <pt x="146" y="945" on="0"/>
        <pt x="146" y="985" on="1"/>
        <pt x="270" y="985" on="1"/>
        <pt x="270" y="935" on="0"/>
        <pt x="307" y="890" on="0"/>
        <pt x="359" y="890" on="1"/>
        <pt x="410" y="890" on="0"/>
        <pt x="447" y="935" on="0"/>
        <pt x="447" y="985" on="1"/>
        <pt x="571" y="985" on="1"/>
        <pt x="571" y="944" on="0"/>
        <pt x="547" y="877" on="0"/>
        <pt x="496" y="829" on="0"/>
        <pt x="416" y="803" on="0"/>
      </contour>
    </TTGlyph>
    <TTGlyph name="Abreve.sc" xMin="0" yMin="0" xMax="661" yMax="777">
      <contour>
        <pt x="331" y="625" on="1"/>
        <pt x="277" y="625" on="0"/>
        <pt x="202" y="648" on="0"/>
        <pt x="155" y="688" on="0"/>
        <pt x="134" y="744" on="0"/>
        <pt x="134" y="777" on="1"/>
        <pt x="250" y="777" on="1"/>
        <pt x="250" y="739" on="0"/>
        <pt x="284" y="703" on="0"/>
        <pt x="331" y="703" on="1"/>
        <pt x="378" y="703" on="0"/>
        <pt x="411" y="739" on="0"/>
        <pt x="411" y="777" on="1"/>
        <pt x="527" y="777" on="1"/>
        <pt x="527" y="744" on="0"/>
        <pt x="506" y="688" on="0"/>
        <pt x="459" y="647" on="0"/>
        <pt x="384" y="625" on="0"/>
      </contour>
      <contour>
        <pt x="0" y="8" on="1"/>
        <pt x="197" y="577" on="1"/>
        <pt x="465" y="577" on="1"/>
        <pt x="661" y="8" on="1"/>
        <pt x="661" y="0" on="1"/>
        <pt x="488" y="0" on="1"/>
        <pt x="448" y="110" on="1"/>
        <pt x="213" y="110" on="1"/>
        <pt x="172" y="0" on="1"/>
        <pt x="0" y="0" on="1"/>
      </contour>
      <contour>
        <pt x="415" y="233" on="1"/>
        <pt x="372" y="357" on="1"/>
        <pt x="338" y="453" on="1"/>
        <pt x="323" y="453" on="1"/>
        <pt x="289" y="356" on="1"/>
        <pt x="246" y="233" on="1"/>
      </contour>
    </TTGlyph>
    <TTGlyph name="Acircumflex" xMin="-2" yMin="0" xMax="719" yMax="994">
      <contour>
        <pt x="-2" y="9" on="1"/>
        <pt x="216" y="740" on="1"/>
        <pt x="500" y="740" on="1"/>
        <pt x="719" y="9" on="1"/>
        <pt x="719" y="0" on="1"/>
        <pt x="536" y="0" on="1"/>
        <pt x="487" y="166" on="1"/>
        <pt x="228" y="166" on="1"/>
        <pt x="180" y="0" on="1"/>
        <pt x="-2" y="0" on="1"/>
      </contour>
      <contour>
        <pt x="447" y="314" on="1"/>
        <pt x="403" y="470" on="1"/>
        <pt x="365" y="606" on="1"/>
        <pt x="351" y="606" on="1"/>
        <pt x="313" y="469" on="1"/>
        <pt x="269" y="314" on="1"/>
      </contour>
      <contour>
        <pt x="166" y="918" on="1"/>
        <pt x="359" y="994" on="1"/>
        <pt x="554" y="918" on="1"/>
        <pt x="554" y="795" on="1"/>
        <pt x="360" y="871" on="1"/>
        <pt x="166" y="795" on="1"/>
      </contour>
    </TTGlyph>
    <TTGlyph name="Acircumflex.sc" xMin="0" yMin="0" xMax="661" yMax="790">
      <contour>
        <pt x="0" y="8" on="1"/>
        <pt x="197" y="577" on="1"/>
        <pt x="465" y="577" on="1"/>
        <pt x="661" y="8" on="1"/>
        <pt x="661" y="0" on="1"/>
        <pt x="488" y="0" on="1"/>
        <pt x="448" y="110" on="1"/>
        <pt x="213" y="110" on="1"/>
        <pt x="172" y="0" on="1"/>
        <pt x="0" y="0" on="1"/>
      </contour>
      <contour>
        <pt x="415" y="233" on="1"/>
        <pt x="372" y="357" on="1"/>
        <pt x="338" y="453" on="1"/>
        <pt x="323" y="453" on="1"/>
        <pt x="289" y="356" on="1"/>
        <pt x="246" y="233" on="1"/>
      </contour>
      <contour>
        <pt x="152" y="729" on="1"/>
        <pt x="331" y="790" on="1"/>
        <pt x="512" y="729" on="1"/>
        <pt x="512" y="616" on="1"/>
        <pt x="332" y="677" on="1"/>
        <pt x="152" y="616" on="1"/>
      </contour>
    </TTGlyph>
    <TTGlyph name="Adblgrave" xMin="-2" yMin="0" xMax="719" yMax="987">
      <contour>
        <pt x="-2" y="9" on="1"/>
        <pt x="216" y="740" on="1"/>
        <pt x="500" y="740" on="1"/>
        <pt x="719" y="9" on="1"/>
        <pt x="719" y="0" on="1"/>
        <pt x="536" y="0" on="1"/>
        <pt x="487" y="166" on="1"/>
        <pt x="228" y="166" on="1"/>
        <pt x="180" y="0" on="1"/>
        <pt x="-2" y="0" on="1"/>
      </contour>
      <contour>
        <pt x="447" y="314" on="1"/>
        <pt x="403" y="470" on="1"/>
        <pt x="365" y="606" on="1"/>
        <pt x="351" y="606" on="1"/>
        <pt x="313" y="469" on="1"/>
        <pt x="269" y="314" on="1"/>
      </contour>
      <contour>
        <pt x="192" y="797" on="1"/>
        <pt x="70" y="987" on="1"/>
        <pt x="242" y="987" on="1"/>
        <pt x="307" y="808" on="1"/>
      </contour>
      <contour>
        <pt x="404" y="797" on="1"/>
        <pt x="281" y="987" on="1"/>
        <pt x="454" y="987" on="1"/>
        <pt x="519" y="808" on="1"/>
      </contour>
    </TTGlyph>
    <TTGlyph name="Adblgrave.sc" xMin="0" yMin="0" xMax="661" yMax="784">
      <contour>
        <pt x="0" y="8" on="1"/>
        <pt x="197" y="577" on="1"/>
        <pt x="465" y="577" on="1"/>
        <pt x="661" y="8" on="1"/>
        <pt x="661" y="0" on="1"/>
        <pt x="488" y="0" on="1"/>
        <pt x="448" y="110" on="1"/>
        <pt x="213" y="110" on="1"/>
        <pt x="172" y="0" on="1"/>
        <pt x="0" y="0" on="1"/>
      </contour>
      <contour>
        <pt x="415" y="233" on="1"/>
        <pt x="372" y="357" on="1"/>
        <pt x="338" y="453" on="1"/>
        <pt x="323" y="453" on="1"/>
        <pt x="289" y="356" on="1"/>
        <pt x="246" y="233" on="1"/>
      </contour>
      <contour>
        <pt x="62" y="784" on="1"/>
        <pt x="227" y="784" on="1"/>
        <pt x="284" y="632" on="1"/>
        <pt x="174" y="624" on="1"/>
      </contour>
      <contour>
        <pt x="258" y="784" on="1"/>
        <pt x="423" y="784" on="1"/>
        <pt x="480" y="632" on="1"/>
        <pt x="370" y="624" on="1"/>
      </contour>
    </TTGlyph>
    <TTGlyph name="Adieresis" xMin="-2" yMin="0" xMax="719" yMax="996">
      <contour>
        <pt x="-2" y="9" on="1"/>
        <pt x="216" y="740" on="1"/>
        <pt x="500" y="740" on="1"/>
        <pt x="719" y="9" on="1"/>
        <pt x="719" y="0" on="1"/>
        <pt x="536" y="0" on="1"/>
        <pt x="487" y="166" on="1"/>
        <pt x="228" y="166" on="1"/>
        <pt x="180" y="0" on="1"/>
        <pt x="-2" y="0" on="1"/>
      </contour>
      <contour>
        <pt x="447" y="314" on="1"/>
        <pt x="403" y="470" on="1"/>
        <pt x="365" y="606" on="1"/>
        <pt x="351" y="606" on="1"/>
        <pt x="313" y="469" on="1"/>
        <pt x="269" y="314" on="1"/>
      </contour>
      <contour>
        <pt x="217" y="800" on="1"/>
        <pt x="163" y="800" on="0"/>
        <pt x="116" y="846" on="0"/>
        <pt x="116" y="898" on="1"/>
        <pt x="116" y="950" on="0"/>
        <pt x="163" y="996" on="0"/>
        <pt x="217" y="996" on="1"/>
        <pt x="271" y="996" on="0"/>
        <pt x="318" y="949" on="0"/>
        <pt x="318" y="898" on="1"/>
        <pt x="318" y="847" on="0"/>
        <pt x="271" y="800" on="0"/>
      </contour>
      <contour>
        <pt x="499" y="800" on="1"/>
        <pt x="445" y="800" on="0"/>
        <pt x="398" y="846" on="0"/>
        <pt x="398" y="898" on="1"/>
        <pt x="398" y="950" on="0"/>
        <pt x="445" y="996" on="0"/>
        <pt x="499" y="996" on="1"/>
        <pt x="553" y="996" on="0"/>
        <pt x="600" y="949" on="0"/>
        <pt x="600" y="898" on="1"/>
        <pt x="600" y="847" on="0"/>
        <pt x="553" y="800" on="0"/>
      </contour>
    </TTGlyph>
    <TTGlyph name="Adieresis.sc" xMin="0" yMin="0" xMax="661" yMax="800">
      <contour>
        <pt x="202" y="619" on="1"/>
        <pt x="151" y="619" on="0"/>
        <pt x="107" y="662" on="0"/>
        <pt x="107" y="710" on="1"/>
        <pt x="107" y="757" on="0"/>
        <pt x="151" y="800" on="0"/>
        <pt x="202" y="800" on="1"/>
        <pt x="253" y="800" on="0"/>
        <pt x="296" y="756" on="0"/>
        <pt x="296" y="710" on="1"/>
        <pt x="296" y="662" on="0"/>
        <pt x="253" y="619" on="0"/>
      </contour>
      <contour>
        <pt x="460" y="619" on="1"/>
        <pt x="409" y="619" on="0"/>
        <pt x="366" y="662" on="0"/>
        <pt x="366" y="710" on="1"/>
        <pt x="366" y="757" on="0"/>
        <pt x="409" y="800" on="0"/>
        <pt x="460" y="800" on="1"/>
        <pt x="511" y="800" on="0"/>
        <pt x="555" y="756" on="0"/>
        <pt x="555" y="710" on="1"/>
        <pt x="555" y="662" on="0"/>
        <pt x="511" y="619" on="0"/>
      </contour>
      <contour>
        <pt x="0" y="8" on="1"/>
        <pt x="197" y="577" on="1"/>
        <pt x="465" y="577" on="1"/>
        <pt x="661" y="8" on="1"/>
        <pt x="661" y="0" on="1"/>
        <pt x="488" y="0" on="1"/>
        <pt x="448" y="110" on="1"/>
        <pt x="213" y="110" on="1"/>
        <pt x="172" y="0" on="1"/>
        <pt x="0" y="0" on="1"/>
      </contour>
      <contour>
        <pt x="415" y="233" on="1"/>
        <pt x="372" y="357" on="1"/>
        <pt x="338" y="453" on="1"/>
        <pt x="323" y="453" on="1"/>
        <pt x="289" y="356" on="1"/>
        <pt x="246" y="233" on="1"/>
      </contour>
    </TTGlyph>
    <TTGlyph name="Agrave" xMin="-2" yMin="0" xMax="719" yMax="987">
      <contour>
        <pt x="-2" y="9" on="1"/>
        <pt x="216" y="740" on="1"/>
        <pt x="500" y="740" on="1"/>
        <pt x="719" y="9" on="1"/>
        <pt x="719" y="0" on="1"/>
        <pt x="536" y="0" on="1"/>
        <pt x="487" y="166" on="1"/>
        <pt x="228" y="166" on="1"/>
        <pt x="180" y="0" on="1"/>
        <pt x="-2" y="0" on="1"/>
      </contour>
      <contour>
        <pt x="447" y="314" on="1"/>
        <pt x="403" y="470" on="1"/>
        <pt x="365" y="606" on="1"/>
        <pt x="351" y="606" on="1"/>
        <pt x="313" y="469" on="1"/>
        <pt x="269" y="314" on="1"/>
      </contour>
      <contour>
        <pt x="280" y="798" on="1"/>
        <pt x="158" y="987" on="1"/>
        <pt x="349" y="987" on="1"/>
        <pt x="414" y="809" on="1"/>
      </contour>
    </TTGlyph>
    <TTGlyph name="Agrave.sc" xMin="0" yMin="0" xMax="661" yMax="784">
      <contour>
        <pt x="0" y="8" on="1"/>
        <pt x="197" y="577" on="1"/>
        <pt x="465" y="577" on="1"/>
        <pt x="661" y="8" on="1"/>
        <pt x="661" y="0" on="1"/>
        <pt x="488" y="0" on="1"/>
        <pt x="448" y="110" on="1"/>
        <pt x="213" y="110" on="1"/>
        <pt x="172" y="0" on="1"/>
        <pt x="0" y="0" on="1"/>
      </contour>
      <contour>
        <pt x="415" y="233" on="1"/>
        <pt x="372" y="357" on="1"/>
        <pt x="338" y="453" on="1"/>
        <pt x="323" y="453" on="1"/>
        <pt x="289" y="356" on="1"/>
        <pt x="246" y="233" on="1"/>
      </contour>
      <contour>
        <pt x="257" y="624" on="1"/>
        <pt x="145" y="784" on="1"/>
        <pt x="326" y="784" on="1"/>
        <pt x="382" y="632" on="1"/>
      </contour>
    </TTGlyph>
    <TTGlyph name="Ainvertedbreve" xMin="-2" yMin="0" xMax="719" yMax="994">
      <contour>
        <pt x="-2" y="9" on="1"/>
        <pt x="216" y="740" on="1"/>
        <pt x="500" y="740" on="1"/>
        <pt x="719" y="9" on="1"/>
        <pt x="719" y="0" on="1"/>
        <pt x="536" y="0" on="1"/>
        <pt x="487" y="166" on="1"/>
        <pt x="228" y="166" on="1"/>
        <pt x="180" y="0" on="1"/>
        <pt x="-2" y="0" on="1"/>
      </contour>
      <contour>
        <pt x="447" y="314" on="1"/>
        <pt x="403" y="470" on="1"/>
        <pt x="365" y="606" on="1"/>
        <pt x="351" y="606" on="1"/>
        <pt x="313" y="469" on="1"/>
        <pt x="269" y="314" on="1"/>
      </contour>
      <contour>
        <pt x="448" y="812" on="1"/>
        <pt x="448" y="861" on="0"/>
        <pt x="410" y="907" on="0"/>
        <pt x="359" y="907" on="1"/>
        <pt x="308" y="907" on="0"/>
        <pt x="270" y="861" on="0"/>
        <pt x="270" y="812" on="1"/>
        <pt x="146" y="812" on="1"/>
        <pt x="146" y="852" on="0"/>
        <pt x="170" y="919" on="0"/>
        <pt x="221" y="967" on="0"/>
        <pt x="302" y="994" on="0"/>
        <pt x="359" y="994" on="1"/>
        <pt x="472" y="994" on="0"/>
        <pt x="572" y="894" on="0"/>
        <pt x="572" y="812" on="1"/>
      </contour>
    </TTGlyph>
    <TTGlyph name="Ainvertedbreve.sc" xMin="0" yMin="0" xMax="661" yMax="785">
      <contour>
        <pt x="135" y="633" on="1"/>
        <pt x="135" y="666" on="0"/>
        <pt x="156" y="721" on="0"/>
        <pt x="203" y="762" on="0"/>
        <pt x="278" y="785" on="0"/>
        <pt x="332" y="785" on="1"/>
        <pt x="385" y="785" on="0"/>
        <pt x="460" y="763" on="0"/>
        <pt x="507" y="722" on="0"/>
        <pt x="529" y="666" on="0"/>
        <pt x="529" y="633" on="1"/>
        <pt x="412" y="633" on="1"/>
        <pt x="412" y="670" on="0"/>
        <pt x="379" y="706" on="0"/>
        <pt x="332" y="706" on="1"/>
        <pt x="285" y="706" on="0"/>
        <pt x="252" y="670" on="0"/>
        <pt x="252" y="633" on="1"/>
      </contour>
      <contour>
        <pt x="0" y="8" on="1"/>
        <pt x="197" y="577" on="1"/>
        <pt x="465" y="577" on="1"/>
        <pt x="661" y="8" on="1"/>
        <pt x="661" y="0" on="1"/>
        <pt x="488" y="0" on="1"/>
        <pt x="448" y="110" on="1"/>
        <pt x="213" y="110" on="1"/>
        <pt x="172" y="0" on="1"/>
        <pt x="0" y="0" on="1"/>
      </contour>
      <contour>
        <pt x="415" y="233" on="1"/>
        <pt x="372" y="357" on="1"/>
        <pt x="338" y="453" on="1"/>
        <pt x="323" y="453" on="1"/>
        <pt x="289" y="356" on="1"/>
        <pt x="246" y="233" on="1"/>
      </contour>
    </TTGlyph>
    <TTGlyph name="Amacron" xMin="-2" yMin="0" xMax="719" yMax="962">
      <contour>
        <pt x="-2" y="9" on="1"/>
        <pt x="216" y="740" on="1"/>
        <pt x="500" y="740" on="1"/>
        <pt x="719" y="9" on="1"/>
        <pt x="719" y="0" on="1"/>
        <pt x="536" y="0" on="1"/>
        <pt x="487" y="166" on="1"/>
        <pt x="228" y="166" on="1"/>
        <pt x="180" y="0" on="1"/>
        <pt x="-2" y="0" on="1"/>
      </contour>
      <contour>
        <pt x="447" y="314" on="1"/>
        <pt x="403" y="470" on="1"/>
        <pt x="365" y="606" on="1"/>
        <pt x="351" y="606" on="1"/>
        <pt x="313" y="469" on="1"/>
        <pt x="269" y="314" on="1"/>
      </contour>
      <contour>
        <pt x="166" y="962" on="1"/>
        <pt x="550" y="962" on="1"/>
        <pt x="550" y="840" on="1"/>
        <pt x="166" y="840" on="1"/>
      </contour>
    </TTGlyph>
    <TTGlyph name="Amacron.sc" xMin="0" yMin="0" xMax="661" yMax="768">
      <contour>
        <pt x="0" y="8" on="1"/>
        <pt x="197" y="577" on="1"/>
        <pt x="465" y="577" on="1"/>
        <pt x="661" y="8" on="1"/>
        <pt x="661" y="0" on="1"/>
        <pt x="488" y="0" on="1"/>
        <pt x="448" y="110" on="1"/>
        <pt x="213" y="110" on="1"/>
        <pt x="172" y="0" on="1"/>
        <pt x="0" y="0" on="1"/>
      </contour>
      <contour>
        <pt x="415" y="233" on="1"/>
        <pt x="372" y="357" on="1"/>
        <pt x="338" y="453" on="1"/>
        <pt x="323" y="453" on="1"/>
        <pt x="289" y="356" on="1"/>
        <pt x="246" y="233" on="1"/>
      </contour>
      <contour>
        <pt x="153" y="768" on="1"/>
        <pt x="509" y="768" on="1"/>
        <pt x="509" y="655" on="1"/>
        <pt x="153" y="655" on="1"/>
      </contour>
    </TTGlyph>
    <TTGlyph name="Aogonek" xMin="-2" yMin="-220" xMax="720" yMax="740">
      <contour>
        <pt x="629" y="-220" on="1"/>
        <pt x="558" y="-220" on="0"/>
        <pt x="484" y="-171" on="0"/>
        <pt x="484" y="-123" on="1"/>
        <pt x="484" y="-55" on="0"/>
        <pt x="566" y="0" on="1"/>
        <pt x="536" y="0" on="1"/>
        <pt x="487" y="166" on="1"/>
        <pt x="228" y="166" on="1"/>
        <pt x="180" y="0" on="1"/>
        <pt x="-2" y="0" on="1"/>
        <pt x="-2" y="9" on="1"/>
        <pt x="216" y="740" on="1"/>
        <pt x="500" y="740" on="1"/>
        <pt x="719" y="9" on="1"/>
        <pt x="719" y="-7" on="1"/>
        <pt x="654" y="-33" on="0"/>
        <pt x="603" y="-79" on="0"/>
        <pt x="603" y="-98" on="1"/>
        <pt x="603" y="-120" on="0"/>
        <pt x="636" y="-120" on="1"/>
        <pt x="652" y="-120" on="0"/>
        <pt x="700" y="-111" on="0"/>
        <pt x="720" y="-106" on="1"/>
        <pt x="720" y="-208" on="1"/>
        <pt x="697" y="-214" on="0"/>
        <pt x="654" y="-220" on="0"/>
      </contour>
      <contour>
        <pt x="447" y="314" on="1"/>
        <pt x="403" y="470" on="1"/>
        <pt x="365" y="606" on="1"/>
        <pt x="351" y="606" on="1"/>
        <pt x="313" y="469" on="1"/>
        <pt x="269" y="314" on="1"/>
      </contour>
    </TTGlyph>
    <TTGlyph name="Aogonek.sc" xMin="-1" yMin="-169" xMax="662" yMax="577">
      <contour>
        <pt x="578" y="-169" on="1"/>
        <pt x="512" y="-169" on="0"/>
        <pt x="444" y="-128" on="0"/>
        <pt x="444" y="-90" on="1"/>
        <pt x="444" y="-66" on="0"/>
        <pt x="478" y="-17" on="0"/>
        <pt x="508" y="0" on="1"/>
        <pt x="488" y="0" on="1"/>
        <pt x="447" y="110" on="1"/>
        <pt x="212" y="110" on="1"/>
        <pt x="172" y="0" on="1"/>
        <pt x="-1" y="0" on="1"/>
        <pt x="-1" y="8" on="1"/>
        <pt x="196" y="577" on="1"/>
        <pt x="464" y="577" on="1"/>
        <pt x="661" y="8" on="1"/>
        <pt x="661" y="-3" on="1"/>
        <pt x="627" y="-14" on="0"/>
        <pt x="586" y="-33" on="0"/>
        <pt x="563" y="-48" on="0"/>
        <pt x="556" y="-59" on="0"/>
        <pt x="556" y="-63" on="1"/>
        <pt x="556" y="-76" on="0"/>
        <pt x="583" y="-76" on="1"/>
        <pt x="598" y="-76" on="0"/>
        <pt x="647" y="-70" on="0"/>
        <pt x="662" y="-65" on="1"/>
        <pt x="662" y="-160" on="1"/>
        <pt x="618" y="-169" on="0"/>
      </contour>
      <contour>
        <pt x="413" y="233" on="1"/>
        <pt x="371" y="359" on="1"/>
        <pt x="337" y="453" on="1"/>
        <pt x="322" y="453" on="1"/>
        <pt x="288" y="358" on="1"/>
        <pt x="244" y="233" on="1"/>
      </contour>
    </TTGlyph>
    <TTGlyph name="Aring" xMin="-2" yMin="0" xMax="719" yMax="1002">
      <contour>
        <pt x="-2" y="9" on="1"/>
        <pt x="216" y="740" on="1"/>
        <pt x="500" y="740" on="1"/>
        <pt x="719" y="9" on="1"/>
        <pt x="719" y="0" on="1"/>
        <pt x="536" y="0" on="1"/>
        <pt x="487" y="166" on="1"/>
        <pt x="228" y="166" on="1"/>
        <pt x="180" y="0" on="1"/>
        <pt x="-2" y="0" on="1"/>
      </contour>
      <contour>
        <pt x="447" y="314" on="1"/>
        <pt x="403" y="470" on="1"/>
        <pt x="365" y="606" on="1"/>
        <pt x="351" y="606" on="1"/>
        <pt x="313" y="469" on="1"/>
        <pt x="269" y="314" on="1"/>
      </contour>
      <contour>
        <pt x="357" y="772" on="1"/>
        <pt x="300" y="772" on="0"/>
        <pt x="226" y="835" on="0"/>
        <pt x="226" y="886" on="1"/>
        <pt x="226" y="911" on="0"/>
        <pt x="246" y="954" on="0"/>
        <pt x="281" y="985" on="0"/>
        <pt x="329" y="1002" on="0"/>
        <pt x="357" y="1002" on="1"/>
        <pt x="415" y="1002" on="0"/>
        <pt x="489" y="937" on="0"/>
        <pt x="489" y="886" on="1"/>
        <pt x="489" y="835" on="0"/>
        <pt x="415" y="772" on="0"/>
      </contour>
      <contour>
        <pt x="357" y="833" on="1"/>
        <pt x="391" y="833" on="0"/>
        <pt x="417" y="858" on="0"/>
        <pt x="417" y="886" on="1"/>
        <pt x="417" y="914" on="0"/>
        <pt x="391" y="941" on="0"/>
        <pt x="357" y="941" on="1"/>
        <pt x="324" y="941" on="0"/>
        <pt x="297" y="914" on="0"/>
        <pt x="297" y="886" on="1"/>
        <pt x="297" y="858" on="0"/>
        <pt x="324" y="833" on="0"/>
      </contour>
    </TTGlyph>
    <TTGlyph name="Aring.sc" xMin="0" yMin="0" xMax="661" yMax="794">
      <contour>
        <pt x="0" y="8" on="1"/>
        <pt x="197" y="577" on="1"/>
        <pt x="465" y="577" on="1"/>
        <pt x="661" y="8" on="1"/>
        <pt x="661" y="0" on="1"/>
        <pt x="488" y="0" on="1"/>
        <pt x="448" y="110" on="1"/>
        <pt x="213" y="110" on="1"/>
        <pt x="172" y="0" on="1"/>
        <pt x="0" y="0" on="1"/>
      </contour>
      <contour>
        <pt x="414" y="233" on="1"/>
        <pt x="372" y="357" on="1"/>
        <pt x="338" y="453" on="1"/>
        <pt x="323" y="453" on="1"/>
        <pt x="289" y="356" on="1"/>
        <pt x="245" y="233" on="1"/>
      </contour>
      <contour>
        <pt x="330" y="609" on="1"/>
        <pt x="279" y="609" on="0"/>
        <pt x="210" y="660" on="0"/>
        <pt x="210" y="701" on="1"/>
        <pt x="210" y="721" on="0"/>
        <pt x="228" y="755" on="0"/>
        <pt x="261" y="780" on="0"/>
        <pt x="304" y="794" on="0"/>
        <pt x="330" y="794" on="1"/>
        <pt x="383" y="794" on="0"/>
        <pt x="450" y="742" on="0"/>
        <pt x="450" y="701" on="1"/>
        <pt x="450" y="660" on="0"/>
        <pt x="383" y="609" on="0"/>
      </contour>
      <contour>
        <pt x="330" y="663" on="1"/>
        <pt x="360" y="663" on="0"/>
        <pt x="384" y="681" on="0"/>
        <pt x="384" y="701" on="1"/>
        <pt x="384" y="722" on="0"/>
        <pt x="361" y="740" on="0"/>
        <pt x="330" y="740" on="1"/>
        <pt x="299" y="740" on="0"/>
        <pt x="277" y="722" on="0"/>
        <pt x="277" y="701" on="1"/>
        <pt x="277" y="681" on="0"/>
        <pt x="299" y="663" on="0"/>
      </contour>
    </TTGlyph>
    <TTGlyph name="Aringacute" xMin="-3" yMin="0" xMax="718" yMax="1017">
      <contour>
        <pt x="-3" y="9" on="1"/>
        <pt x="201" y="676" on="1"/>
        <pt x="174" y="711" on="0"/>
        <pt x="174" y="757" on="1"/>
        <pt x="174" y="813" on="0"/>
        <pt x="245" y="889" on="0"/>
        <pt x="307" y="900" on="1"/>
        <pt x="351" y="1017" on="1"/>
        <pt x="541" y="1017" on="1"/>
        <pt x="456" y="884" on="1"/>
        <pt x="497" y="867" on="0"/>
        <pt x="543" y="800" on="0"/>
        <pt x="543" y="757" on="1"/>
        <pt x="543" y="709" on="0"/>
        <pt x="514" y="674" on="1"/>
        <pt x="718" y="9" on="1"/>
        <pt x="718" y="0" on="1"/>
        <pt x="536" y="0" on="1"/>
        <pt x="488" y="163" on="1"/>
        <pt x="226" y="163" on="1"/>
        <pt x="179" y="0" on="1"/>
        <pt x="-3" y="0" on="1"/>
      </contour>
      <contour>
        <pt x="357" y="695" on="1"/>
        <pt x="393" y="695" on="0"/>
        <pt x="436" y="729" on="0"/>
        <pt x="436" y="757" on="1"/>
        <pt x="436" y="785" on="0"/>
        <pt x="393" y="819" on="0"/>
        <pt x="357" y="819" on="1"/>
        <pt x="322" y="819" on="0"/>
        <pt x="282" y="785" on="0"/>
        <pt x="282" y="757" on="1"/>
        <pt x="282" y="728" on="0"/>
        <pt x="323" y="695" on="0"/>
      </contour>
      <contour>
        <pt x="445" y="318" on="1"/>
        <pt x="403" y="470" on="1"/>
        <pt x="369" y="597" on="1"/>
        <pt x="346" y="597" on="1"/>
        <pt x="312" y="469" on="1"/>
        <pt x="269" y="318" on="1"/>
      </contour>
    </TTGlyph>
    <TTGlyph name="Aringacute.sc" xMin="0" yMin="0" xMax="661" yMax="809">
      <contour>
        <pt x="0" y="8" on="1"/>
        <pt x="183" y="532" on="1"/>
        <pt x="160" y="561" on="0"/>
        <pt x="160" y="594" on="1"/>
        <pt x="160" y="641" on="0"/>
        <pt x="225" y="703" on="0"/>
        <pt x="282" y="714" on="1"/>
        <pt x="321" y="809" on="1"/>
        <pt x="500" y="809" on="1"/>
        <pt x="423" y="699" on="1"/>
        <pt x="461" y="683" on="0"/>
        <pt x="503" y="629" on="0"/>
        <pt x="503" y="594" on="1"/>
        <pt x="503" y="559" on="0"/>
        <pt x="477" y="530" on="1"/>
        <pt x="661" y="8" on="1"/>
        <pt x="661" y="0" on="1"/>
        <pt x="488" y="0" on="1"/>
        <pt x="448" y="110" on="1"/>
        <pt x="212" y="110" on="1"/>
        <pt x="172" y="0" on="1"/>
        <pt x="0" y="0" on="1"/>
      </contour>
      <contour>
        <pt x="330" y="548" on="1"/>
        <pt x="362" y="548" on="0"/>
        <pt x="402" y="574" on="0"/>
        <pt x="402" y="594" on="1"/>
        <pt x="402" y="616" on="0"/>
        <pt x="362" y="641" on="0"/>
        <pt x="330" y="641" on="1"/>
        <pt x="298" y="641" on="0"/>
        <pt x="261" y="616" on="0"/>
        <pt x="261" y="594" on="1"/>
        <pt x="261" y="573" on="0"/>
        <pt x="299" y="548" on="0"/>
      </contour>
      <contour>
        <pt x="415" y="233" on="1"/>
        <pt x="371" y="357" on="1"/>
        <pt x="339" y="457" on="1"/>
        <pt x="320" y="457" on="1"/>
        <pt x="289" y="356" on="1"/>
        <pt x="246" y="233" on="1"/>
      </contour>
    </TTGlyph>
    <TTGlyph name="Atilde" xMin="-2" yMin="0" xMax="719" yMax="977">
      <contour>
        <pt x="-2" y="9" on="1"/>
        <pt x="216" y="740" on="1"/>
        <pt x="500" y="740" on="1"/>
        <pt x="719" y="9" on="1"/>
        <pt x="719" y="0" on="1"/>
        <pt x="536" y="0" on="1"/>
        <pt x="487" y="166" on="1"/>
        <pt x="228" y="166" on="1"/>
        <pt x="180" y="0" on="1"/>
        <pt x="-2" y="0" on="1"/>
      </contour>
      <contour>
        <pt x="447" y="314" on="1"/>
        <pt x="403" y="470" on="1"/>
        <pt x="365" y="606" on="1"/>
        <pt x="351" y="606" on="1"/>
        <pt x="313" y="469" on="1"/>
        <pt x="269" y="314" on="1"/>
      </contour>
      <contour>
        <pt x="138" y="849" on="1"/>
        <pt x="171" y="913" on="0"/>
        <pt x="256" y="977" on="0"/>
        <pt x="296" y="977" on="1"/>
        <pt x="320" y="977" on="0"/>
        <pt x="366" y="965" on="0"/>
        <pt x="412" y="951" on="0"/>
        <pt x="458" y="939" on="0"/>
        <pt x="482" y="939" on="1"/>
        <pt x="504" y="939" on="0"/>
        <pt x="546" y="954" on="0"/>
        <pt x="572" y="976" on="1"/>
        <pt x="595" y="948" on="1"/>
        <pt x="562" y="883" on="0"/>
        <pt x="477" y="819" on="0"/>
        <pt x="437" y="819" on="1"/>
        <pt x="413" y="819" on="0"/>
        <pt x="367" y="831" on="0"/>
        <pt x="321" y="845" on="0"/>
        <pt x="275" y="857" on="0"/>
        <pt x="251" y="857" on="1"/>
        <pt x="228" y="857" on="0"/>
        <pt x="187" y="842" on="0"/>
        <pt x="161" y="820" on="1"/>
      </contour>
    </TTGlyph>
    <TTGlyph name="Atilde.sc" xMin="0" yMin="0" xMax="661" yMax="778">
      <contour>
        <pt x="0" y="8" on="1"/>
        <pt x="197" y="577" on="1"/>
        <pt x="465" y="577" on="1"/>
        <pt x="661" y="8" on="1"/>
        <pt x="661" y="0" on="1"/>
        <pt x="488" y="0" on="1"/>
        <pt x="448" y="110" on="1"/>
        <pt x="213" y="110" on="1"/>
        <pt x="172" y="0" on="1"/>
        <pt x="0" y="0" on="1"/>
      </contour>
      <contour>
        <pt x="414" y="233" on="1"/>
        <pt x="372" y="357" on="1"/>
        <pt x="338" y="453" on="1"/>
        <pt x="323" y="453" on="1"/>
        <pt x="289" y="356" on="1"/>
        <pt x="245" y="233" on="1"/>
      </contour>
      <contour>
        <pt x="127" y="661" on="1"/>
        <pt x="157" y="720" on="0"/>
        <pt x="236" y="778" on="0"/>
        <pt x="273" y="778" on="1"/>
        <pt x="295" y="778" on="0"/>
        <pt x="338" y="769" on="0"/>
        <pt x="380" y="759" on="0"/>
        <pt x="423" y="750" on="0"/>
        <pt x="445" y="750" on="1"/>
        <pt x="465" y="750" on="0"/>
        <pt x="503" y="761" on="0"/>
        <pt x="528" y="778" on="1"/>
        <pt x="548" y="754" on="1"/>
        <pt x="517" y="694" on="0"/>
        <pt x="438" y="638" on="0"/>
        <pt x="403" y="638" on="1"/>
        <pt x="381" y="638" on="0"/>
        <pt x="337" y="647" on="0"/>
        <pt x="294" y="657" on="0"/>
        <pt x="251" y="666" on="0"/>
        <pt x="229" y="666" on="1"/>
        <pt x="209" y="666" on="0"/>
        <pt x="171" y="655" on="0"/>
        <pt x="147" y="638" on="1"/>
      </contour>
    </TTGlyph>
    <TTGlyph name="B" xMin="62" yMin="-10" xMax="657" yMax="750">
      <contour>
        <pt x="332" y="-10" on="1"/>
        <pt x="201" y="-10" on="0"/>
        <pt x="62" y="5" on="1"/>
        <pt x="62" y="735" on="1"/>
        <pt x="136" y="743" on="0"/>
        <pt x="260" y="750" on="0"/>
        <pt x="318" y="750" on="1"/>
        <pt x="483" y="750" on="0"/>
        <pt x="635" y="648" on="0"/>
        <pt x="635" y="539" on="1"/>
        <pt x="635" y="414" on="0"/>
        <pt x="515" y="382" on="1"/>
        <pt x="515" y="378" on="1"/>
        <pt x="584" y="364" on="0"/>
        <pt x="657" y="275" on="0"/>
        <pt x="657" y="203" on="1"/>
        <pt x="657" y="94" on="0"/>
        <pt x="498" y="-10" on="0"/>
      </contour>
      <contour>
        <pt x="340" y="127" on="1"/>
        <pt x="466" y="127" on="0"/>
        <pt x="466" y="219" on="1"/>
        <pt x="466" y="268" on="0"/>
        <pt x="409" y="309" on="0"/>
        <pt x="340" y="309" on="1"/>
        <pt x="241" y="309" on="1"/>
        <pt x="241" y="131" on="1"/>
        <pt x="254" y="129" on="0"/>
        <pt x="294" y="127" on="0"/>
      </contour>
      <contour>
        <pt x="330" y="436" on="1"/>
        <pt x="394" y="436" on="0"/>
        <pt x="445" y="476" on="0"/>
        <pt x="445" y="526" on="1"/>
        <pt x="445" y="573" on="0"/>
        <pt x="392" y="613" on="0"/>
        <pt x="331" y="613" on="1"/>
        <pt x="283" y="613" on="0"/>
        <pt x="241" y="607" on="1"/>
        <pt x="241" y="436" on="1"/>
      </contour>
    </TTGlyph>
    <TTGlyph name="B.sc" xMin="59" yMin="-8" xMax="607" yMax="585">
      <contour>
        <pt x="314" y="-8" on="1"/>
        <pt x="250" y="-8" on="0"/>
        <pt x="126" y="-2" on="0"/>
        <pt x="59" y="4" on="1"/>
        <pt x="59" y="573" on="1"/>
        <pt x="126" y="579" on="0"/>
        <pt x="242" y="585" on="0"/>
        <pt x="297" y="585" on="1"/>
        <pt x="449" y="585" on="0"/>
        <pt x="587" y="506" on="0"/>
        <pt x="587" y="418" on="1"/>
        <pt x="587" y="326" on="0"/>
        <pt x="478" y="299" on="1"/>
        <pt x="478" y="296" on="1"/>
        <pt x="541" y="285" on="0"/>
        <pt x="607" y="216" on="0"/>
        <pt x="607" y="161" on="1"/>
        <pt x="607" y="74" on="0"/>
        <pt x="463" y="-8" on="0"/>
      </contour>
      <contour>
        <pt x="320" y="116" on="1"/>
        <pt x="432" y="116" on="0"/>
        <pt x="432" y="177" on="1"/>
        <pt x="432" y="211" on="0"/>
        <pt x="380" y="236" on="0"/>
        <pt x="320" y="236" on="1"/>
        <pt x="229" y="236" on="1"/>
        <pt x="229" y="118" on="1"/>
        <pt x="235" y="117" on="0"/>
        <pt x="247" y="116" on="0"/>
        <pt x="267" y="116" on="0"/>
        <pt x="297" y="116" on="0"/>
      </contour>
      <contour>
        <pt x="309" y="346" on="1"/>
        <pt x="366" y="346" on="0"/>
        <pt x="411" y="371" on="0"/>
        <pt x="411" y="405" on="1"/>
        <pt x="411" y="436" on="0"/>
        <pt x="364" y="461" on="0"/>
        <pt x="310" y="461" on="1"/>
        <pt x="288" y="461" on="0"/>
        <pt x="247" y="460" on="0"/>
        <pt x="229" y="457" on="1"/>
        <pt x="229" y="346" on="1"/>
      </contour>
    </TTGlyph>
    <TTGlyph name="C" xMin="33" yMin="-12" xMax="545" yMax="752">
      <contour>
        <pt x="390" y="-12" on="1"/>
        <pt x="209" y="-11" on="0"/>
        <pt x="33" y="174" on="0"/>
        <pt x="33" y="369" on="1"/>
        <pt x="33" y="565" on="0"/>
        <pt x="205" y="752" on="0"/>
        <pt x="379" y="752" on="1"/>
        <pt x="414" y="752" on="0"/>
        <pt x="494" y="744" on="0"/>
        <pt x="545" y="736" on="1"/>
        <pt x="545" y="585" on="1"/>
        <pt x="493" y="592" on="0"/>
        <pt x="431" y="597" on="0"/>
        <pt x="405" y="597" on="1"/>
        <pt x="354" y="597" on="0"/>
        <pt x="286" y="577" on="0"/>
        <pt x="246" y="526" on="0"/>
        <pt x="229" y="438" on="0"/>
        <pt x="229" y="369" on="1"/>
        <pt x="229" y="301" on="0"/>
        <pt x="246" y="214" on="0"/>
        <pt x="286" y="164" on="0"/>
        <pt x="353" y="144" on="0"/>
        <pt x="403" y="144" on="1"/>
        <pt x="419" y="144" on="0"/>
        <pt x="457" y="146" on="0"/>
        <pt x="496" y="150" on="0"/>
        <pt x="531" y="155" on="0"/>
        <pt x="545" y="158" on="1"/>
        <pt x="545" y="8" on="1"/>
        <pt x="514" y="-1" on="0"/>
        <pt x="431" y="-12" on="0"/>
      </contour>
    </TTGlyph>
    <TTGlyph name="C.sc" xMin="33" yMin="-10" xMax="501" yMax="587">
      <contour>
        <pt x="360" y="-10" on="1"/>
        <pt x="193" y="-10" on="0"/>
        <pt x="33" y="135" on="0"/>
        <pt x="33" y="288" on="1"/>
        <pt x="33" y="440" on="0"/>
        <pt x="190" y="587" on="0"/>
        <pt x="349" y="587" on="1"/>
        <pt x="384" y="587" on="0"/>
        <pt x="457" y="581" on="0"/>
        <pt x="501" y="575" on="1"/>
        <pt x="501" y="434" on="1"/>
        <pt x="460" y="438" on="0"/>
        <pt x="403" y="442" on="0"/>
        <pt x="372" y="442" on="1"/>
        <pt x="325" y="442" on="0"/>
        <pt x="265" y="430" on="0"/>
        <pt x="231" y="397" on="0"/>
        <pt x="218" y="336" on="0"/>
        <pt x="218" y="288" on="1"/>
        <pt x="218" y="240" on="0"/>
        <pt x="231" y="180" on="0"/>
        <pt x="266" y="147" on="0"/>
        <pt x="325" y="136" on="0"/>
        <pt x="371" y="136" on="1"/>
        <pt x="401" y="136" on="0"/>
        <pt x="477" y="141" on="0"/>
        <pt x="501" y="146" on="1"/>
        <pt x="501" y="5" on="1"/>
        <pt x="473" y="-2" on="0"/>
        <pt x="399" y="-10" on="0"/>
      </contour>
    </TTGlyph>
    <TTGlyph name="Cacute" xMin="33" yMin="-12" xMax="545" yMax="987">
      <contour>
        <pt x="390" y="-12" on="1"/>
        <pt x="209" y="-11" on="0"/>
        <pt x="33" y="174" on="0"/>
        <pt x="33" y="369" on="1"/>
        <pt x="33" y="565" on="0"/>
        <pt x="205" y="752" on="0"/>
        <pt x="379" y="752" on="1"/>
        <pt x="414" y="752" on="0"/>
        <pt x="494" y="744" on="0"/>
        <pt x="545" y="736" on="1"/>
        <pt x="545" y="585" on="1"/>
        <pt x="493" y="592" on="0"/>
        <pt x="431" y="597" on="0"/>
        <pt x="405" y="597" on="1"/>
        <pt x="354" y="597" on="0"/>
        <pt x="286" y="577" on="0"/>
        <pt x="246" y="526" on="0"/>
        <pt x="229" y="438" on="0"/>
        <pt x="229" y="369" on="1"/>
        <pt x="229" y="301" on="0"/>
        <pt x="246" y="214" on="0"/>
        <pt x="286" y="164" on="0"/>
        <pt x="353" y="144" on="0"/>
        <pt x="403" y="144" on="1"/>
        <pt x="419" y="144" on="0"/>
        <pt x="457" y="146" on="0"/>
        <pt x="496" y="150" on="0"/>
        <pt x="531" y="155" on="0"/>
        <pt x="545" y="158" on="1"/>
        <pt x="545" y="8" on="1"/>
        <pt x="514" y="-1" on="0"/>
        <pt x="431" y="-12" on="0"/>
      </contour>
      <contour>
        <pt x="251" y="807" on="1"/>
        <pt x="317" y="987" on="1"/>
        <pt x="507" y="987" on="1"/>
        <pt x="385" y="798" on="1"/>
      </contour>
    </TTGlyph>
    <TTGlyph name="Cacute.sc" xMin="32" yMin="-10" xMax="500" yMax="784">
      <contour>
        <pt x="360" y="-10" on="1"/>
        <pt x="193" y="-10" on="0"/>
        <pt x="32" y="135" on="0"/>
        <pt x="32" y="288" on="1"/>
        <pt x="32" y="440" on="0"/>
        <pt x="190" y="587" on="0"/>
        <pt x="348" y="587" on="1"/>
        <pt x="380" y="587" on="0"/>
        <pt x="452" y="581" on="0"/>
        <pt x="500" y="575" on="1"/>
        <pt x="500" y="434" on="1"/>
        <pt x="475" y="436" on="0"/>
        <pt x="438" y="439" on="0"/>
        <pt x="408" y="441" on="0"/>
        <pt x="384" y="442" on="0"/>
        <pt x="372" y="442" on="1"/>
        <pt x="326" y="442" on="0"/>
        <pt x="266" y="431" on="0"/>
        <pt x="231" y="398" on="0"/>
        <pt x="217" y="337" on="0"/>
        <pt x="217" y="288" on="1"/>
        <pt x="217" y="239" on="0"/>
        <pt x="231" y="180" on="0"/>
        <pt x="266" y="147" on="0"/>
        <pt x="325" y="136" on="0"/>
        <pt x="370" y="136" on="1"/>
        <pt x="400" y="136" on="0"/>
        <pt x="476" y="141" on="0"/>
        <pt x="500" y="146" on="1"/>
        <pt x="500" y="5" on="1"/>
        <pt x="471" y="-2" on="0"/>
        <pt x="396" y="-10" on="0"/>
      </contour>
      <contour>
        <pt x="228" y="632" on="1"/>
        <pt x="286" y="784" on="1"/>
        <pt x="466" y="784" on="1"/>
        <pt x="354" y="624" on="1"/>
      </contour>
    </TTGlyph>
    <TTGlyph name="Ccaron" xMin="33" yMin="-12" xMax="545" yMax="993">
      <contour>
        <pt x="390" y="-12" on="1"/>
        <pt x="209" y="-11" on="0"/>
        <pt x="33" y="174" on="0"/>
        <pt x="33" y="369" on="1"/>
        <pt x="33" y="565" on="0"/>
        <pt x="205" y="752" on="0"/>
        <pt x="379" y="752" on="1"/>
        <pt x="414" y="752" on="0"/>
        <pt x="494" y="744" on="0"/>
        <pt x="545" y="736" on="1"/>
        <pt x="545" y="585" on="1"/>
        <pt x="493" y="592" on="0"/>
        <pt x="431" y="597" on="0"/>
        <pt x="405" y="597" on="1"/>
        <pt x="354" y="597" on="0"/>
        <pt x="286" y="577" on="0"/>
        <pt x="246" y="526" on="0"/>
        <pt x="229" y="438" on="0"/>
        <pt x="229" y="369" on="1"/>
        <pt x="229" y="301" on="0"/>
        <pt x="246" y="214" on="0"/>
        <pt x="286" y="164" on="0"/>
        <pt x="353" y="144" on="0"/>
        <pt x="403" y="144" on="1"/>
        <pt x="419" y="144" on="0"/>
        <pt x="457" y="146" on="0"/>
        <pt x="496" y="150" on="0"/>
        <pt x="531" y="155" on="0"/>
        <pt x="545" y="158" on="1"/>
        <pt x="545" y="8" on="1"/>
        <pt x="514" y="-1" on="0"/>
        <pt x="431" y="-12" on="0"/>
      </contour>
      <contour>
        <pt x="136" y="993" on="1"/>
        <pt x="330" y="917" on="1"/>
        <pt x="524" y="993" on="1"/>
        <pt x="524" y="869" on="1"/>
        <pt x="329" y="794" on="1"/>
        <pt x="136" y="869" on="1"/>
      </contour>
    </TTGlyph>
    <TTGlyph name="Ccaron.sc" xMin="32" yMin="-10" xMax="500" yMax="790">
      <contour>
        <pt x="360" y="-10" on="1"/>
        <pt x="193" y="-10" on="0"/>
        <pt x="32" y="135" on="0"/>
        <pt x="32" y="288" on="1"/>
        <pt x="32" y="440" on="0"/>
        <pt x="190" y="587" on="0"/>
        <pt x="348" y="587" on="1"/>
        <pt x="380" y="587" on="0"/>
        <pt x="452" y="581" on="0"/>
        <pt x="500" y="575" on="1"/>
        <pt x="500" y="434" on="1"/>
        <pt x="475" y="436" on="0"/>
        <pt x="438" y="439" on="0"/>
        <pt x="408" y="441" on="0"/>
        <pt x="384" y="442" on="0"/>
        <pt x="372" y="442" on="1"/>
        <pt x="326" y="442" on="0"/>
        <pt x="266" y="431" on="0"/>
        <pt x="231" y="398" on="0"/>
        <pt x="217" y="337" on="0"/>
        <pt x="217" y="288" on="1"/>
        <pt x="217" y="239" on="0"/>
        <pt x="231" y="180" on="0"/>
        <pt x="266" y="147" on="0"/>
        <pt x="325" y="136" on="0"/>
        <pt x="370" y="136" on="1"/>
        <pt x="400" y="136" on="0"/>
        <pt x="476" y="141" on="0"/>
        <pt x="500" y="146" on="1"/>
        <pt x="500" y="5" on="1"/>
        <pt x="471" y="-2" on="0"/>
        <pt x="396" y="-10" on="0"/>
      </contour>
      <contour>
        <pt x="122" y="790" on="1"/>
        <pt x="302" y="730" on="1"/>
        <pt x="482" y="790" on="1"/>
        <pt x="482" y="677" on="1"/>
        <pt x="301" y="617" on="1"/>
        <pt x="122" y="677" on="1"/>
      </contour>
    </TTGlyph>
    <TTGlyph name="Ccedilla" xMin="33" yMin="-220" xMax="545" yMax="752">
      <contour>
        <pt x="318" y="-220" on="1"/>
        <pt x="298" y="-220" on="0"/>
        <pt x="245" y="-213" on="0"/>
        <pt x="217" y="-208" on="1"/>
        <pt x="217" y="-102" on="1"/>
        <pt x="237" y="-107" on="0"/>
        <pt x="278" y="-111" on="0"/>
        <pt x="291" y="-111" on="1"/>
        <pt x="311" y="-111" on="0"/>
        <pt x="327" y="-96" on="0"/>
        <pt x="327" y="-84" on="1"/>
        <pt x="327" y="-56" on="0"/>
        <pt x="292" y="-4" on="1"/>
        <pt x="161" y="19" on="0"/>
        <pt x="33" y="202" on="0"/>
        <pt x="33" y="369" on="1"/>
        <pt x="33" y="565" on="0"/>
        <pt x="205" y="752" on="0"/>
        <pt x="379" y="752" on="1"/>
        <pt x="414" y="752" on="0"/>
        <pt x="494" y="744" on="0"/>
        <pt x="545" y="736" on="1"/>
        <pt x="545" y="585" on="1"/>
        <pt x="493" y="592" on="0"/>
        <pt x="431" y="597" on="0"/>
        <pt x="405" y="597" on="1"/>
        <pt x="354" y="597" on="0"/>
        <pt x="286" y="577" on="0"/>
        <pt x="246" y="526" on="0"/>
        <pt x="229" y="438" on="0"/>
        <pt x="229" y="369" on="1"/>
        <pt x="229" y="301" on="0"/>
        <pt x="246" y="214" on="0"/>
        <pt x="286" y="164" on="0"/>
        <pt x="353" y="144" on="0"/>
        <pt x="403" y="144" on="1"/>
        <pt x="419" y="144" on="0"/>
        <pt x="457" y="146" on="0"/>
        <pt x="496" y="150" on="0"/>
        <pt x="531" y="155" on="0"/>
        <pt x="545" y="158" on="1"/>
        <pt x="545" y="8" on="1"/>
        <pt x="518" y="0" on="0"/>
        <pt x="447" y="-10" on="0"/>
        <pt x="411" y="-12" on="1"/>
        <pt x="431" y="-40" on="0"/>
        <pt x="446" y="-85" on="0"/>
        <pt x="446" y="-110" on="1"/>
        <pt x="446" y="-161" on="0"/>
        <pt x="379" y="-220" on="0"/>
      </contour>
    </TTGlyph>
    <TTGlyph name="Ccedilla.sc" xMin="33" yMin="-172" xMax="501" yMax="587">
      <contour>
        <pt x="296" y="-172" on="1"/>
        <pt x="276" y="-172" on="0"/>
        <pt x="229" y="-166" on="0"/>
        <pt x="203" y="-162" on="1"/>
        <pt x="203" y="-65" on="1"/>
        <pt x="221" y="-68" on="0"/>
        <pt x="260" y="-72" on="0"/>
        <pt x="272" y="-72" on="1"/>
        <pt x="289" y="-72" on="0"/>
        <pt x="301" y="-64" on="0"/>
        <pt x="301" y="-61" on="1"/>
        <pt x="301" y="-42" on="0"/>
        <pt x="274" y="-4" on="1"/>
        <pt x="152" y="13" on="0"/>
        <pt x="33" y="156" on="0"/>
        <pt x="33" y="288" on="1"/>
        <pt x="33" y="440" on="0"/>
        <pt x="190" y="587" on="0"/>
        <pt x="349" y="587" on="1"/>
        <pt x="380" y="587" on="0"/>
        <pt x="452" y="581" on="0"/>
        <pt x="501" y="575" on="1"/>
        <pt x="501" y="434" on="1"/>
        <pt x="451" y="438" on="0"/>
        <pt x="396" y="442" on="0"/>
        <pt x="372" y="442" on="1"/>
        <pt x="327" y="442" on="0"/>
        <pt x="267" y="431" on="0"/>
        <pt x="232" y="398" on="0"/>
        <pt x="218" y="337" on="0"/>
        <pt x="218" y="288" on="1"/>
        <pt x="218" y="239" on="0"/>
        <pt x="232" y="180" on="0"/>
        <pt x="267" y="147" on="0"/>
        <pt x="326" y="136" on="0"/>
        <pt x="371" y="136" on="1"/>
        <pt x="386" y="136" on="0"/>
        <pt x="421" y="137" on="0"/>
        <pt x="456" y="140" on="0"/>
        <pt x="489" y="144" on="0"/>
        <pt x="501" y="146" on="1"/>
        <pt x="501" y="5" on="1"/>
        <pt x="476" y="0" on="0"/>
        <pt x="415" y="-8" on="0"/>
        <pt x="384" y="-10" on="1"/>
        <pt x="400" y="-31" on="0"/>
        <pt x="412" y="-66" on="0"/>
        <pt x="412" y="-86" on="1"/>
        <pt x="412" y="-126" on="0"/>
        <pt x="351" y="-172" on="0"/>
      </contour>
    </TTGlyph>
    <TTGlyph name="Ccircumflex" xMin="33" yMin="-12" xMax="545" yMax="994">
      <contour>
        <pt x="390" y="-12" on="1"/>
        <pt x="209" y="-11" on="0"/>
        <pt x="33" y="174" on="0"/>
        <pt x="33" y="369" on="1"/>
        <pt x="33" y="565" on="0"/>
        <pt x="205" y="752" on="0"/>
        <pt x="379" y="752" on="1"/>
        <pt x="414" y="752" on="0"/>
        <pt x="494" y="744" on="0"/>
        <pt x="545" y="736" on="1"/>
        <pt x="545" y="585" on="1"/>
        <pt x="493" y="592" on="0"/>
        <pt x="431" y="597" on="0"/>
        <pt x="405" y="597" on="1"/>
        <pt x="354" y="597" on="0"/>
        <pt x="286" y="577" on="0"/>
        <pt x="246" y="526" on="0"/>
        <pt x="229" y="438" on="0"/>
        <pt x="229" y="369" on="1"/>
        <pt x="229" y="301" on="0"/>
        <pt x="246" y="214" on="0"/>
        <pt x="286" y="164" on="0"/>
        <pt x="353" y="144" on="0"/>
        <pt x="403" y="144" on="1"/>
        <pt x="419" y="144" on="0"/>
        <pt x="457" y="146" on="0"/>
        <pt x="496" y="150" on="0"/>
        <pt x="531" y="155" on="0"/>
        <pt x="545" y="158" on="1"/>
        <pt x="545" y="8" on="1"/>
        <pt x="514" y="-1" on="0"/>
        <pt x="431" y="-12" on="0"/>
      </contour>
      <contour>
        <pt x="130" y="918" on="1"/>
        <pt x="323" y="994" on="1"/>
        <pt x="518" y="918" on="1"/>
        <pt x="518" y="795" on="1"/>
        <pt x="324" y="871" on="1"/>
        <pt x="130" y="795" on="1"/>
      </contour>
    </TTGlyph>
    <TTGlyph name="Ccircumflex.sc" xMin="32" yMin="-10" xMax="500" yMax="790">
      <contour>
        <pt x="360" y="-10" on="1"/>
        <pt x="193" y="-10" on="0"/>
        <pt x="32" y="135" on="0"/>
        <pt x="32" y="288" on="1"/>
        <pt x="32" y="440" on="0"/>
        <pt x="190" y="587" on="0"/>
        <pt x="348" y="587" on="1"/>
        <pt x="380" y="587" on="0"/>
        <pt x="452" y="581" on="0"/>
        <pt x="500" y="575" on="1"/>
        <pt x="500" y="434" on="1"/>
        <pt x="475" y="436" on="0"/>
        <pt x="438" y="439" on="0"/>
        <pt x="408" y="441" on="0"/>
        <pt x="384" y="442" on="0"/>
        <pt x="372" y="442" on="1"/>
        <pt x="326" y="442" on="0"/>
        <pt x="266" y="431" on="0"/>
        <pt x="231" y="398" on="0"/>
        <pt x="217" y="337" on="0"/>
        <pt x="217" y="288" on="1"/>
        <pt x="217" y="239" on="0"/>
        <pt x="231" y="180" on="0"/>
        <pt x="266" y="147" on="0"/>
        <pt x="325" y="136" on="0"/>
        <pt x="370" y="136" on="1"/>
        <pt x="400" y="136" on="0"/>
        <pt x="476" y="141" on="0"/>
        <pt x="500" y="146" on="1"/>
        <pt x="500" y="5" on="1"/>
        <pt x="471" y="-2" on="0"/>
        <pt x="396" y="-10" on="0"/>
      </contour>
      <contour>
        <pt x="117" y="729" on="1"/>
        <pt x="296" y="790" on="1"/>
        <pt x="477" y="729" on="1"/>
        <pt x="477" y="616" on="1"/>
        <pt x="297" y="677" on="1"/>
        <pt x="117" y="616" on="1"/>
      </contour>
    </TTGlyph>
    <TTGlyph name="Cdotaccent" xMin="33" yMin="-12" xMax="545" yMax="995">
      <contour>
        <pt x="337" y="798" on="1"/>
        <pt x="283" y="798" on="0"/>
        <pt x="236" y="845" on="0"/>
        <pt x="236" y="897" on="1"/>
        <pt x="236" y="948" on="0"/>
        <pt x="283" y="995" on="0"/>
        <pt x="337" y="995" on="1"/>
        <pt x="391" y="995" on="0"/>
        <pt x="438" y="948" on="0"/>
        <pt x="438" y="897" on="1"/>
        <pt x="438" y="846" on="0"/>
        <pt x="391" y="798" on="0"/>
      </contour>
      <contour>
        <pt x="390" y="-12" on="1"/>
        <pt x="209" y="-11" on="0"/>
        <pt x="33" y="174" on="0"/>
        <pt x="33" y="369" on="1"/>
        <pt x="33" y="565" on="0"/>
        <pt x="205" y="752" on="0"/>
        <pt x="379" y="752" on="1"/>
        <pt x="414" y="752" on="0"/>
        <pt x="494" y="744" on="0"/>
        <pt x="545" y="736" on="1"/>
        <pt x="545" y="585" on="1"/>
        <pt x="493" y="592" on="0"/>
        <pt x="431" y="597" on="0"/>
        <pt x="405" y="597" on="1"/>
        <pt x="354" y="597" on="0"/>
        <pt x="286" y="577" on="0"/>
        <pt x="246" y="526" on="0"/>
        <pt x="229" y="438" on="0"/>
        <pt x="229" y="369" on="1"/>
        <pt x="229" y="301" on="0"/>
        <pt x="246" y="214" on="0"/>
        <pt x="286" y="164" on="0"/>
        <pt x="353" y="144" on="0"/>
        <pt x="403" y="144" on="1"/>
        <pt x="419" y="144" on="0"/>
        <pt x="457" y="146" on="0"/>
        <pt x="496" y="150" on="0"/>
        <pt x="531" y="155" on="0"/>
        <pt x="545" y="158" on="1"/>
        <pt x="545" y="8" on="1"/>
        <pt x="514" y="-1" on="0"/>
        <pt x="431" y="-12" on="0"/>
      </contour>
    </TTGlyph>
    <TTGlyph name="Cdotaccent.sc" xMin="32" yMin="-10" xMax="500" yMax="800">
      <contour>
        <pt x="360" y="-10" on="1"/>
        <pt x="193" y="-10" on="0"/>
        <pt x="32" y="135" on="0"/>
        <pt x="32" y="288" on="1"/>
        <pt x="32" y="440" on="0"/>
        <pt x="190" y="587" on="0"/>
        <pt x="348" y="587" on="1"/>
        <pt x="380" y="587" on="0"/>
        <pt x="452" y="581" on="0"/>
        <pt x="500" y="575" on="1"/>
        <pt x="500" y="434" on="1"/>
        <pt x="475" y="436" on="0"/>
        <pt x="438" y="439" on="0"/>
        <pt x="408" y="441" on="0"/>
        <pt x="384" y="442" on="0"/>
        <pt x="372" y="442" on="1"/>
        <pt x="326" y="442" on="0"/>
        <pt x="266" y="431" on="0"/>
        <pt x="231" y="398" on="0"/>
        <pt x="217" y="337" on="0"/>
        <pt x="217" y="288" on="1"/>
        <pt x="217" y="239" on="0"/>
        <pt x="231" y="180" on="0"/>
        <pt x="266" y="147" on="0"/>
        <pt x="325" y="136" on="0"/>
        <pt x="370" y="136" on="1"/>
        <pt x="400" y="136" on="0"/>
        <pt x="476" y="141" on="0"/>
        <pt x="500" y="146" on="1"/>
        <pt x="500" y="5" on="1"/>
        <pt x="471" y="-2" on="0"/>
        <pt x="396" y="-10" on="0"/>
      </contour>
      <contour>
        <pt x="311" y="620" on="1"/>
        <pt x="260" y="620" on="0"/>
        <pt x="216" y="662" on="0"/>
        <pt x="216" y="710" on="1"/>
        <pt x="216" y="758" on="0"/>
        <pt x="260" y="800" on="0"/>
        <pt x="311" y="800" on="1"/>
        <pt x="362" y="800" on="0"/>
        <pt x="405" y="757" on="0"/>
        <pt x="405" y="710" on="1"/>
        <pt x="405" y="663" on="0"/>
        <pt x="362" y="620" on="0"/>
      </contour>
    </TTGlyph>
    <TTGlyph name="D" xMin="62" yMin="-11" xMax="706" yMax="750">
      <contour>
        <pt x="273" y="-11" on="1"/>
        <pt x="220" y="-11" on="0"/>
        <pt x="111" y="-5" on="0"/>
        <pt x="62" y="1" on="1"/>
        <pt x="62" y="739" on="1"/>
        <pt x="142" y="744" on="0"/>
        <pt x="257" y="750" on="0"/>
        <pt x="302" y="750" on="1"/>
        <pt x="409" y="750" on="0"/>
        <pt x="562" y="707" on="0"/>
        <pt x="660" y="615" on="0"/>
        <pt x="706" y="470" on="0"/>
        <pt x="706" y="369" on="1"/>
        <pt x="706" y="266" on="0"/>
        <pt x="658" y="122" on="0"/>
        <pt x="555" y="31" on="0"/>
        <pt x="390" y="-11" on="0"/>
      </contour>
      <contour>
        <pt x="346" y="140" on="1"/>
        <pt x="393" y="140" on="0"/>
        <pt x="457" y="162" on="0"/>
        <pt x="495" y="214" on="0"/>
        <pt x="511" y="303" on="0"/>
        <pt x="511" y="370" on="1"/>
        <pt x="511" y="436" on="0"/>
        <pt x="493" y="524" on="0"/>
        <pt x="452" y="577" on="0"/>
        <pt x="384" y="599" on="0"/>
        <pt x="333" y="599" on="1"/>
        <pt x="313" y="599" on="0"/>
        <pt x="275" y="596" on="0"/>
        <pt x="251" y="594" on="1"/>
        <pt x="251" y="146" on="1"/>
        <pt x="302" y="140" on="0"/>
      </contour>
    </TTGlyph>
    <TTGlyph name="D.sc" xMin="60" yMin="-8" xMax="651" yMax="585">
      <contour>
        <pt x="280" y="-8" on="1"/>
        <pt x="226" y="-8" on="0"/>
        <pt x="109" y="-4" on="0"/>
        <pt x="60" y="1" on="1"/>
        <pt x="60" y="577" on="1"/>
        <pt x="132" y="581" on="0"/>
        <pt x="241" y="585" on="0"/>
        <pt x="283" y="585" on="1"/>
        <pt x="380" y="585" on="0"/>
        <pt x="519" y="551" on="0"/>
        <pt x="609" y="479" on="0"/>
        <pt x="651" y="367" on="0"/>
        <pt x="651" y="288" on="1"/>
        <pt x="651" y="209" on="0"/>
        <pt x="609" y="97" on="0"/>
        <pt x="519" y="25" on="0"/>
        <pt x="378" y="-8" on="0"/>
      </contour>
      <contour>
        <pt x="324" y="133" on="1"/>
        <pt x="366" y="133" on="0"/>
        <pt x="421" y="146" on="0"/>
        <pt x="454" y="180" on="0"/>
        <pt x="467" y="241" on="0"/>
        <pt x="467" y="288" on="1"/>
        <pt x="467" y="334" on="0"/>
        <pt x="452" y="394" on="0"/>
        <pt x="416" y="430" on="0"/>
        <pt x="357" y="444" on="0"/>
        <pt x="312" y="444" on="1"/>
        <pt x="294" y="444" on="0"/>
        <pt x="261" y="442" on="0"/>
        <pt x="238" y="440" on="1"/>
        <pt x="238" y="138" on="1"/>
        <pt x="261" y="135" on="0"/>
        <pt x="302" y="133" on="0"/>
      </contour>
    </TTGlyph>
    <TTGlyph name="Dcaron" xMin="62" yMin="-11" xMax="706" yMax="993">
      <contour>
        <pt x="168" y="993" on="1"/>
        <pt x="362" y="917" on="1"/>
        <pt x="556" y="993" on="1"/>
        <pt x="556" y="869" on="1"/>
        <pt x="361" y="794" on="1"/>
        <pt x="168" y="869" on="1"/>
      </contour>
      <contour>
        <pt x="273" y="-11" on="1"/>
        <pt x="220" y="-11" on="0"/>
        <pt x="111" y="-5" on="0"/>
        <pt x="62" y="1" on="1"/>
        <pt x="62" y="739" on="1"/>
        <pt x="142" y="744" on="0"/>
        <pt x="257" y="750" on="0"/>
        <pt x="302" y="750" on="1"/>
        <pt x="409" y="750" on="0"/>
        <pt x="562" y="707" on="0"/>
        <pt x="660" y="615" on="0"/>
        <pt x="706" y="470" on="0"/>
        <pt x="706" y="369" on="1"/>
        <pt x="706" y="266" on="0"/>
        <pt x="658" y="122" on="0"/>
        <pt x="555" y="31" on="0"/>
        <pt x="390" y="-11" on="0"/>
      </contour>
      <contour>
        <pt x="346" y="140" on="1"/>
        <pt x="393" y="140" on="0"/>
        <pt x="457" y="162" on="0"/>
        <pt x="495" y="214" on="0"/>
        <pt x="511" y="303" on="0"/>
        <pt x="511" y="370" on="1"/>
        <pt x="511" y="436" on="0"/>
        <pt x="493" y="524" on="0"/>
        <pt x="452" y="577" on="0"/>
        <pt x="384" y="599" on="0"/>
        <pt x="333" y="599" on="1"/>
        <pt x="313" y="599" on="0"/>
        <pt x="275" y="596" on="0"/>
        <pt x="251" y="594" on="1"/>
        <pt x="251" y="146" on="1"/>
        <pt x="302" y="140" on="0"/>
      </contour>
    </TTGlyph>
    <TTGlyph name="Dcaron.sc" xMin="60" yMin="-8" xMax="651" yMax="790">
      <contour>
        <pt x="280" y="-8" on="1"/>
        <pt x="226" y="-8" on="0"/>
        <pt x="109" y="-4" on="0"/>
        <pt x="60" y="1" on="1"/>
        <pt x="60" y="577" on="1"/>
        <pt x="132" y="581" on="0"/>
        <pt x="241" y="585" on="0"/>
        <pt x="283" y="585" on="1"/>
        <pt x="380" y="585" on="0"/>
        <pt x="519" y="551" on="0"/>
        <pt x="609" y="479" on="0"/>
        <pt x="651" y="367" on="0"/>
        <pt x="651" y="288" on="1"/>
        <pt x="651" y="209" on="0"/>
        <pt x="609" y="97" on="0"/>
        <pt x="519" y="25" on="0"/>
        <pt x="378" y="-8" on="0"/>
      </contour>
      <contour>
        <pt x="324" y="133" on="1"/>
        <pt x="366" y="133" on="0"/>
        <pt x="421" y="146" on="0"/>
        <pt x="454" y="180" on="0"/>
        <pt x="467" y="241" on="0"/>
        <pt x="467" y="288" on="1"/>
        <pt x="467" y="334" on="0"/>
        <pt x="452" y="394" on="0"/>
        <pt x="416" y="430" on="0"/>
        <pt x="357" y="444" on="0"/>
        <pt x="312" y="444" on="1"/>
        <pt x="294" y="444" on="0"/>
        <pt x="261" y="442" on="0"/>
        <pt x="238" y="440" on="1"/>
        <pt x="238" y="138" on="1"/>
        <pt x="261" y="135" on="0"/>
        <pt x="302" y="133" on="0"/>
      </contour>
      <contour>
        <pt x="159" y="677" on="1"/>
        <pt x="159" y="790" on="1"/>
        <pt x="339" y="730" on="1"/>
        <pt x="519" y="790" on="1"/>
        <pt x="519" y="677" on="1"/>
        <pt x="337" y="617" on="1"/>
      </contour>
    </TTGlyph>
    <TTGlyph name="Dcroat" xMin="2" yMin="-11" xMax="731" yMax="750">
      <contour>
        <pt x="2" y="445" on="1"/>
        <pt x="87" y="445" on="1"/>
        <pt x="87" y="739" on="1"/>
        <pt x="167" y="744" on="0"/>
        <pt x="282" y="750" on="0"/>
        <pt x="327" y="750" on="1"/>
        <pt x="434" y="750" on="0"/>
        <pt x="587" y="707" on="0"/>
        <pt x="685" y="615" on="0"/>
        <pt x="731" y="470" on="0"/>
        <pt x="731" y="369" on="1"/>
        <pt x="731" y="266" on="0"/>
        <pt x="683" y="122" on="0"/>
        <pt x="580" y="31" on="0"/>
        <pt x="415" y="-11" on="0"/>
        <pt x="298" y="-11" on="1"/>
        <pt x="245" y="-11" on="0"/>
        <pt x="136" y="-5" on="0"/>
        <pt x="87" y="1" on="1"/>
        <pt x="87" y="302" on="1"/>
        <pt x="2" y="302" on="1"/>
      </contour>
      <contour>
        <pt x="371" y="140" on="1"/>
        <pt x="418" y="140" on="0"/>
        <pt x="482" y="162" on="0"/>
        <pt x="520" y="214" on="0"/>
        <pt x="536" y="303" on="0"/>
        <pt x="536" y="370" on="1"/>
        <pt x="536" y="436" on="0"/>
        <pt x="518" y="524" on="0"/>
        <pt x="477" y="577" on="0"/>
        <pt x="409" y="599" on="0"/>
        <pt x="358" y="599" on="1"/>
        <pt x="338" y="599" on="0"/>
        <pt x="300" y="596" on="0"/>
        <pt x="276" y="594" on="1"/>
        <pt x="276" y="445" on="1"/>
        <pt x="376" y="445" on="1"/>
        <pt x="376" y="302" on="1"/>
        <pt x="276" y="302" on="1"/>
        <pt x="276" y="146" on="1"/>
        <pt x="327" y="140" on="0"/>
      </contour>
    </TTGlyph>
    <TTGlyph name="Dcroat.sc" xMin="9" yMin="-8" xMax="677" yMax="585">
      <contour>
        <pt x="9" y="359" on="1"/>
        <pt x="85" y="359" on="1"/>
        <pt x="85" y="577" on="1"/>
        <pt x="160" y="581" on="0"/>
        <pt x="267" y="585" on="0"/>
        <pt x="308" y="585" on="1"/>
        <pt x="406" y="585" on="0"/>
        <pt x="546" y="552" on="0"/>
        <pt x="635" y="480" on="0"/>
        <pt x="677" y="367" on="0"/>
        <pt x="677" y="288" on="1"/>
        <pt x="677" y="207" on="0"/>
        <pt x="633" y="94" on="0"/>
        <pt x="538" y="24" on="0"/>
        <pt x="387" y="-8" on="0"/>
        <pt x="280" y="-8" on="1"/>
        <pt x="231" y="-8" on="0"/>
        <pt x="129" y="-4" on="0"/>
        <pt x="85" y="1" on="1"/>
        <pt x="85" y="226" on="1"/>
        <pt x="9" y="226" on="1"/>
      </contour>
      <contour>
        <pt x="349" y="133" on="1"/>
        <pt x="391" y="133" on="0"/>
        <pt x="446" y="146" on="0"/>
        <pt x="479" y="180" on="0"/>
        <pt x="493" y="240" on="0"/>
        <pt x="493" y="288" on="1"/>
        <pt x="493" y="334" on="0"/>
        <pt x="478" y="394" on="0"/>
        <pt x="442" y="430" on="0"/>
        <pt x="382" y="444" on="0"/>
        <pt x="337" y="444" on="1"/>
        <pt x="320" y="444" on="0"/>
        <pt x="287" y="442" on="0"/>
        <pt x="264" y="440" on="1"/>
        <pt x="264" y="359" on="1"/>
        <pt x="350" y="359" on="1"/>
        <pt x="350" y="226" on="1"/>
        <pt x="264" y="226" on="1"/>
        <pt x="264" y="138" on="1"/>
        <pt x="286" y="136" on="0"/>
        <pt x="329" y="133" on="0"/>
      </contour>
    </TTGlyph>
    <TTGlyph name="Ddotbelow" xMin="62" yMin="-212" xMax="706" yMax="750">
      <contour>
        <pt x="359" y="-212" on="1"/>
        <pt x="317" y="-212" on="0"/>
        <pt x="281" y="-177" on="0"/>
        <pt x="281" y="-137" on="1"/>
        <pt x="281" y="-96" on="0"/>
        <pt x="317" y="-61" on="0"/>
        <pt x="359" y="-61" on="1"/>
        <pt x="402" y="-61" on="0"/>
        <pt x="438" y="-97" on="0"/>
        <pt x="438" y="-137" on="1"/>
        <pt x="438" y="-176" on="0"/>
        <pt x="402" y="-212" on="0"/>
      </contour>
      <contour>
        <pt x="273" y="-11" on="1"/>
        <pt x="220" y="-11" on="0"/>
        <pt x="111" y="-5" on="0"/>
        <pt x="62" y="1" on="1"/>
        <pt x="62" y="739" on="1"/>
        <pt x="142" y="744" on="0"/>
        <pt x="257" y="750" on="0"/>
        <pt x="302" y="750" on="1"/>
        <pt x="409" y="750" on="0"/>
        <pt x="562" y="707" on="0"/>
        <pt x="660" y="615" on="0"/>
        <pt x="706" y="470" on="0"/>
        <pt x="706" y="369" on="1"/>
        <pt x="706" y="266" on="0"/>
        <pt x="658" y="122" on="0"/>
        <pt x="555" y="31" on="0"/>
        <pt x="390" y="-11" on="0"/>
      </contour>
      <contour>
        <pt x="346" y="140" on="1"/>
        <pt x="393" y="140" on="0"/>
        <pt x="457" y="162" on="0"/>
        <pt x="495" y="214" on="0"/>
        <pt x="511" y="303" on="0"/>
        <pt x="511" y="370" on="1"/>
        <pt x="511" y="436" on="0"/>
        <pt x="493" y="524" on="0"/>
        <pt x="452" y="577" on="0"/>
        <pt x="384" y="599" on="0"/>
        <pt x="333" y="599" on="1"/>
        <pt x="313" y="599" on="0"/>
        <pt x="275" y="596" on="0"/>
        <pt x="251" y="594" on="1"/>
        <pt x="251" y="146" on="1"/>
        <pt x="302" y="140" on="0"/>
      </contour>
    </TTGlyph>
    <TTGlyph name="Ddotbelow.sc" xMin="60" yMin="-175" xMax="651" yMax="585">
      <contour>
        <pt x="280" y="-8" on="1"/>
        <pt x="226" y="-8" on="0"/>
        <pt x="109" y="-4" on="0"/>
        <pt x="60" y="1" on="1"/>
        <pt x="60" y="577" on="1"/>
        <pt x="132" y="581" on="0"/>
        <pt x="241" y="585" on="0"/>
        <pt x="283" y="585" on="1"/>
        <pt x="380" y="585" on="0"/>
        <pt x="519" y="551" on="0"/>
        <pt x="609" y="479" on="0"/>
        <pt x="651" y="367" on="0"/>
        <pt x="651" y="288" on="1"/>
        <pt x="651" y="209" on="0"/>
        <pt x="609" y="97" on="0"/>
        <pt x="519" y="25" on="0"/>
        <pt x="378" y="-8" on="0"/>
      </contour>
      <contour>
        <pt x="324" y="133" on="1"/>
        <pt x="366" y="133" on="0"/>
        <pt x="421" y="146" on="0"/>
        <pt x="454" y="180" on="0"/>
        <pt x="467" y="241" on="0"/>
        <pt x="467" y="288" on="1"/>
        <pt x="467" y="334" on="0"/>
        <pt x="452" y="394" on="0"/>
        <pt x="416" y="430" on="0"/>
        <pt x="357" y="444" on="0"/>
        <pt x="312" y="444" on="1"/>
        <pt x="294" y="444" on="0"/>
        <pt x="261" y="442" on="0"/>
        <pt x="238" y="440" on="1"/>
        <pt x="238" y="138" on="1"/>
        <pt x="261" y="135" on="0"/>
        <pt x="302" y="133" on="0"/>
      </contour>
      <contour>
        <pt x="334" y="-175" on="1"/>
        <pt x="295" y="-175" on="0"/>
        <pt x="261" y="-143" on="0"/>
        <pt x="261" y="-108" on="1"/>
        <pt x="261" y="-73" on="0"/>
        <pt x="295" y="-40" on="0"/>
        <pt x="334" y="-40" on="1"/>
        <pt x="374" y="-40" on="0"/>
        <pt x="407" y="-73" on="0"/>
        <pt x="407" y="-108" on="1"/>
        <pt x="407" y="-143" on="0"/>
        <pt x="374" y="-175" on="0"/>
      </contour>
    </TTGlyph>
    <TTGlyph name="Delta" xMin="19" yMin="0" xMax="789" yMax="740">
      <contour>
        <pt x="289" y="740" on="1"/>
        <pt x="520" y="740" on="1"/>
        <pt x="789" y="0" on="1"/>
        <pt x="19" y="0" on="1"/>
      </contour>
      <contour>
        <pt x="561" y="150" on="1"/>
        <pt x="404" y="582" on="1"/>
        <pt x="247" y="150" on="1"/>
      </contour>
    </TTGlyph>
    <TTGlyph name="E" xMin="62" yMin="0" xMax="596" yMax="740">
      <contour>
        <pt x="62" y="740" on="1"/>
        <pt x="587" y="740" on="1"/>
        <pt x="587" y="589" on="1"/>
        <pt x="253" y="589" on="1"/>
        <pt x="253" y="446" on="1"/>
        <pt x="553" y="446" on="1"/>
        <pt x="553" y="296" on="1"/>
        <pt x="253" y="296" on="1"/>
        <pt x="253" y="151" on="1"/>
        <pt x="596" y="151" on="1"/>
        <pt x="596" y="0" on="1"/>
        <pt x="62" y="0" on="1"/>
      </contour>
    </TTGlyph>
    <TTGlyph name="E.sc" xMin="60" yMin="0" xMax="551" yMax="577">
      <contour>
        <pt x="60" y="577" on="1"/>
        <pt x="543" y="577" on="1"/>
        <pt x="543" y="441" on="1"/>
        <pt x="240" y="441" on="1"/>
        <pt x="240" y="351" on="1"/>
        <pt x="511" y="351" on="1"/>
        <pt x="511" y="228" on="1"/>
        <pt x="240" y="228" on="1"/>
        <pt x="240" y="136" on="1"/>
        <pt x="551" y="136" on="1"/>
        <pt x="551" y="0" on="1"/>
        <pt x="60" y="0" on="1"/>
      </contour>
    </TTGlyph>
    <TTGlyph name="Eacute" xMin="62" yMin="0" xMax="596" yMax="987">
      <contour>
        <pt x="250" y="807" on="1"/>
        <pt x="316" y="987" on="1"/>
        <pt x="506" y="987" on="1"/>
        <pt x="384" y="798" on="1"/>
      </contour>
      <contour>
        <pt x="62" y="740" on="1"/>
        <pt x="587" y="740" on="1"/>
        <pt x="587" y="589" on="1"/>
        <pt x="253" y="589" on="1"/>
        <pt x="253" y="446" on="1"/>
        <pt x="553" y="446" on="1"/>
        <pt x="553" y="296" on="1"/>
        <pt x="253" y="296" on="1"/>
        <pt x="253" y="151" on="1"/>
        <pt x="596" y="151" on="1"/>
        <pt x="596" y="0" on="1"/>
        <pt x="62" y="0" on="1"/>
      </contour>
    </TTGlyph>
    <TTGlyph name="Eacute.sc" xMin="60" yMin="0" xMax="551" yMax="784">
      <contour>
        <pt x="60" y="577" on="1"/>
        <pt x="543" y="577" on="1"/>
        <pt x="543" y="441" on="1"/>
        <pt x="240" y="441" on="1"/>
        <pt x="240" y="351" on="1"/>
        <pt x="511" y="351" on="1"/>
        <pt x="511" y="228" on="1"/>
        <pt x="240" y="228" on="1"/>
        <pt x="240" y="136" on="1"/>
        <pt x="551" y="136" on="1"/>
        <pt x="551" y="0" on="1"/>
        <pt x="60" y="0" on="1"/>
      </contour>
      <contour>
        <pt x="231" y="632" on="1"/>
        <pt x="288" y="784" on="1"/>
        <pt x="468" y="784" on="1"/>
        <pt x="357" y="624" on="1"/>
      </contour>
    </TTGlyph>
    <TTGlyph name="Ebreve" xMin="62" yMin="0" xMax="596" yMax="985">
      <contour>
        <pt x="323" y="803" on="1"/>
        <pt x="266" y="803" on="0"/>
        <pt x="185" y="830" on="0"/>
        <pt x="134" y="878" on="0"/>
        <pt x="110" y="945" on="0"/>
        <pt x="110" y="985" on="1"/>
        <pt x="234" y="985" on="1"/>
        <pt x="234" y="935" on="0"/>
        <pt x="271" y="890" on="0"/>
        <pt x="323" y="890" on="1"/>
        <pt x="374" y="890" on="0"/>
        <pt x="411" y="935" on="0"/>
        <pt x="411" y="985" on="1"/>
        <pt x="535" y="985" on="1"/>
        <pt x="535" y="944" on="0"/>
        <pt x="511" y="877" on="0"/>
        <pt x="460" y="829" on="0"/>
        <pt x="380" y="803" on="0"/>
      </contour>
      <contour>
        <pt x="62" y="740" on="1"/>
        <pt x="587" y="740" on="1"/>
        <pt x="587" y="589" on="1"/>
        <pt x="253" y="589" on="1"/>
        <pt x="253" y="446" on="1"/>
        <pt x="553" y="446" on="1"/>
        <pt x="553" y="296" on="1"/>
        <pt x="253" y="296" on="1"/>
        <pt x="253" y="151" on="1"/>
        <pt x="596" y="151" on="1"/>
        <pt x="596" y="0" on="1"/>
        <pt x="62" y="0" on="1"/>
      </contour>
    </TTGlyph>
    <TTGlyph name="Ebreve.sc" xMin="60" yMin="0" xMax="551" yMax="777">
      <contour>
        <pt x="299" y="625" on="1"/>
        <pt x="245" y="625" on="0"/>
        <pt x="170" y="648" on="0"/>
        <pt x="123" y="688" on="0"/>
        <pt x="102" y="744" on="0"/>
        <pt x="102" y="777" on="1"/>
        <pt x="218" y="777" on="1"/>
        <pt x="218" y="739" on="0"/>
        <pt x="251" y="703" on="0"/>
        <pt x="299" y="703" on="1"/>
        <pt x="346" y="703" on="0"/>
        <pt x="379" y="739" on="0"/>
        <pt x="379" y="777" on="1"/>
        <pt x="495" y="777" on="1"/>
        <pt x="495" y="744" on="0"/>
        <pt x="474" y="688" on="0"/>
        <pt x="427" y="647" on="0"/>
        <pt x="352" y="625" on="0"/>
      </contour>
      <contour>
        <pt x="60" y="577" on="1"/>
        <pt x="543" y="577" on="1"/>
        <pt x="543" y="441" on="1"/>
        <pt x="240" y="441" on="1"/>
        <pt x="240" y="351" on="1"/>
        <pt x="511" y="351" on="1"/>
        <pt x="511" y="228" on="1"/>
        <pt x="240" y="228" on="1"/>
        <pt x="240" y="136" on="1"/>
        <pt x="551" y="136" on="1"/>
        <pt x="551" y="0" on="1"/>
        <pt x="60" y="0" on="1"/>
      </contour>
    </TTGlyph>
    <TTGlyph name="Ecaron" xMin="62" yMin="0" xMax="596" yMax="993">
      <contour>
        <pt x="137" y="993" on="1"/>
        <pt x="331" y="917" on="1"/>
        <pt x="525" y="993" on="1"/>
        <pt x="525" y="869" on="1"/>
        <pt x="330" y="794" on="1"/>
        <pt x="137" y="869" on="1"/>
      </contour>
      <contour>
        <pt x="62" y="740" on="1"/>
        <pt x="587" y="740" on="1"/>
        <pt x="587" y="589" on="1"/>
        <pt x="253" y="589" on="1"/>
        <pt x="253" y="446" on="1"/>
        <pt x="553" y="446" on="1"/>
        <pt x="553" y="296" on="1"/>
        <pt x="253" y="296" on="1"/>
        <pt x="253" y="151" on="1"/>
        <pt x="596" y="151" on="1"/>
        <pt x="596" y="0" on="1"/>
        <pt x="62" y="0" on="1"/>
      </contour>
    </TTGlyph>
    <TTGlyph name="Ecaron.sc" xMin="60" yMin="0" xMax="551" yMax="790">
      <contour>
        <pt x="60" y="577" on="1"/>
        <pt x="543" y="577" on="1"/>
        <pt x="543" y="441" on="1"/>
        <pt x="240" y="441" on="1"/>
        <pt x="240" y="351" on="1"/>
        <pt x="511" y="351" on="1"/>
        <pt x="511" y="228" on="1"/>
        <pt x="240" y="228" on="1"/>
        <pt x="240" y="136" on="1"/>
        <pt x="551" y="136" on="1"/>
        <pt x="551" y="0" on="1"/>
        <pt x="60" y="0" on="1"/>
      </contour>
      <contour>
        <pt x="127" y="677" on="1"/>
        <pt x="127" y="790" on="1"/>
        <pt x="306" y="730" on="1"/>
        <pt x="486" y="790" on="1"/>
        <pt x="486" y="677" on="1"/>
        <pt x="305" y="617" on="1"/>
      </contour>
    </TTGlyph>
    <TTGlyph name="Ecircumflex" xMin="62" yMin="0" xMax="596" yMax="994">
      <contour>
        <pt x="62" y="740" on="1"/>
        <pt x="587" y="740" on="1"/>
        <pt x="587" y="589" on="1"/>
        <pt x="253" y="589" on="1"/>
        <pt x="253" y="446" on="1"/>
        <pt x="553" y="446" on="1"/>
        <pt x="553" y="296" on="1"/>
        <pt x="253" y="296" on="1"/>
        <pt x="253" y="151" on="1"/>
        <pt x="596" y="151" on="1"/>
        <pt x="596" y="0" on="1"/>
        <pt x="62" y="0" on="1"/>
      </contour>
      <contour>
        <pt x="142" y="918" on="1"/>
        <pt x="335" y="994" on="1"/>
        <pt x="530" y="918" on="1"/>
        <pt x="530" y="795" on="1"/>
        <pt x="336" y="871" on="1"/>
        <pt x="142" y="795" on="1"/>
      </contour>
    </TTGlyph>
    <TTGlyph name="Ecircumflex.sc" xMin="60" yMin="0" xMax="551" yMax="790">
      <contour>
        <pt x="60" y="577" on="1"/>
        <pt x="543" y="577" on="1"/>
        <pt x="543" y="441" on="1"/>
        <pt x="240" y="441" on="1"/>
        <pt x="240" y="351" on="1"/>
        <pt x="511" y="351" on="1"/>
        <pt x="511" y="228" on="1"/>
        <pt x="240" y="228" on="1"/>
        <pt x="240" y="136" on="1"/>
        <pt x="551" y="136" on="1"/>
        <pt x="551" y="0" on="1"/>
        <pt x="60" y="0" on="1"/>
      </contour>
      <contour>
        <pt x="133" y="729" on="1"/>
        <pt x="312" y="790" on="1"/>
        <pt x="492" y="729" on="1"/>
        <pt x="492" y="616" on="1"/>
        <pt x="312" y="677" on="1"/>
        <pt x="133" y="616" on="1"/>
      </contour>
    </TTGlyph>
    <TTGlyph name="Edblgrave" xMin="43" yMin="0" xMax="596" yMax="987">
      <contour>
        <pt x="62" y="740" on="1"/>
        <pt x="587" y="740" on="1"/>
        <pt x="587" y="589" on="1"/>
        <pt x="253" y="589" on="1"/>
        <pt x="253" y="446" on="1"/>
        <pt x="553" y="446" on="1"/>
        <pt x="553" y="296" on="1"/>
        <pt x="253" y="296" on="1"/>
        <pt x="253" y="151" on="1"/>
        <pt x="596" y="151" on="1"/>
        <pt x="596" y="0" on="1"/>
        <pt x="62" y="0" on="1"/>
      </contour>
      <contour>
        <pt x="165" y="797" on="1"/>
        <pt x="43" y="987" on="1"/>
        <pt x="215" y="987" on="1"/>
        <pt x="280" y="808" on="1"/>
      </contour>
      <contour>
        <pt x="377" y="797" on="1"/>
        <pt x="254" y="987" on="1"/>
        <pt x="427" y="987" on="1"/>
        <pt x="492" y="808" on="1"/>
      </contour>
    </TTGlyph>
    <TTGlyph name="Edblgrave.sc" xMin="38" yMin="0" xMax="551" yMax="784">
      <contour>
        <pt x="60" y="577" on="1"/>
        <pt x="543" y="577" on="1"/>
        <pt x="543" y="441" on="1"/>
        <pt x="240" y="441" on="1"/>
        <pt x="240" y="351" on="1"/>
        <pt x="511" y="351" on="1"/>
        <pt x="511" y="228" on="1"/>
        <pt x="240" y="228" on="1"/>
        <pt x="240" y="136" on="1"/>
        <pt x="551" y="136" on="1"/>
        <pt x="551" y="0" on="1"/>
        <pt x="60" y="0" on="1"/>
      </contour>
      <contour>
        <pt x="38" y="784" on="1"/>
        <pt x="203" y="784" on="1"/>
        <pt x="260" y="632" on="1"/>
        <pt x="150" y="624" on="1"/>
      </contour>
      <contour>
        <pt x="235" y="784" on="1"/>
        <pt x="399" y="784" on="1"/>
        <pt x="457" y="632" on="1"/>
        <pt x="346" y="624" on="1"/>
      </contour>
    </TTGlyph>
    <TTGlyph name="Edieresis" xMin="62" yMin="0" xMax="596" yMax="996">
      <contour>
        <pt x="191" y="800" on="1"/>
        <pt x="137" y="800" on="0"/>
        <pt x="90" y="846" on="0"/>
        <pt x="90" y="898" on="1"/>
        <pt x="90" y="950" on="0"/>
        <pt x="137" y="996" on="0"/>
        <pt x="191" y="996" on="1"/>
        <pt x="245" y="996" on="0"/>
        <pt x="292" y="949" on="0"/>
        <pt x="292" y="898" on="1"/>
        <pt x="292" y="847" on="0"/>
        <pt x="245" y="800" on="0"/>
      </contour>
      <contour>
        <pt x="473" y="800" on="1"/>
        <pt x="419" y="800" on="0"/>
        <pt x="372" y="846" on="0"/>
        <pt x="372" y="898" on="1"/>
        <pt x="372" y="950" on="0"/>
        <pt x="419" y="996" on="0"/>
        <pt x="473" y="996" on="1"/>
        <pt x="527" y="996" on="0"/>
        <pt x="574" y="949" on="0"/>
        <pt x="574" y="898" on="1"/>
        <pt x="574" y="847" on="0"/>
        <pt x="527" y="800" on="0"/>
      </contour>
      <contour>
        <pt x="62" y="740" on="1"/>
        <pt x="587" y="740" on="1"/>
        <pt x="587" y="589" on="1"/>
        <pt x="253" y="589" on="1"/>
        <pt x="253" y="446" on="1"/>
        <pt x="553" y="446" on="1"/>
        <pt x="553" y="296" on="1"/>
        <pt x="253" y="296" on="1"/>
        <pt x="253" y="151" on="1"/>
        <pt x="596" y="151" on="1"/>
        <pt x="596" y="0" on="1"/>
        <pt x="62" y="0" on="1"/>
      </contour>
    </TTGlyph>
    <TTGlyph name="Edieresis.sc" xMin="60" yMin="0" xMax="551" yMax="800">
      <contour>
        <pt x="180" y="619" on="1"/>
        <pt x="129" y="619" on="0"/>
        <pt x="85" y="662" on="0"/>
        <pt x="85" y="710" on="1"/>
        <pt x="85" y="757" on="0"/>
        <pt x="129" y="800" on="0"/>
        <pt x="180" y="800" on="1"/>
        <pt x="231" y="800" on="0"/>
        <pt x="274" y="756" on="0"/>
        <pt x="274" y="710" on="1"/>
        <pt x="274" y="662" on="0"/>
        <pt x="231" y="619" on="0"/>
      </contour>
      <contour>
        <pt x="439" y="619" on="1"/>
        <pt x="388" y="619" on="0"/>
        <pt x="344" y="662" on="0"/>
        <pt x="344" y="710" on="1"/>
        <pt x="344" y="757" on="0"/>
        <pt x="388" y="800" on="0"/>
        <pt x="439" y="800" on="1"/>
        <pt x="490" y="800" on="0"/>
        <pt x="533" y="756" on="0"/>
        <pt x="533" y="710" on="1"/>
        <pt x="533" y="662" on="0"/>
        <pt x="490" y="619" on="0"/>
      </contour>
      <contour>
        <pt x="60" y="577" on="1"/>
        <pt x="543" y="577" on="1"/>
        <pt x="543" y="441" on="1"/>
        <pt x="240" y="441" on="1"/>
        <pt x="240" y="351" on="1"/>
        <pt x="511" y="351" on="1"/>
        <pt x="511" y="228" on="1"/>
        <pt x="240" y="228" on="1"/>
        <pt x="240" y="136" on="1"/>
        <pt x="551" y="136" on="1"/>
        <pt x="551" y="0" on="1"/>
        <pt x="60" y="0" on="1"/>
      </contour>
    </TTGlyph>
    <TTGlyph name="Edotaccent" xMin="62" yMin="0" xMax="596" yMax="995">
      <contour>
        <pt x="323" y="798" on="1"/>
        <pt x="269" y="798" on="0"/>
        <pt x="222" y="845" on="0"/>
        <pt x="222" y="897" on="1"/>
        <pt x="222" y="948" on="0"/>
        <pt x="269" y="995" on="0"/>
        <pt x="323" y="995" on="1"/>
        <pt x="377" y="995" on="0"/>
        <pt x="424" y="948" on="0"/>
        <pt x="424" y="897" on="1"/>
        <pt x="424" y="846" on="0"/>
        <pt x="377" y="798" on="0"/>
      </contour>
      <contour>
        <pt x="62" y="740" on="1"/>
        <pt x="587" y="740" on="1"/>
        <pt x="587" y="589" on="1"/>
        <pt x="253" y="589" on="1"/>
        <pt x="253" y="446" on="1"/>
        <pt x="553" y="446" on="1"/>
        <pt x="553" y="296" on="1"/>
        <pt x="253" y="296" on="1"/>
        <pt x="253" y="151" on="1"/>
        <pt x="596" y="151" on="1"/>
        <pt x="596" y="0" on="1"/>
        <pt x="62" y="0" on="1"/>
      </contour>
    </TTGlyph>
    <TTGlyph name="Edotaccent.sc" xMin="60" yMin="0" xMax="551" yMax="800">
      <contour>
        <pt x="299" y="620" on="1"/>
        <pt x="248" y="620" on="0"/>
        <pt x="204" y="662" on="0"/>
        <pt x="204" y="710" on="1"/>
        <pt x="204" y="758" on="0"/>
        <pt x="248" y="800" on="0"/>
        <pt x="299" y="800" on="1"/>
        <pt x="350" y="800" on="0"/>
        <pt x="393" y="757" on="0"/>
        <pt x="393" y="710" on="1"/>
        <pt x="393" y="663" on="0"/>
        <pt x="350" y="620" on="0"/>
      </contour>
      <contour>
        <pt x="60" y="577" on="1"/>
        <pt x="543" y="577" on="1"/>
        <pt x="543" y="441" on="1"/>
        <pt x="240" y="441" on="1"/>
        <pt x="240" y="351" on="1"/>
        <pt x="511" y="351" on="1"/>
        <pt x="511" y="228" on="1"/>
        <pt x="240" y="228" on="1"/>
        <pt x="240" y="136" on="1"/>
        <pt x="551" y="136" on="1"/>
        <pt x="551" y="0" on="1"/>
        <pt x="60" y="0" on="1"/>
      </contour>
    </TTGlyph>
    <TTGlyph name="Edotbelow" xMin="62" yMin="-212" xMax="596" yMax="740">
      <contour>
        <pt x="62" y="740" on="1"/>
        <pt x="587" y="740" on="1"/>
        <pt x="587" y="589" on="1"/>
        <pt x="253" y="589" on="1"/>
        <pt x="253" y="446" on="1"/>
        <pt x="553" y="446" on="1"/>
        <pt x="553" y="296" on="1"/>
        <pt x="253" y="296" on="1"/>
        <pt x="253" y="151" on="1"/>
        <pt x="596" y="151" on="1"/>
        <pt x="596" y="0" on="1"/>
        <pt x="62" y="0" on="1"/>
      </contour>
      <contour>
        <pt x="339" y="-212" on="1"/>
        <pt x="297" y="-212" on="0"/>
        <pt x="261" y="-177" on="0"/>
        <pt x="261" y="-137" on="1"/>
        <pt x="261" y="-96" on="0"/>
        <pt x="297" y="-61" on="0"/>
        <pt x="339" y="-61" on="1"/>
        <pt x="382" y="-61" on="0"/>
        <pt x="418" y="-97" on="0"/>
        <pt x="418" y="-137" on="1"/>
        <pt x="418" y="-176" on="0"/>
        <pt x="382" y="-212" on="0"/>
      </contour>
    </TTGlyph>
    <TTGlyph name="Edotbelow.sc" xMin="60" yMin="-175" xMax="551" yMax="577">
      <contour>
        <pt x="315" y="-175" on="1"/>
        <pt x="276" y="-175" on="0"/>
        <pt x="242" y="-143" on="0"/>
        <pt x="242" y="-108" on="1"/>
        <pt x="242" y="-72" on="0"/>
        <pt x="276" y="-40" on="0"/>
        <pt x="315" y="-40" on="1"/>
        <pt x="355" y="-40" on="0"/>
        <pt x="388" y="-73" on="0"/>
        <pt x="388" y="-108" on="1"/>
        <pt x="388" y="-142" on="0"/>
        <pt x="355" y="-175" on="0"/>
      </contour>
      <contour>
        <pt x="60" y="577" on="1"/>
        <pt x="543" y="577" on="1"/>
        <pt x="543" y="441" on="1"/>
        <pt x="240" y="441" on="1"/>
        <pt x="240" y="351" on="1"/>
        <pt x="511" y="351" on="1"/>
        <pt x="511" y="228" on="1"/>
        <pt x="240" y="228" on="1"/>
        <pt x="240" y="136" on="1"/>
        <pt x="551" y="136" on="1"/>
        <pt x="551" y="0" on="1"/>
        <pt x="60" y="0" on="1"/>
      </contour>
    </TTGlyph>
    <TTGlyph name="Egrave" xMin="62" yMin="0" xMax="596" yMax="987">
      <contour>
        <pt x="272" y="798" on="1"/>
        <pt x="150" y="987" on="1"/>
        <pt x="341" y="987" on="1"/>
        <pt x="406" y="809" on="1"/>
      </contour>
      <contour>
        <pt x="62" y="740" on="1"/>
        <pt x="587" y="740" on="1"/>
        <pt x="587" y="589" on="1"/>
        <pt x="253" y="589" on="1"/>
        <pt x="253" y="446" on="1"/>
        <pt x="553" y="446" on="1"/>
        <pt x="553" y="296" on="1"/>
        <pt x="253" y="296" on="1"/>
        <pt x="253" y="151" on="1"/>
        <pt x="596" y="151" on="1"/>
        <pt x="596" y="0" on="1"/>
        <pt x="62" y="0" on="1"/>
      </contour>
    </TTGlyph>
    <TTGlyph name="Egrave.sc" xMin="60" yMin="0" xMax="551" yMax="784">
      <contour>
        <pt x="60" y="577" on="1"/>
        <pt x="543" y="577" on="1"/>
        <pt x="543" y="441" on="1"/>
        <pt x="240" y="441" on="1"/>
        <pt x="240" y="351" on="1"/>
        <pt x="511" y="351" on="1"/>
        <pt x="511" y="228" on="1"/>
        <pt x="240" y="228" on="1"/>
        <pt x="240" y="136" on="1"/>
        <pt x="551" y="136" on="1"/>
        <pt x="551" y="0" on="1"/>
        <pt x="60" y="0" on="1"/>
      </contour>
      <contour>
        <pt x="142" y="784" on="1"/>
        <pt x="322" y="784" on="1"/>
        <pt x="379" y="632" on="1"/>
        <pt x="253" y="624" on="1"/>
      </contour>
    </TTGlyph>
    <TTGlyph name="Einvertedbreve" xMin="62" yMin="0" xMax="596" yMax="994">
      <contour>
        <pt x="62" y="740" on="1"/>
        <pt x="587" y="740" on="1"/>
        <pt x="587" y="589" on="1"/>
        <pt x="253" y="589" on="1"/>
        <pt x="253" y="446" on="1"/>
        <pt x="553" y="446" on="1"/>
        <pt x="553" y="296" on="1"/>
        <pt x="253" y="296" on="1"/>
        <pt x="253" y="151" on="1"/>
        <pt x="596" y="151" on="1"/>
        <pt x="596" y="0" on="1"/>
        <pt x="62" y="0" on="1"/>
      </contour>
      <contour>
        <pt x="417" y="812" on="1"/>
        <pt x="417" y="861" on="0"/>
        <pt x="379" y="907" on="0"/>
        <pt x="328" y="907" on="1"/>
        <pt x="277" y="907" on="0"/>
        <pt x="239" y="861" on="0"/>
        <pt x="239" y="812" on="1"/>
        <pt x="115" y="812" on="1"/>
        <pt x="115" y="852" on="0"/>
        <pt x="139" y="919" on="0"/>
        <pt x="190" y="967" on="0"/>
        <pt x="271" y="994" on="0"/>
        <pt x="328" y="994" on="1"/>
        <pt x="441" y="994" on="0"/>
        <pt x="541" y="894" on="0"/>
        <pt x="541" y="812" on="1"/>
      </contour>
    </TTGlyph>
    <TTGlyph name="Einvertedbreve.sc" xMin="60" yMin="0" xMax="551" yMax="785">
      <contour>
        <pt x="107" y="633" on="1"/>
        <pt x="107" y="666" on="0"/>
        <pt x="128" y="721" on="0"/>
        <pt x="175" y="762" on="0"/>
        <pt x="250" y="785" on="0"/>
        <pt x="304" y="785" on="1"/>
        <pt x="357" y="785" on="0"/>
        <pt x="432" y="763" on="0"/>
        <pt x="479" y="722" on="0"/>
        <pt x="501" y="666" on="0"/>
        <pt x="501" y="633" on="1"/>
        <pt x="384" y="633" on="1"/>
        <pt x="384" y="670" on="0"/>
        <pt x="351" y="706" on="0"/>
        <pt x="304" y="706" on="1"/>
        <pt x="256" y="706" on="0"/>
        <pt x="223" y="671" on="0"/>
        <pt x="223" y="633" on="1"/>
      </contour>
      <contour>
        <pt x="60" y="577" on="1"/>
        <pt x="543" y="577" on="1"/>
        <pt x="543" y="441" on="1"/>
        <pt x="240" y="441" on="1"/>
        <pt x="240" y="351" on="1"/>
        <pt x="511" y="351" on="1"/>
        <pt x="511" y="228" on="1"/>
        <pt x="240" y="228" on="1"/>
        <pt x="240" y="136" on="1"/>
        <pt x="551" y="136" on="1"/>
        <pt x="551" y="0" on="1"/>
        <pt x="60" y="0" on="1"/>
      </contour>
    </TTGlyph>
    <TTGlyph name="Emacron" xMin="62" yMin="0" xMax="596" yMax="962">
      <contour>
        <pt x="136" y="962" on="1"/>
        <pt x="520" y="962" on="1"/>
        <pt x="520" y="840" on="1"/>
        <pt x="136" y="840" on="1"/>
      </contour>
      <contour>
        <pt x="62" y="740" on="1"/>
        <pt x="587" y="740" on="1"/>
        <pt x="587" y="589" on="1"/>
        <pt x="253" y="589" on="1"/>
        <pt x="253" y="446" on="1"/>
        <pt x="553" y="446" on="1"/>
        <pt x="553" y="296" on="1"/>
        <pt x="253" y="296" on="1"/>
        <pt x="253" y="151" on="1"/>
        <pt x="596" y="151" on="1"/>
        <pt x="596" y="0" on="1"/>
        <pt x="62" y="0" on="1"/>
      </contour>
    </TTGlyph>
    <TTGlyph name="Emacron.sc" xMin="60" yMin="0" xMax="551" yMax="768">
      <contour>
        <pt x="60" y="577" on="1"/>
        <pt x="543" y="577" on="1"/>
        <pt x="543" y="441" on="1"/>
        <pt x="240" y="441" on="1"/>
        <pt x="240" y="351" on="1"/>
        <pt x="511" y="351" on="1"/>
        <pt x="511" y="228" on="1"/>
        <pt x="240" y="228" on="1"/>
        <pt x="240" y="136" on="1"/>
        <pt x="551" y="136" on="1"/>
        <pt x="551" y="0" on="1"/>
        <pt x="60" y="0" on="1"/>
      </contour>
      <contour>
        <pt x="127" y="768" on="1"/>
        <pt x="483" y="768" on="1"/>
        <pt x="483" y="655" on="1"/>
        <pt x="127" y="655" on="1"/>
      </contour>
    </TTGlyph>
    <TTGlyph name="Eng" xMin="62" yMin="-211" xMax="714" yMax="740">
      <contour>
        <pt x="459" y="-170" on="1"/>
        <pt x="487" y="-105" on="0"/>
        <pt x="518" y="1" on="0"/>
        <pt x="524" y="54" on="1"/>
        <pt x="297" y="357" on="1"/>
        <pt x="241" y="446" on="1"/>
        <pt x="231" y="446" on="1"/>
        <pt x="231" y="0" on="1"/>
        <pt x="62" y="0" on="1"/>
        <pt x="62" y="740" on="1"/>
        <pt x="212" y="740" on="1"/>
        <pt x="484" y="378" on="1"/>
        <pt x="536" y="295" on="1"/>
        <pt x="545" y="295" on="1"/>
        <pt x="545" y="740" on="1"/>
        <pt x="714" y="740" on="1"/>
        <pt x="714" y="124" on="1"/>
        <pt x="714" y="94" on="0"/>
        <pt x="694" y="12" on="0"/>
        <pt x="658" y="-78" on="0"/>
        <pt x="610" y="-171" on="0"/>
        <pt x="583" y="-211" on="1"/>
      </contour>
    </TTGlyph>
    <TTGlyph name="Eng.sc" xMin="60" yMin="-171" xMax="644" yMax="577">
      <contour>
        <pt x="414" y="-133" on="1"/>
        <pt x="440" y="-77" on="0"/>
        <pt x="467" y="3" on="0"/>
        <pt x="472" y="42" on="1"/>
        <pt x="282" y="237" on="1"/>
        <pt x="228" y="308" on="1"/>
        <pt x="219" y="308" on="1"/>
        <pt x="219" y="0" on="1"/>
        <pt x="60" y="0" on="1"/>
        <pt x="60" y="577" on="1"/>
        <pt x="201" y="577" on="1"/>
        <pt x="429" y="335" on="1"/>
        <pt x="477" y="270" on="1"/>
        <pt x="485" y="270" on="1"/>
        <pt x="485" y="577" on="1"/>
        <pt x="644" y="577" on="1"/>
        <pt x="644" y="110" on="1"/>
        <pt x="644" y="83" on="0"/>
        <pt x="628" y="16" on="0"/>
        <pt x="598" y="-57" on="0"/>
        <pt x="556" y="-134" on="0"/>
        <pt x="531" y="-171" on="1"/>
      </contour>
    </TTGlyph>
    <TTGlyph name="Eogonek" xMin="62" yMin="-220" xMax="597" yMax="740">
      <contour>
        <pt x="62" y="740" on="1"/>
        <pt x="587" y="740" on="1"/>
        <pt x="587" y="589" on="1"/>
        <pt x="253" y="589" on="1"/>
        <pt x="253" y="446" on="1"/>
        <pt x="553" y="446" on="1"/>
        <pt x="553" y="296" on="1"/>
        <pt x="253" y="296" on="1"/>
        <pt x="253" y="151" on="1"/>
        <pt x="596" y="151" on="1"/>
        <pt x="596" y="-7" on="1"/>
        <pt x="531" y="-33" on="0"/>
        <pt x="480" y="-79" on="0"/>
        <pt x="480" y="-98" on="1"/>
        <pt x="480" y="-120" on="0"/>
        <pt x="513" y="-120" on="1"/>
        <pt x="529" y="-120" on="0"/>
        <pt x="577" y="-111" on="0"/>
        <pt x="597" y="-106" on="1"/>
        <pt x="597" y="-208" on="1"/>
        <pt x="574" y="-214" on="0"/>
        <pt x="531" y="-220" on="0"/>
        <pt x="506" y="-220" on="1"/>
        <pt x="435" y="-220" on="0"/>
        <pt x="361" y="-171" on="0"/>
        <pt x="361" y="-123" on="1"/>
        <pt x="361" y="-55" on="0"/>
        <pt x="443" y="0" on="1"/>
        <pt x="62" y="0" on="1"/>
      </contour>
    </TTGlyph>
    <TTGlyph name="Eogonek.sc" xMin="60" yMin="-172" xMax="552" yMax="577">
      <contour>
        <pt x="469" y="-172" on="1"/>
        <pt x="400" y="-172" on="0"/>
        <pt x="334" y="-130" on="0"/>
        <pt x="334" y="-92" on="1"/>
        <pt x="334" y="-64" on="0"/>
        <pt x="370" y="-19" on="0"/>
        <pt x="402" y="0" on="1"/>
        <pt x="60" y="0" on="1"/>
        <pt x="60" y="577" on="1"/>
        <pt x="543" y="577" on="1"/>
        <pt x="543" y="441" on="1"/>
        <pt x="240" y="441" on="1"/>
        <pt x="240" y="351" on="1"/>
        <pt x="512" y="351" on="1"/>
        <pt x="512" y="228" on="1"/>
        <pt x="240" y="228" on="1"/>
        <pt x="240" y="136" on="1"/>
        <pt x="551" y="136" on="1"/>
        <pt x="551" y="-3" on="1"/>
        <pt x="518" y="-15" on="0"/>
        <pt x="477" y="-34" on="0"/>
        <pt x="454" y="-50" on="0"/>
        <pt x="446" y="-63" on="0"/>
        <pt x="446" y="-67" on="1"/>
        <pt x="446" y="-78" on="0"/>
        <pt x="474" y="-78" on="1"/>
        <pt x="489" y="-78" on="0"/>
        <pt x="537" y="-72" on="0"/>
        <pt x="552" y="-68" on="1"/>
        <pt x="552" y="-162" on="1"/>
        <pt x="511" y="-172" on="0"/>
      </contour>
    </TTGlyph>
    <TTGlyph name="Eth" xMin="2" yMin="-11" xMax="731" yMax="750">
      <contour>
        <pt x="2" y="445" on="1"/>
        <pt x="87" y="445" on="1"/>
        <pt x="87" y="739" on="1"/>
        <pt x="167" y="744" on="0"/>
        <pt x="282" y="750" on="0"/>
        <pt x="327" y="750" on="1"/>
        <pt x="434" y="750" on="0"/>
        <pt x="587" y="707" on="0"/>
        <pt x="685" y="615" on="0"/>
        <pt x="731" y="470" on="0"/>
        <pt x="731" y="369" on="1"/>
        <pt x="731" y="266" on="0"/>
        <pt x="683" y="122" on="0"/>
        <pt x="580" y="31" on="0"/>
        <pt x="415" y="-11" on="0"/>
        <pt x="298" y="-11" on="1"/>
        <pt x="245" y="-11" on="0"/>
        <pt x="136" y="-5" on="0"/>
        <pt x="87" y="1" on="1"/>
        <pt x="87" y="302" on="1"/>
        <pt x="2" y="302" on="1"/>
      </contour>
      <contour>
        <pt x="371" y="140" on="1"/>
        <pt x="418" y="140" on="0"/>
        <pt x="482" y="162" on="0"/>
        <pt x="520" y="214" on="0"/>
        <pt x="536" y="303" on="0"/>
        <pt x="536" y="370" on="1"/>
        <pt x="536" y="436" on="0"/>
        <pt x="518" y="524" on="0"/>
        <pt x="477" y="577" on="0"/>
        <pt x="409" y="599" on="0"/>
        <pt x="358" y="599" on="1"/>
        <pt x="338" y="599" on="0"/>
        <pt x="300" y="596" on="0"/>
        <pt x="276" y="594" on="1"/>
        <pt x="276" y="445" on="1"/>
        <pt x="376" y="445" on="1"/>
        <pt x="376" y="302" on="1"/>
        <pt x="276" y="302" on="1"/>
        <pt x="276" y="146" on="1"/>
        <pt x="327" y="140" on="0"/>
      </contour>
    </TTGlyph>
    <TTGlyph name="Eth.sc" xMin="8" yMin="-8" xMax="675" yMax="585">
      <contour>
        <pt x="8" y="354" on="1"/>
        <pt x="84" y="354" on="1"/>
        <pt x="84" y="577" on="1"/>
        <pt x="159" y="581" on="0"/>
        <pt x="266" y="585" on="0"/>
        <pt x="307" y="585" on="1"/>
        <pt x="404" y="585" on="0"/>
        <pt x="544" y="552" on="0"/>
        <pt x="633" y="480" on="0"/>
        <pt x="675" y="367" on="0"/>
        <pt x="675" y="288" on="1"/>
        <pt x="675" y="207" on="0"/>
        <pt x="632" y="94" on="0"/>
        <pt x="537" y="24" on="0"/>
        <pt x="386" y="-8" on="0"/>
        <pt x="278" y="-8" on="1"/>
        <pt x="229" y="-8" on="0"/>
        <pt x="127" y="-4" on="0"/>
        <pt x="84" y="1" on="1"/>
        <pt x="84" y="228" on="1"/>
        <pt x="8" y="228" on="1"/>
      </contour>
      <contour>
        <pt x="348" y="133" on="1"/>
        <pt x="389" y="133" on="0"/>
        <pt x="444" y="146" on="0"/>
        <pt x="477" y="180" on="0"/>
        <pt x="491" y="240" on="0"/>
        <pt x="491" y="288" on="1"/>
        <pt x="491" y="334" on="0"/>
        <pt x="476" y="394" on="0"/>
        <pt x="440" y="430" on="0"/>
        <pt x="381" y="444" on="0"/>
        <pt x="336" y="444" on="1"/>
        <pt x="319" y="444" on="0"/>
        <pt x="285" y="442" on="0"/>
        <pt x="262" y="440" on="1"/>
        <pt x="262" y="354" on="1"/>
        <pt x="348" y="354" on="1"/>
        <pt x="348" y="228" on="1"/>
        <pt x="262" y="228" on="1"/>
        <pt x="262" y="138" on="1"/>
        <pt x="285" y="136" on="0"/>
        <pt x="328" y="133" on="0"/>
      </contour>
    </TTGlyph>
    <TTGlyph name="Etilde" xMin="62" yMin="0" xMax="596" yMax="977">
      <contour>
        <pt x="106" y="849" on="1"/>
        <pt x="139" y="913" on="0"/>
        <pt x="224" y="977" on="0"/>
        <pt x="264" y="977" on="1"/>
        <pt x="288" y="977" on="0"/>
        <pt x="334" y="965" on="0"/>
        <pt x="380" y="951" on="0"/>
        <pt x="426" y="939" on="0"/>
        <pt x="450" y="939" on="1"/>
        <pt x="472" y="939" on="0"/>
        <pt x="514" y="954" on="0"/>
        <pt x="540" y="976" on="1"/>
        <pt x="563" y="948" on="1"/>
        <pt x="530" y="883" on="0"/>
        <pt x="445" y="819" on="0"/>
        <pt x="405" y="819" on="1"/>
        <pt x="381" y="819" on="0"/>
        <pt x="335" y="831" on="0"/>
        <pt x="289" y="845" on="0"/>
        <pt x="243" y="857" on="0"/>
        <pt x="219" y="857" on="1"/>
        <pt x="196" y="857" on="0"/>
        <pt x="155" y="842" on="0"/>
        <pt x="129" y="820" on="1"/>
      </contour>
      <contour>
        <pt x="62" y="740" on="1"/>
        <pt x="587" y="740" on="1"/>
        <pt x="587" y="589" on="1"/>
        <pt x="253" y="589" on="1"/>
        <pt x="253" y="446" on="1"/>
        <pt x="553" y="446" on="1"/>
        <pt x="553" y="296" on="1"/>
        <pt x="253" y="296" on="1"/>
        <pt x="253" y="151" on="1"/>
        <pt x="596" y="151" on="1"/>
        <pt x="596" y="0" on="1"/>
        <pt x="62" y="0" on="1"/>
      </contour>
    </TTGlyph>
    <TTGlyph name="Etilde.sc" xMin="60" yMin="0" xMax="551" yMax="778">
      <contour>
        <pt x="99" y="661" on="1"/>
        <pt x="129" y="720" on="0"/>
        <pt x="208" y="778" on="0"/>
        <pt x="245" y="778" on="1"/>
        <pt x="267" y="778" on="0"/>
        <pt x="310" y="769" on="0"/>
        <pt x="353" y="759" on="0"/>
        <pt x="396" y="750" on="0"/>
        <pt x="418" y="750" on="1"/>
        <pt x="438" y="750" on="0"/>
        <pt x="475" y="761" on="0"/>
        <pt x="500" y="778" on="1"/>
        <pt x="521" y="754" on="1"/>
        <pt x="490" y="694" on="0"/>
        <pt x="411" y="638" on="0"/>
        <pt x="375" y="638" on="1"/>
        <pt x="353" y="638" on="0"/>
        <pt x="310" y="647" on="0"/>
        <pt x="267" y="657" on="0"/>
        <pt x="224" y="666" on="0"/>
        <pt x="202" y="666" on="1"/>
        <pt x="181" y="666" on="0"/>
        <pt x="143" y="655" on="0"/>
        <pt x="120" y="638" on="1"/>
      </contour>
      <contour>
        <pt x="60" y="577" on="1"/>
        <pt x="543" y="577" on="1"/>
        <pt x="543" y="441" on="1"/>
        <pt x="240" y="441" on="1"/>
        <pt x="240" y="351" on="1"/>
        <pt x="511" y="351" on="1"/>
        <pt x="511" y="228" on="1"/>
        <pt x="240" y="228" on="1"/>
        <pt x="240" y="136" on="1"/>
        <pt x="551" y="136" on="1"/>
        <pt x="551" y="0" on="1"/>
        <pt x="60" y="0" on="1"/>
      </contour>
    </TTGlyph>
    <TTGlyph name="Euro" xMin="31" yMin="-10" xMax="639" yMax="750">
      <contour>
        <pt x="31" y="505" on="1"/>
        <pt x="116" y="505" on="1"/>
        <pt x="145" y="627" on="0"/>
        <pt x="323" y="750" on="0"/>
        <pt x="479" y="750" on="1"/>
        <pt x="532" y="750" on="0"/>
        <pt x="612" y="737" on="0"/>
        <pt x="639" y="731" on="1"/>
        <pt x="600" y="583" on="1"/>
        <pt x="582" y="586" on="0"/>
        <pt x="532" y="591" on="0"/>
        <pt x="511" y="591" on="1"/>
        <pt x="466" y="591" on="0"/>
        <pt x="399" y="582" on="0"/>
        <pt x="351" y="562" on="0"/>
        <pt x="319" y="529" on="0"/>
        <pt x="310" y="505" on="1"/>
        <pt x="569" y="505" on="1"/>
        <pt x="549" y="402" on="1"/>
        <pt x="294" y="402" on="1"/>
        <pt x="294" y="337" on="1"/>
        <pt x="536" y="337" on="1"/>
        <pt x="516" y="234" on="1"/>
        <pt x="310" y="234" on="1"/>
        <pt x="319" y="209" on="0"/>
        <pt x="351" y="176" on="0"/>
        <pt x="399" y="156" on="0"/>
        <pt x="467" y="148" on="0"/>
        <pt x="513" y="148" on="1"/>
        <pt x="545" y="148" on="0"/>
        <pt x="607" y="155" on="0"/>
        <pt x="637" y="163" on="1"/>
        <pt x="637" y="8" on="1"/>
        <pt x="610" y="-1" on="0"/>
        <pt x="530" y="-10" on="0"/>
        <pt x="485" y="-10" on="1"/>
        <pt x="326" y="-10" on="0"/>
        <pt x="145" y="113" on="0"/>
        <pt x="116" y="234" on="1"/>
        <pt x="31" y="234" on="1"/>
        <pt x="31" y="337" on="1"/>
        <pt x="102" y="337" on="1"/>
        <pt x="102" y="369" on="1"/>
        <pt x="102" y="377" on="0"/>
        <pt x="102" y="394" on="0"/>
        <pt x="103" y="402" on="1"/>
        <pt x="31" y="402" on="1"/>
      </contour>
    </TTGlyph>
    <TTGlyph name="Euro.tab" xMin="11" yMin="-10" xMax="603" yMax="750">
      <contour>
        <pt x="11" y="505" on="1"/>
        <pt x="95" y="505" on="1"/>
        <pt x="123" y="627" on="0"/>
        <pt x="295" y="750" on="0"/>
        <pt x="445" y="750" on="1"/>
        <pt x="497" y="750" on="0"/>
        <pt x="576" y="737" on="0"/>
        <pt x="603" y="731" on="1"/>
        <pt x="564" y="583" on="1"/>
        <pt x="546" y="586" on="0"/>
        <pt x="497" y="591" on="0"/>
        <pt x="477" y="591" on="1"/>
        <pt x="395" y="591" on="0"/>
        <pt x="307" y="554" on="0"/>
        <pt x="289" y="505" on="1"/>
        <pt x="535" y="505" on="1"/>
        <pt x="516" y="402" on="1"/>
        <pt x="269" y="402" on="1"/>
        <pt x="269" y="337" on="1"/>
        <pt x="504" y="337" on="1"/>
        <pt x="484" y="234" on="1"/>
        <pt x="288" y="234" on="1"/>
        <pt x="307" y="186" on="0"/>
        <pt x="396" y="148" on="0"/>
        <pt x="479" y="148" on="1"/>
        <pt x="511" y="148" on="0"/>
        <pt x="571" y="155" on="0"/>
        <pt x="601" y="163" on="1"/>
        <pt x="601" y="8" on="1"/>
        <pt x="575" y="-1" on="0"/>
        <pt x="495" y="-10" on="0"/>
        <pt x="452" y="-10" on="1"/>
        <pt x="297" y="-10" on="0"/>
        <pt x="123" y="112" on="0"/>
        <pt x="94" y="234" on="1"/>
        <pt x="11" y="234" on="1"/>
        <pt x="11" y="337" on="1"/>
        <pt x="80" y="337" on="1"/>
        <pt x="80" y="402" on="1"/>
        <pt x="11" y="402" on="1"/>
      </contour>
    </TTGlyph>
    <TTGlyph name="F" xMin="62" yMin="0" xMax="581" yMax="740">
      <contour>
        <pt x="62" y="740" on="1"/>
        <pt x="581" y="740" on="1"/>
        <pt x="581" y="589" on="1"/>
        <pt x="253" y="589" on="1"/>
        <pt x="253" y="425" on="1"/>
        <pt x="547" y="425" on="1"/>
        <pt x="547" y="274" on="1"/>
        <pt x="253" y="274" on="1"/>
        <pt x="253" y="0" on="1"/>
        <pt x="62" y="0" on="1"/>
      </contour>
    </TTGlyph>
    <TTGlyph name="F.sc" xMin="60" yMin="0" xMax="538" yMax="577">
      <contour>
        <pt x="60" y="577" on="1"/>
        <pt x="538" y="577" on="1"/>
        <pt x="538" y="437" on="1"/>
        <pt x="240" y="437" on="1"/>
        <pt x="240" y="333" on="1"/>
        <pt x="507" y="333" on="1"/>
        <pt x="507" y="201" on="1"/>
        <pt x="240" y="201" on="1"/>
        <pt x="240" y="0" on="1"/>
        <pt x="60" y="0" on="1"/>
      </contour>
    </TTGlyph>
    <TTGlyph name="F_B.sc" xMin="60" yMin="-8" xMax="1164" yMax="585">
      <contour>
        <pt x="60" y="577" on="1"/>
        <pt x="538" y="577" on="1"/>
        <pt x="538" y="437" on="1"/>
        <pt x="240" y="437" on="1"/>
        <pt x="240" y="333" on="1"/>
        <pt x="507" y="333" on="1"/>
        <pt x="507" y="201" on="1"/>
        <pt x="240" y="201" on="1"/>
        <pt x="240" y="0" on="1"/>
        <pt x="60" y="0" on="1"/>
      </contour>
      <contour>
        <pt x="871" y="-8" on="1"/>
        <pt x="807" y="-8" on="0"/>
        <pt x="683" y="-2" on="0"/>
        <pt x="616" y="4" on="1"/>
        <pt x="616" y="573" on="1"/>
        <pt x="683" y="579" on="0"/>
        <pt x="799" y="585" on="0"/>
        <pt x="854" y="585" on="1"/>
        <pt x="1006" y="585" on="0"/>
        <pt x="1144" y="506" on="0"/>
        <pt x="1144" y="418" on="1"/>
        <pt x="1144" y="326" on="0"/>
        <pt x="1035" y="299" on="1"/>
        <pt x="1035" y="296" on="1"/>
        <pt x="1098" y="285" on="0"/>
        <pt x="1164" y="216" on="0"/>
        <pt x="1164" y="161" on="1"/>
        <pt x="1164" y="74" on="0"/>
        <pt x="1020" y="-8" on="0"/>
      </contour>
      <contour>
        <pt x="877" y="116" on="1"/>
        <pt x="989" y="116" on="0"/>
        <pt x="989" y="177" on="1"/>
        <pt x="989" y="211" on="0"/>
        <pt x="937" y="236" on="0"/>
        <pt x="877" y="236" on="1"/>
        <pt x="786" y="236" on="1"/>
        <pt x="786" y="118" on="1"/>
        <pt x="792" y="117" on="0"/>
        <pt x="804" y="116" on="0"/>
        <pt x="824" y="116" on="0"/>
        <pt x="854" y="116" on="0"/>
      </contour>
      <contour>
        <pt x="866" y="346" on="1"/>
        <pt x="923" y="346" on="0"/>
        <pt x="968" y="371" on="0"/>
        <pt x="968" y="405" on="1"/>
        <pt x="968" y="436" on="0"/>
        <pt x="921" y="461" on="0"/>
        <pt x="867" y="461" on="1"/>
        <pt x="845" y="461" on="0"/>
        <pt x="804" y="460" on="0"/>
        <pt x="786" y="457" on="1"/>
        <pt x="786" y="346" on="1"/>
      </contour>
    </TTGlyph>
    <TTGlyph name="F_F.sc" xMin="60" yMin="0" xMax="1094" yMax="577">
      <contour>
        <pt x="60" y="577" on="1"/>
        <pt x="538" y="577" on="1"/>
        <pt x="538" y="437" on="1"/>
        <pt x="240" y="437" on="1"/>
        <pt x="240" y="333" on="1"/>
        <pt x="507" y="333" on="1"/>
        <pt x="507" y="201" on="1"/>
        <pt x="240" y="201" on="1"/>
        <pt x="240" y="0" on="1"/>
        <pt x="60" y="0" on="1"/>
      </contour>
      <contour>
        <pt x="616" y="577" on="1"/>
        <pt x="1094" y="577" on="1"/>
        <pt x="1094" y="437" on="1"/>
        <pt x="796" y="437" on="1"/>
        <pt x="796" y="333" on="1"/>
        <pt x="1063" y="333" on="1"/>
        <pt x="1063" y="201" on="1"/>
        <pt x="796" y="201" on="1"/>
        <pt x="796" y="0" on="1"/>
        <pt x="616" y="0" on="1"/>
      </contour>
    </TTGlyph>
    <TTGlyph name="F_F_B.sc" xMin="60" yMin="-8" xMax="1720" yMax="585">
      <contour>
        <pt x="60" y="577" on="1"/>
        <pt x="538" y="577" on="1"/>
        <pt x="538" y="437" on="1"/>
        <pt x="240" y="437" on="1"/>
        <pt x="240" y="333" on="1"/>
        <pt x="507" y="333" on="1"/>
        <pt x="507" y="201" on="1"/>
        <pt x="240" y="201" on="1"/>
        <pt x="240" y="0" on="1"/>
        <pt x="60" y="0" on="1"/>
      </contour>
      <contour>
        <pt x="616" y="577" on="1"/>
        <pt x="1094" y="577" on="1"/>
        <pt x="1094" y="437" on="1"/>
        <pt x="796" y="437" on="1"/>
        <pt x="796" y="333" on="1"/>
        <pt x="1063" y="333" on="1"/>
        <pt x="1063" y="201" on="1"/>
        <pt x="796" y="201" on="1"/>
        <pt x="796" y="0" on="1"/>
        <pt x="616" y="0" on="1"/>
      </contour>
      <contour>
        <pt x="1427" y="-8" on="1"/>
        <pt x="1363" y="-8" on="0"/>
        <pt x="1239" y="-2" on="0"/>
        <pt x="1172" y="4" on="1"/>
        <pt x="1172" y="573" on="1"/>
        <pt x="1239" y="579" on="0"/>
        <pt x="1355" y="585" on="0"/>
        <pt x="1410" y="585" on="1"/>
        <pt x="1562" y="585" on="0"/>
        <pt x="1700" y="506" on="0"/>
        <pt x="1700" y="418" on="1"/>
        <pt x="1700" y="326" on="0"/>
        <pt x="1591" y="299" on="1"/>
        <pt x="1591" y="296" on="1"/>
        <pt x="1654" y="285" on="0"/>
        <pt x="1720" y="216" on="0"/>
        <pt x="1720" y="161" on="1"/>
        <pt x="1720" y="74" on="0"/>
        <pt x="1576" y="-8" on="0"/>
      </contour>
      <contour>
        <pt x="1433" y="116" on="1"/>
        <pt x="1545" y="116" on="0"/>
        <pt x="1545" y="177" on="1"/>
        <pt x="1545" y="211" on="0"/>
        <pt x="1493" y="236" on="0"/>
        <pt x="1433" y="236" on="1"/>
        <pt x="1342" y="236" on="1"/>
        <pt x="1342" y="118" on="1"/>
        <pt x="1348" y="117" on="0"/>
        <pt x="1360" y="116" on="0"/>
        <pt x="1380" y="116" on="0"/>
        <pt x="1410" y="116" on="0"/>
      </contour>
      <contour>
        <pt x="1422" y="346" on="1"/>
        <pt x="1479" y="346" on="0"/>
        <pt x="1524" y="371" on="0"/>
        <pt x="1524" y="405" on="1"/>
        <pt x="1524" y="436" on="0"/>
        <pt x="1477" y="461" on="0"/>
        <pt x="1423" y="461" on="1"/>
        <pt x="1401" y="461" on="0"/>
        <pt x="1360" y="460" on="0"/>
        <pt x="1342" y="457" on="1"/>
        <pt x="1342" y="346" on="1"/>
      </contour>
    </TTGlyph>
    <TTGlyph name="F_F_H.sc" xMin="60" yMin="0" xMax="1775" yMax="577">
      <contour>
        <pt x="60" y="577" on="1"/>
        <pt x="538" y="577" on="1"/>
        <pt x="538" y="437" on="1"/>
        <pt x="240" y="437" on="1"/>
        <pt x="240" y="333" on="1"/>
        <pt x="507" y="333" on="1"/>
        <pt x="507" y="201" on="1"/>
        <pt x="240" y="201" on="1"/>
        <pt x="240" y="0" on="1"/>
        <pt x="60" y="0" on="1"/>
      </contour>
      <contour>
        <pt x="616" y="577" on="1"/>
        <pt x="1094" y="577" on="1"/>
        <pt x="1094" y="437" on="1"/>
        <pt x="796" y="437" on="1"/>
        <pt x="796" y="333" on="1"/>
        <pt x="1063" y="333" on="1"/>
        <pt x="1063" y="201" on="1"/>
        <pt x="796" y="201" on="1"/>
        <pt x="796" y="0" on="1"/>
        <pt x="616" y="0" on="1"/>
      </contour>
      <contour>
        <pt x="1172" y="577" on="1"/>
        <pt x="1352" y="577" on="1"/>
        <pt x="1352" y="366" on="1"/>
        <pt x="1595" y="366" on="1"/>
        <pt x="1595" y="577" on="1"/>
        <pt x="1775" y="577" on="1"/>
        <pt x="1775" y="0" on="1"/>
        <pt x="1595" y="0" on="1"/>
        <pt x="1595" y="226" on="1"/>
        <pt x="1352" y="226" on="1"/>
        <pt x="1352" y="0" on="1"/>
        <pt x="1172" y="0" on="1"/>
      </contour>
    </TTGlyph>
    <TTGlyph name="F_F_I.sc" xMin="60" yMin="0" xMax="1352" yMax="577">
      <contour>
        <pt x="60" y="577" on="1"/>
        <pt x="538" y="577" on="1"/>
        <pt x="538" y="437" on="1"/>
        <pt x="240" y="437" on="1"/>
        <pt x="240" y="333" on="1"/>
        <pt x="507" y="333" on="1"/>
        <pt x="507" y="201" on="1"/>
        <pt x="240" y="201" on="1"/>
        <pt x="240" y="0" on="1"/>
        <pt x="60" y="0" on="1"/>
      </contour>
      <contour>
        <pt x="616" y="577" on="1"/>
        <pt x="1094" y="577" on="1"/>
        <pt x="1094" y="437" on="1"/>
        <pt x="796" y="437" on="1"/>
        <pt x="796" y="333" on="1"/>
        <pt x="1063" y="333" on="1"/>
        <pt x="1063" y="201" on="1"/>
        <pt x="796" y="201" on="1"/>
        <pt x="796" y="0" on="1"/>
        <pt x="616" y="0" on="1"/>
      </contour>
      <contour>
        <pt x="1172" y="577" on="1"/>
        <pt x="1352" y="577" on="1"/>
        <pt x="1352" y="0" on="1"/>
        <pt x="1172" y="0" on="1"/>
      </contour>
    </TTGlyph>
    <TTGlyph name="F_F_J.sc" xMin="60" yMin="-172" xMax="1362" yMax="577">
      <contour>
        <pt x="60" y="577" on="1"/>
        <pt x="538" y="577" on="1"/>
        <pt x="538" y="437" on="1"/>
        <pt x="240" y="437" on="1"/>
        <pt x="240" y="333" on="1"/>
        <pt x="507" y="333" on="1"/>
        <pt x="507" y="201" on="1"/>
        <pt x="240" y="201" on="1"/>
        <pt x="240" y="0" on="1"/>
        <pt x="60" y="0" on="1"/>
      </contour>
      <contour>
        <pt x="616" y="577" on="1"/>
        <pt x="1094" y="577" on="1"/>
        <pt x="1094" y="437" on="1"/>
        <pt x="796" y="437" on="1"/>
        <pt x="796" y="333" on="1"/>
        <pt x="1063" y="333" on="1"/>
        <pt x="1063" y="201" on="1"/>
        <pt x="796" y="201" on="1"/>
        <pt x="796" y="0" on="1"/>
        <pt x="616" y="0" on="1"/>
      </contour>
      <contour>
        <pt x="1115" y="-123" on="1"/>
        <pt x="1134" y="-84" on="0"/>
        <pt x="1160" y="-17" on="0"/>
        <pt x="1176" y="48" on="0"/>
        <pt x="1182" y="116" on="0"/>
        <pt x="1182" y="157" on="1"/>
        <pt x="1182" y="577" on="1"/>
        <pt x="1362" y="577" on="1"/>
        <pt x="1362" y="143" on="1"/>
        <pt x="1362" y="101" on="0"/>
        <pt x="1349" y="26" on="0"/>
        <pt x="1317" y="-48" on="0"/>
        <pt x="1266" y="-126" on="0"/>
        <pt x="1229" y="-172" on="1"/>
      </contour>
    </TTGlyph>
    <TTGlyph name="F_F_K.sc" xMin="60" yMin="0" xMax="1773" yMax="577">
      <contour>
        <pt x="60" y="577" on="1"/>
        <pt x="538" y="577" on="1"/>
        <pt x="538" y="437" on="1"/>
        <pt x="240" y="437" on="1"/>
        <pt x="240" y="333" on="1"/>
        <pt x="507" y="333" on="1"/>
        <pt x="507" y="201" on="1"/>
        <pt x="240" y="201" on="1"/>
        <pt x="240" y="0" on="1"/>
        <pt x="60" y="0" on="1"/>
      </contour>
      <contour>
        <pt x="616" y="577" on="1"/>
        <pt x="1094" y="577" on="1"/>
        <pt x="1094" y="437" on="1"/>
        <pt x="796" y="437" on="1"/>
        <pt x="796" y="333" on="1"/>
        <pt x="1063" y="333" on="1"/>
        <pt x="1063" y="201" on="1"/>
        <pt x="796" y="201" on="1"/>
        <pt x="796" y="0" on="1"/>
        <pt x="616" y="0" on="1"/>
      </contour>
      <contour>
        <pt x="1172" y="577" on="1"/>
        <pt x="1352" y="577" on="1"/>
        <pt x="1352" y="361" on="1"/>
        <pt x="1428" y="361" on="1"/>
        <pt x="1558" y="577" on="1"/>
        <pt x="1757" y="577" on="1"/>
        <pt x="1596" y="325" on="1"/>
        <pt x="1540" y="303" on="1"/>
        <pt x="1540" y="297" on="1"/>
        <pt x="1598" y="274" on="1"/>
        <pt x="1773" y="0" on="1"/>
        <pt x="1573" y="0" on="1"/>
        <pt x="1435" y="221" on="1"/>
        <pt x="1352" y="221" on="1"/>
        <pt x="1352" y="0" on="1"/>
        <pt x="1172" y="0" on="1"/>
      </contour>
    </TTGlyph>
    <TTGlyph name="F_F_L.sc" xMin="60" yMin="0" xMax="1609" yMax="577">
      <contour>
        <pt x="1172" y="577" on="1"/>
        <pt x="1352" y="577" on="1"/>
        <pt x="1352" y="140" on="1"/>
        <pt x="1609" y="140" on="1"/>
        <pt x="1609" y="0" on="1"/>
        <pt x="1172" y="0" on="1"/>
      </contour>
      <contour>
        <pt x="60" y="577" on="1"/>
        <pt x="538" y="577" on="1"/>
        <pt x="538" y="437" on="1"/>
        <pt x="240" y="437" on="1"/>
        <pt x="240" y="333" on="1"/>
        <pt x="507" y="333" on="1"/>
        <pt x="507" y="201" on="1"/>
        <pt x="240" y="201" on="1"/>
        <pt x="240" y="0" on="1"/>
        <pt x="60" y="0" on="1"/>
      </contour>
      <contour>
        <pt x="616" y="577" on="1"/>
        <pt x="1094" y="577" on="1"/>
        <pt x="1094" y="437" on="1"/>
        <pt x="796" y="437" on="1"/>
        <pt x="796" y="333" on="1"/>
        <pt x="1063" y="333" on="1"/>
        <pt x="1063" y="201" on="1"/>
        <pt x="796" y="201" on="1"/>
        <pt x="796" y="0" on="1"/>
        <pt x="616" y="0" on="1"/>
      </contour>
    </TTGlyph>
    <TTGlyph name="F_F_T.sc" xMin="60" yMin="0" xMax="1638" yMax="577">
      <contour>
        <pt x="1283" y="436" on="1"/>
        <pt x="1108" y="436" on="1"/>
        <pt x="1108" y="577" on="1"/>
        <pt x="1638" y="577" on="1"/>
        <pt x="1638" y="436" on="1"/>
        <pt x="1463" y="436" on="1"/>
        <pt x="1463" y="0" on="1"/>
        <pt x="1283" y="0" on="1"/>
      </contour>
      <contour>
        <pt x="60" y="577" on="1"/>
        <pt x="538" y="577" on="1"/>
        <pt x="538" y="437" on="1"/>
        <pt x="240" y="437" on="1"/>
        <pt x="240" y="333" on="1"/>
        <pt x="507" y="333" on="1"/>
        <pt x="507" y="201" on="1"/>
        <pt x="240" y="201" on="1"/>
        <pt x="240" y="0" on="1"/>
        <pt x="60" y="0" on="1"/>
      </contour>
      <contour>
        <pt x="616" y="577" on="1"/>
        <pt x="1094" y="577" on="1"/>
        <pt x="1094" y="437" on="1"/>
        <pt x="796" y="437" on="1"/>
        <pt x="796" y="333" on="1"/>
        <pt x="1063" y="333" on="1"/>
        <pt x="1063" y="201" on="1"/>
        <pt x="796" y="201" on="1"/>
        <pt x="796" y="0" on="1"/>
        <pt x="616" y="0" on="1"/>
      </contour>
    </TTGlyph>
    <TTGlyph name="F_H.sc" xMin="60" yMin="0" xMax="1219" yMax="577">
      <contour>
        <pt x="60" y="577" on="1"/>
        <pt x="538" y="577" on="1"/>
        <pt x="538" y="437" on="1"/>
        <pt x="240" y="437" on="1"/>
        <pt x="240" y="333" on="1"/>
        <pt x="507" y="333" on="1"/>
        <pt x="507" y="201" on="1"/>
        <pt x="240" y="201" on="1"/>
        <pt x="240" y="0" on="1"/>
        <pt x="60" y="0" on="1"/>
      </contour>
      <contour>
        <pt x="616" y="577" on="1"/>
        <pt x="796" y="577" on="1"/>
        <pt x="796" y="366" on="1"/>
        <pt x="1039" y="366" on="1"/>
        <pt x="1039" y="577" on="1"/>
        <pt x="1219" y="577" on="1"/>
        <pt x="1219" y="0" on="1"/>
        <pt x="1039" y="0" on="1"/>
        <pt x="1039" y="226" on="1"/>
        <pt x="796" y="226" on="1"/>
        <pt x="796" y="0" on="1"/>
        <pt x="616" y="0" on="1"/>
      </contour>
    </TTGlyph>
    <TTGlyph name="F_I.sc" xMin="60" yMin="0" xMax="796" yMax="577">
      <contour>
        <pt x="60" y="577" on="1"/>
        <pt x="538" y="577" on="1"/>
        <pt x="538" y="437" on="1"/>
        <pt x="240" y="437" on="1"/>
        <pt x="240" y="333" on="1"/>
        <pt x="507" y="333" on="1"/>
        <pt x="507" y="201" on="1"/>
        <pt x="240" y="201" on="1"/>
        <pt x="240" y="0" on="1"/>
        <pt x="60" y="0" on="1"/>
      </contour>
      <contour>
        <pt x="616" y="577" on="1"/>
        <pt x="796" y="577" on="1"/>
        <pt x="796" y="0" on="1"/>
        <pt x="616" y="0" on="1"/>
      </contour>
    </TTGlyph>
    <TTGlyph name="F_J.sc" xMin="60" yMin="-172" xMax="806" yMax="577">
      <contour>
        <pt x="60" y="577" on="1"/>
        <pt x="538" y="577" on="1"/>
        <pt x="538" y="437" on="1"/>
        <pt x="240" y="437" on="1"/>
        <pt x="240" y="333" on="1"/>
        <pt x="507" y="333" on="1"/>
        <pt x="507" y="201" on="1"/>
        <pt x="240" y="201" on="1"/>
        <pt x="240" y="0" on="1"/>
        <pt x="60" y="0" on="1"/>
      </contour>
      <contour>
        <pt x="559" y="-123" on="1"/>
        <pt x="578" y="-84" on="0"/>
        <pt x="604" y="-17" on="0"/>
        <pt x="620" y="48" on="0"/>
        <pt x="626" y="116" on="0"/>
        <pt x="626" y="157" on="1"/>
        <pt x="626" y="577" on="1"/>
        <pt x="806" y="577" on="1"/>
        <pt x="806" y="143" on="1"/>
        <pt x="806" y="101" on="0"/>
        <pt x="793" y="26" on="0"/>
        <pt x="761" y="-48" on="0"/>
        <pt x="710" y="-126" on="0"/>
        <pt x="673" y="-172" on="1"/>
      </contour>
    </TTGlyph>
    <TTGlyph name="F_K.sc" xMin="60" yMin="0" xMax="1217" yMax="577">
      <contour>
        <pt x="60" y="577" on="1"/>
        <pt x="538" y="577" on="1"/>
        <pt x="538" y="437" on="1"/>
        <pt x="240" y="437" on="1"/>
        <pt x="240" y="333" on="1"/>
        <pt x="507" y="333" on="1"/>
        <pt x="507" y="201" on="1"/>
        <pt x="240" y="201" on="1"/>
        <pt x="240" y="0" on="1"/>
        <pt x="60" y="0" on="1"/>
      </contour>
      <contour>
        <pt x="616" y="577" on="1"/>
        <pt x="796" y="577" on="1"/>
        <pt x="796" y="361" on="1"/>
        <pt x="872" y="361" on="1"/>
        <pt x="1002" y="577" on="1"/>
        <pt x="1201" y="577" on="1"/>
        <pt x="1040" y="325" on="1"/>
        <pt x="984" y="303" on="1"/>
        <pt x="984" y="297" on="1"/>
        <pt x="1042" y="274" on="1"/>
        <pt x="1217" y="0" on="1"/>
        <pt x="1017" y="0" on="1"/>
        <pt x="879" y="221" on="1"/>
        <pt x="796" y="221" on="1"/>
        <pt x="796" y="0" on="1"/>
        <pt x="616" y="0" on="1"/>
      </contour>
    </TTGlyph>
    <TTGlyph name="F_L.sc" xMin="60" yMin="0" xMax="1053" yMax="577">
      <contour>
        <pt x="616" y="577" on="1"/>
        <pt x="796" y="577" on="1"/>
        <pt x="796" y="140" on="1"/>
        <pt x="1053" y="140" on="1"/>
        <pt x="1053" y="0" on="1"/>
        <pt x="616" y="0" on="1"/>
      </contour>
      <contour>
        <pt x="60" y="577" on="1"/>
        <pt x="538" y="577" on="1"/>
        <pt x="538" y="437" on="1"/>
        <pt x="240" y="437" on="1"/>
        <pt x="240" y="333" on="1"/>
        <pt x="507" y="333" on="1"/>
        <pt x="507" y="201" on="1"/>
        <pt x="240" y="201" on="1"/>
        <pt x="240" y="0" on="1"/>
        <pt x="60" y="0" on="1"/>
      </contour>
    </TTGlyph>
    <TTGlyph name="F_T.sc" xMin="60" yMin="0" xMax="1082" yMax="577">
      <contour>
        <pt x="727" y="436" on="1"/>
        <pt x="552" y="436" on="1"/>
        <pt x="552" y="577" on="1"/>
        <pt x="1082" y="577" on="1"/>
        <pt x="1082" y="436" on="1"/>
        <pt x="907" y="436" on="1"/>
        <pt x="907" y="0" on="1"/>
        <pt x="727" y="0" on="1"/>
      </contour>
      <contour>
        <pt x="60" y="577" on="1"/>
        <pt x="538" y="577" on="1"/>
        <pt x="538" y="437" on="1"/>
        <pt x="240" y="437" on="1"/>
        <pt x="240" y="333" on="1"/>
        <pt x="507" y="333" on="1"/>
        <pt x="507" y="201" on="1"/>
        <pt x="240" y="201" on="1"/>
        <pt x="240" y="0" on="1"/>
        <pt x="60" y="0" on="1"/>
      </contour>
    </TTGlyph>
    <TTGlyph name="G" xMin="32" yMin="-12" xMax="628" yMax="752">
      <contour>
        <pt x="390" y="-12" on="1"/>
        <pt x="208" y="-11" on="0"/>
        <pt x="32" y="176" on="0"/>
        <pt x="32" y="369" on="1"/>
        <pt x="32" y="752" on="0"/>
        <pt x="416" y="752" on="1"/>
        <pt x="464" y="752" on="0"/>
        <pt x="572" y="739" on="0"/>
        <pt x="617" y="728" on="1"/>
        <pt x="617" y="577" on="1"/>
        <pt x="557" y="588" on="0"/>
        <pt x="466" y="597" on="0"/>
        <pt x="432" y="597" on="1"/>
        <pt x="372" y="597" on="0"/>
        <pt x="293" y="576" on="0"/>
        <pt x="247" y="523" on="0"/>
        <pt x="228" y="435" on="0"/>
        <pt x="228" y="369" on="1"/>
        <pt x="228" y="303" on="0"/>
        <pt x="244" y="216" on="0"/>
        <pt x="284" y="165" on="0"/>
        <pt x="352" y="144" on="0"/>
        <pt x="403" y="144" on="1"/>
        <pt x="414" y="144" on="0"/>
        <pt x="441" y="144" on="0"/>
        <pt x="455" y="146" on="1"/>
        <pt x="455" y="376" on="1"/>
        <pt x="628" y="376" on="1"/>
        <pt x="628" y="19" on="1"/>
        <pt x="562" y="5" on="0"/>
        <pt x="438" y="-12" on="0"/>
      </contour>
    </TTGlyph>
    <TTGlyph name="G.sc" xMin="32" yMin="-10" xMax="579" yMax="587">
      <contour>
        <pt x="360" y="-10" on="1"/>
        <pt x="193" y="-10" on="0"/>
        <pt x="32" y="137" on="0"/>
        <pt x="32" y="288" on="1"/>
        <pt x="32" y="438" on="0"/>
        <pt x="205" y="587" on="0"/>
        <pt x="383" y="587" on="1"/>
        <pt x="428" y="587" on="0"/>
        <pt x="528" y="577" on="0"/>
        <pt x="569" y="568" on="1"/>
        <pt x="569" y="429" on="1"/>
        <pt x="513" y="436" on="0"/>
        <pt x="428" y="442" on="0"/>
        <pt x="398" y="442" on="1"/>
        <pt x="342" y="442" on="0"/>
        <pt x="272" y="429" on="0"/>
        <pt x="232" y="394" on="0"/>
        <pt x="217" y="334" on="0"/>
        <pt x="217" y="288" on="1"/>
        <pt x="217" y="241" on="0"/>
        <pt x="230" y="182" on="0"/>
        <pt x="264" y="149" on="0"/>
        <pt x="324" y="136" on="0"/>
        <pt x="371" y="136" on="1"/>
        <pt x="372" y="136" on="0"/>
        <pt x="385" y="136" on="0"/>
        <pt x="400" y="137" on="0"/>
        <pt x="413" y="138" on="0"/>
        <pt x="415" y="138" on="1"/>
        <pt x="415" y="293" on="1"/>
        <pt x="579" y="293" on="1"/>
        <pt x="579" y="17" on="1"/>
        <pt x="518" y="5" on="0"/>
        <pt x="404" y="-10" on="0"/>
      </contour>
    </TTGlyph>
    <TTGlyph name="Gacute" xMin="32" yMin="-12" xMax="628" yMax="987">
      <contour>
        <pt x="288" y="807" on="1"/>
        <pt x="354" y="987" on="1"/>
        <pt x="544" y="987" on="1"/>
        <pt x="422" y="798" on="1"/>
      </contour>
      <contour>
        <pt x="390" y="-12" on="1"/>
        <pt x="208" y="-11" on="0"/>
        <pt x="32" y="176" on="0"/>
        <pt x="32" y="369" on="1"/>
        <pt x="32" y="752" on="0"/>
        <pt x="416" y="752" on="1"/>
        <pt x="464" y="752" on="0"/>
        <pt x="572" y="739" on="0"/>
        <pt x="617" y="728" on="1"/>
        <pt x="617" y="577" on="1"/>
        <pt x="557" y="588" on="0"/>
        <pt x="466" y="597" on="0"/>
        <pt x="432" y="597" on="1"/>
        <pt x="372" y="597" on="0"/>
        <pt x="293" y="576" on="0"/>
        <pt x="247" y="523" on="0"/>
        <pt x="228" y="435" on="0"/>
        <pt x="228" y="369" on="1"/>
        <pt x="228" y="303" on="0"/>
        <pt x="244" y="216" on="0"/>
        <pt x="284" y="165" on="0"/>
        <pt x="352" y="144" on="0"/>
        <pt x="403" y="144" on="1"/>
        <pt x="414" y="144" on="0"/>
        <pt x="441" y="144" on="0"/>
        <pt x="455" y="146" on="1"/>
        <pt x="455" y="376" on="1"/>
        <pt x="628" y="376" on="1"/>
        <pt x="628" y="19" on="1"/>
        <pt x="562" y="5" on="0"/>
        <pt x="438" y="-12" on="0"/>
      </contour>
    </TTGlyph>
    <TTGlyph name="Gacute.sc" xMin="32" yMin="-10" xMax="579" yMax="784">
      <contour>
        <pt x="360" y="-10" on="1"/>
        <pt x="193" y="-10" on="0"/>
        <pt x="32" y="137" on="0"/>
        <pt x="32" y="288" on="1"/>
        <pt x="32" y="587" on="0"/>
        <pt x="383" y="587" on="1"/>
        <pt x="428" y="587" on="0"/>
        <pt x="529" y="577" on="0"/>
        <pt x="569" y="568" on="1"/>
        <pt x="569" y="427" on="1"/>
        <pt x="458" y="442" on="0"/>
        <pt x="398" y="442" on="1"/>
        <pt x="344" y="442" on="0"/>
        <pt x="274" y="429" on="0"/>
        <pt x="233" y="395" on="0"/>
        <pt x="217" y="335" on="0"/>
        <pt x="217" y="288" on="1"/>
        <pt x="217" y="241" on="0"/>
        <pt x="231" y="181" on="0"/>
        <pt x="266" y="148" on="0"/>
        <pt x="325" y="136" on="0"/>
        <pt x="371" y="136" on="1"/>
        <pt x="372" y="136" on="0"/>
        <pt x="385" y="136" on="0"/>
        <pt x="400" y="137" on="0"/>
        <pt x="413" y="138" on="0"/>
        <pt x="415" y="138" on="1"/>
        <pt x="415" y="293" on="1"/>
        <pt x="579" y="293" on="1"/>
        <pt x="579" y="17" on="1"/>
        <pt x="519" y="5" on="0"/>
        <pt x="405" y="-10" on="0"/>
      </contour>
      <contour>
        <pt x="264" y="632" on="1"/>
        <pt x="321" y="784" on="1"/>
        <pt x="501" y="784" on="1"/>
        <pt x="390" y="624" on="1"/>
      </contour>
    </TTGlyph>
    <TTGlyph name="Gbreve" xMin="32" yMin="-12" xMax="628" yMax="985">
      <contour>
        <pt x="371" y="803" on="1"/>
        <pt x="314" y="803" on="0"/>
        <pt x="233" y="830" on="0"/>
        <pt x="182" y="878" on="0"/>
        <pt x="158" y="945" on="0"/>
        <pt x="158" y="985" on="1"/>
        <pt x="282" y="985" on="1"/>
        <pt x="282" y="935" on="0"/>
        <pt x="319" y="890" on="0"/>
        <pt x="371" y="890" on="1"/>
        <pt x="422" y="890" on="0"/>
        <pt x="459" y="935" on="0"/>
        <pt x="459" y="985" on="1"/>
        <pt x="583" y="985" on="1"/>
        <pt x="583" y="944" on="0"/>
        <pt x="559" y="877" on="0"/>
        <pt x="508" y="829" on="0"/>
        <pt x="428" y="803" on="0"/>
      </contour>
      <contour>
        <pt x="390" y="-12" on="1"/>
        <pt x="208" y="-11" on="0"/>
        <pt x="32" y="176" on="0"/>
        <pt x="32" y="369" on="1"/>
        <pt x="32" y="752" on="0"/>
        <pt x="416" y="752" on="1"/>
        <pt x="464" y="752" on="0"/>
        <pt x="572" y="739" on="0"/>
        <pt x="617" y="728" on="1"/>
        <pt x="617" y="577" on="1"/>
        <pt x="557" y="588" on="0"/>
        <pt x="466" y="597" on="0"/>
        <pt x="432" y="597" on="1"/>
        <pt x="372" y="597" on="0"/>
        <pt x="293" y="576" on="0"/>
        <pt x="247" y="523" on="0"/>
        <pt x="228" y="435" on="0"/>
        <pt x="228" y="369" on="1"/>
        <pt x="228" y="303" on="0"/>
        <pt x="244" y="216" on="0"/>
        <pt x="284" y="165" on="0"/>
        <pt x="352" y="144" on="0"/>
        <pt x="403" y="144" on="1"/>
        <pt x="414" y="144" on="0"/>
        <pt x="441" y="144" on="0"/>
        <pt x="455" y="146" on="1"/>
        <pt x="455" y="376" on="1"/>
        <pt x="628" y="376" on="1"/>
        <pt x="628" y="19" on="1"/>
        <pt x="562" y="5" on="0"/>
        <pt x="438" y="-12" on="0"/>
      </contour>
    </TTGlyph>
    <TTGlyph name="Gbreve.sc" xMin="32" yMin="-10" xMax="579" yMax="777">
      <contour>
        <pt x="360" y="-10" on="1"/>
        <pt x="193" y="-10" on="0"/>
        <pt x="32" y="137" on="0"/>
        <pt x="32" y="288" on="1"/>
        <pt x="32" y="587" on="0"/>
        <pt x="383" y="587" on="1"/>
        <pt x="428" y="587" on="0"/>
        <pt x="529" y="577" on="0"/>
        <pt x="569" y="568" on="1"/>
        <pt x="569" y="427" on="1"/>
        <pt x="458" y="442" on="0"/>
        <pt x="398" y="442" on="1"/>
        <pt x="344" y="442" on="0"/>
        <pt x="274" y="429" on="0"/>
        <pt x="233" y="395" on="0"/>
        <pt x="217" y="335" on="0"/>
        <pt x="217" y="288" on="1"/>
        <pt x="217" y="241" on="0"/>
        <pt x="231" y="181" on="0"/>
        <pt x="266" y="148" on="0"/>
        <pt x="325" y="136" on="0"/>
        <pt x="371" y="136" on="1"/>
        <pt x="372" y="136" on="0"/>
        <pt x="385" y="136" on="0"/>
        <pt x="400" y="137" on="0"/>
        <pt x="413" y="138" on="0"/>
        <pt x="415" y="138" on="1"/>
        <pt x="415" y="293" on="1"/>
        <pt x="579" y="293" on="1"/>
        <pt x="579" y="17" on="1"/>
        <pt x="519" y="5" on="0"/>
        <pt x="405" y="-10" on="0"/>
      </contour>
      <contour>
        <pt x="341" y="625" on="1"/>
        <pt x="287" y="625" on="0"/>
        <pt x="212" y="648" on="0"/>
        <pt x="165" y="688" on="0"/>
        <pt x="144" y="744" on="0"/>
        <pt x="144" y="777" on="1"/>
        <pt x="261" y="777" on="1"/>
        <pt x="261" y="739" on="0"/>
        <pt x="294" y="703" on="0"/>
        <pt x="341" y="703" on="1"/>
        <pt x="388" y="703" on="0"/>
        <pt x="421" y="739" on="0"/>
        <pt x="421" y="777" on="1"/>
        <pt x="538" y="777" on="1"/>
        <pt x="538" y="744" on="0"/>
        <pt x="516" y="688" on="0"/>
        <pt x="469" y="647" on="0"/>
        <pt x="394" y="625" on="0"/>
      </contour>
    </TTGlyph>
    <TTGlyph name="Gcircumflex" xMin="32" yMin="-12" xMax="628" yMax="994">
      <contour>
        <pt x="390" y="-12" on="1"/>
        <pt x="208" y="-11" on="0"/>
        <pt x="32" y="176" on="0"/>
        <pt x="32" y="369" on="1"/>
        <pt x="32" y="752" on="0"/>
        <pt x="416" y="752" on="1"/>
        <pt x="464" y="752" on="0"/>
        <pt x="572" y="739" on="0"/>
        <pt x="617" y="728" on="1"/>
        <pt x="617" y="577" on="1"/>
        <pt x="557" y="588" on="0"/>
        <pt x="466" y="597" on="0"/>
        <pt x="432" y="597" on="1"/>
        <pt x="372" y="597" on="0"/>
        <pt x="293" y="576" on="0"/>
        <pt x="247" y="523" on="0"/>
        <pt x="228" y="435" on="0"/>
        <pt x="228" y="369" on="1"/>
        <pt x="228" y="303" on="0"/>
        <pt x="244" y="216" on="0"/>
        <pt x="284" y="165" on="0"/>
        <pt x="352" y="144" on="0"/>
        <pt x="403" y="144" on="1"/>
        <pt x="414" y="144" on="0"/>
        <pt x="441" y="144" on="0"/>
        <pt x="455" y="146" on="1"/>
        <pt x="455" y="376" on="1"/>
        <pt x="628" y="376" on="1"/>
        <pt x="628" y="19" on="1"/>
        <pt x="562" y="5" on="0"/>
        <pt x="438" y="-12" on="0"/>
      </contour>
      <contour>
        <pt x="169" y="918" on="1"/>
        <pt x="362" y="994" on="1"/>
        <pt x="557" y="918" on="1"/>
        <pt x="557" y="795" on="1"/>
        <pt x="363" y="871" on="1"/>
        <pt x="169" y="795" on="1"/>
      </contour>
    </TTGlyph>
    <TTGlyph name="Gcircumflex.sc" xMin="32" yMin="-10" xMax="579" yMax="790">
      <contour>
        <pt x="360" y="-10" on="1"/>
        <pt x="193" y="-10" on="0"/>
        <pt x="32" y="137" on="0"/>
        <pt x="32" y="288" on="1"/>
        <pt x="32" y="587" on="0"/>
        <pt x="383" y="587" on="1"/>
        <pt x="428" y="587" on="0"/>
        <pt x="529" y="577" on="0"/>
        <pt x="569" y="568" on="1"/>
        <pt x="569" y="427" on="1"/>
        <pt x="458" y="442" on="0"/>
        <pt x="398" y="442" on="1"/>
        <pt x="344" y="442" on="0"/>
        <pt x="274" y="429" on="0"/>
        <pt x="233" y="395" on="0"/>
        <pt x="217" y="335" on="0"/>
        <pt x="217" y="288" on="1"/>
        <pt x="217" y="241" on="0"/>
        <pt x="231" y="181" on="0"/>
        <pt x="266" y="148" on="0"/>
        <pt x="325" y="136" on="0"/>
        <pt x="371" y="136" on="1"/>
        <pt x="372" y="136" on="0"/>
        <pt x="385" y="136" on="0"/>
        <pt x="400" y="137" on="0"/>
        <pt x="413" y="138" on="0"/>
        <pt x="415" y="138" on="1"/>
        <pt x="415" y="293" on="1"/>
        <pt x="579" y="293" on="1"/>
        <pt x="579" y="17" on="1"/>
        <pt x="519" y="5" on="0"/>
        <pt x="405" y="-10" on="0"/>
      </contour>
      <contour>
        <pt x="154" y="729" on="1"/>
        <pt x="332" y="790" on="1"/>
        <pt x="513" y="729" on="1"/>
        <pt x="513" y="616" on="1"/>
        <pt x="333" y="677" on="1"/>
        <pt x="154" y="616" on="1"/>
      </contour>
    </TTGlyph>
    <TTGlyph name="Gcommaaccent" xMin="32" yMin="-220" xMax="628" yMax="752">
      <contour>
        <pt x="277" y="-70" on="1"/>
        <pt x="468" y="-70" on="1"/>
        <pt x="375" y="-220" on="1"/>
        <pt x="236" y="-220" on="1"/>
      </contour>
      <contour>
        <pt x="390" y="-12" on="1"/>
        <pt x="208" y="-11" on="0"/>
        <pt x="32" y="176" on="0"/>
        <pt x="32" y="369" on="1"/>
        <pt x="32" y="752" on="0"/>
        <pt x="416" y="752" on="1"/>
        <pt x="464" y="752" on="0"/>
        <pt x="572" y="739" on="0"/>
        <pt x="617" y="728" on="1"/>
        <pt x="617" y="577" on="1"/>
        <pt x="557" y="588" on="0"/>
        <pt x="466" y="597" on="0"/>
        <pt x="432" y="597" on="1"/>
        <pt x="372" y="597" on="0"/>
        <pt x="293" y="576" on="0"/>
        <pt x="247" y="523" on="0"/>
        <pt x="228" y="435" on="0"/>
        <pt x="228" y="369" on="1"/>
        <pt x="228" y="303" on="0"/>
        <pt x="244" y="216" on="0"/>
        <pt x="284" y="165" on="0"/>
        <pt x="352" y="144" on="0"/>
        <pt x="403" y="144" on="1"/>
        <pt x="414" y="144" on="0"/>
        <pt x="441" y="144" on="0"/>
        <pt x="455" y="146" on="1"/>
        <pt x="455" y="376" on="1"/>
        <pt x="628" y="376" on="1"/>
        <pt x="628" y="19" on="1"/>
        <pt x="562" y="5" on="0"/>
        <pt x="438" y="-12" on="0"/>
      </contour>
    </TTGlyph>
    <TTGlyph name="Gcommaaccent.sc" xMin="32" yMin="-172" xMax="579" yMax="587">
      <contour>
        <pt x="360" y="-10" on="1"/>
        <pt x="193" y="-10" on="0"/>
        <pt x="32" y="137" on="0"/>
        <pt x="32" y="288" on="1"/>
        <pt x="32" y="587" on="0"/>
        <pt x="383" y="587" on="1"/>
        <pt x="428" y="587" on="0"/>
        <pt x="529" y="577" on="0"/>
        <pt x="569" y="568" on="1"/>
        <pt x="569" y="427" on="1"/>
        <pt x="458" y="442" on="0"/>
        <pt x="398" y="442" on="1"/>
        <pt x="344" y="442" on="0"/>
        <pt x="274" y="429" on="0"/>
        <pt x="233" y="395" on="0"/>
        <pt x="217" y="335" on="0"/>
        <pt x="217" y="288" on="1"/>
        <pt x="217" y="241" on="0"/>
        <pt x="231" y="181" on="0"/>
        <pt x="266" y="148" on="0"/>
        <pt x="325" y="136" on="0"/>
        <pt x="371" y="136" on="1"/>
        <pt x="372" y="136" on="0"/>
        <pt x="385" y="136" on="0"/>
        <pt x="400" y="137" on="0"/>
        <pt x="413" y="138" on="0"/>
        <pt x="415" y="138" on="1"/>
        <pt x="415" y="293" on="1"/>
        <pt x="579" y="293" on="1"/>
        <pt x="579" y="17" on="1"/>
        <pt x="519" y="5" on="0"/>
        <pt x="405" y="-10" on="0"/>
      </contour>
      <contour>
        <pt x="251" y="-55" on="1"/>
        <pt x="432" y="-55" on="1"/>
        <pt x="346" y="-172" on="1"/>
        <pt x="215" y="-172" on="1"/>
      </contour>
    </TTGlyph>
    <TTGlyph name="Gdotaccent" xMin="32" yMin="-12" xMax="628" yMax="995">
      <contour>
        <pt x="372" y="798" on="1"/>
        <pt x="318" y="798" on="0"/>
        <pt x="271" y="845" on="0"/>
        <pt x="271" y="897" on="1"/>
        <pt x="271" y="948" on="0"/>
        <pt x="318" y="995" on="0"/>
        <pt x="372" y="995" on="1"/>
        <pt x="426" y="995" on="0"/>
        <pt x="473" y="948" on="0"/>
        <pt x="473" y="897" on="1"/>
        <pt x="473" y="846" on="0"/>
        <pt x="426" y="798" on="0"/>
      </contour>
      <contour>
        <pt x="390" y="-12" on="1"/>
        <pt x="208" y="-11" on="0"/>
        <pt x="32" y="176" on="0"/>
        <pt x="32" y="369" on="1"/>
        <pt x="32" y="752" on="0"/>
        <pt x="416" y="752" on="1"/>
        <pt x="464" y="752" on="0"/>
        <pt x="572" y="739" on="0"/>
        <pt x="617" y="728" on="1"/>
        <pt x="617" y="577" on="1"/>
        <pt x="557" y="588" on="0"/>
        <pt x="466" y="597" on="0"/>
        <pt x="432" y="597" on="1"/>
        <pt x="372" y="597" on="0"/>
        <pt x="293" y="576" on="0"/>
        <pt x="247" y="523" on="0"/>
        <pt x="228" y="435" on="0"/>
        <pt x="228" y="369" on="1"/>
        <pt x="228" y="303" on="0"/>
        <pt x="244" y="216" on="0"/>
        <pt x="284" y="165" on="0"/>
        <pt x="352" y="144" on="0"/>
        <pt x="403" y="144" on="1"/>
        <pt x="414" y="144" on="0"/>
        <pt x="441" y="144" on="0"/>
        <pt x="455" y="146" on="1"/>
        <pt x="455" y="376" on="1"/>
        <pt x="628" y="376" on="1"/>
        <pt x="628" y="19" on="1"/>
        <pt x="562" y="5" on="0"/>
        <pt x="438" y="-12" on="0"/>
      </contour>
    </TTGlyph>
    <TTGlyph name="Gdotaccent.sc" xMin="32" yMin="-10" xMax="579" yMax="800">
      <contour>
        <pt x="360" y="-10" on="1"/>
        <pt x="193" y="-10" on="0"/>
        <pt x="32" y="137" on="0"/>
        <pt x="32" y="288" on="1"/>
        <pt x="32" y="587" on="0"/>
        <pt x="383" y="587" on="1"/>
        <pt x="428" y="587" on="0"/>
        <pt x="529" y="577" on="0"/>
        <pt x="569" y="568" on="1"/>
        <pt x="569" y="427" on="1"/>
        <pt x="458" y="442" on="0"/>
        <pt x="398" y="442" on="1"/>
        <pt x="344" y="442" on="0"/>
        <pt x="274" y="429" on="0"/>
        <pt x="233" y="395" on="0"/>
        <pt x="217" y="335" on="0"/>
        <pt x="217" y="288" on="1"/>
        <pt x="217" y="241" on="0"/>
        <pt x="231" y="181" on="0"/>
        <pt x="266" y="148" on="0"/>
        <pt x="325" y="136" on="0"/>
        <pt x="371" y="136" on="1"/>
        <pt x="372" y="136" on="0"/>
        <pt x="385" y="136" on="0"/>
        <pt x="400" y="137" on="0"/>
        <pt x="413" y="138" on="0"/>
        <pt x="415" y="138" on="1"/>
        <pt x="415" y="293" on="1"/>
        <pt x="579" y="293" on="1"/>
        <pt x="579" y="17" on="1"/>
        <pt x="519" y="5" on="0"/>
        <pt x="405" y="-10" on="0"/>
      </contour>
      <contour>
        <pt x="343" y="620" on="1"/>
        <pt x="292" y="620" on="0"/>
        <pt x="249" y="662" on="0"/>
        <pt x="249" y="710" on="1"/>
        <pt x="249" y="758" on="0"/>
        <pt x="292" y="800" on="0"/>
        <pt x="343" y="800" on="1"/>
        <pt x="394" y="800" on="0"/>
        <pt x="438" y="757" on="0"/>
        <pt x="438" y="710" on="1"/>
        <pt x="438" y="663" on="0"/>
        <pt x="394" y="620" on="0"/>
      </contour>
    </TTGlyph>
    <TTGlyph name="H" xMin="62" yMin="0" xMax="717" yMax="740">
      <contour>
        <pt x="62" y="740" on="1"/>
        <pt x="253" y="740" on="1"/>
        <pt x="253" y="454" on="1"/>
        <pt x="527" y="454" on="1"/>
        <pt x="527" y="740" on="1"/>
        <pt x="717" y="740" on="1"/>
        <pt x="717" y="0" on="1"/>
        <pt x="527" y="0" on="1"/>
        <pt x="527" y="304" on="1"/>
        <pt x="253" y="304" on="1"/>
        <pt x="253" y="0" on="1"/>
        <pt x="62" y="0" on="1"/>
      </contour>
    </TTGlyph>
    <TTGlyph name="H.sc" xMin="60" yMin="0" xMax="663" yMax="577">
      <contour>
        <pt x="60" y="577" on="1"/>
        <pt x="240" y="577" on="1"/>
        <pt x="240" y="366" on="1"/>
        <pt x="483" y="366" on="1"/>
        <pt x="483" y="577" on="1"/>
        <pt x="663" y="577" on="1"/>
        <pt x="663" y="0" on="1"/>
        <pt x="483" y="0" on="1"/>
        <pt x="483" y="226" on="1"/>
        <pt x="240" y="226" on="1"/>
        <pt x="240" y="0" on="1"/>
        <pt x="60" y="0" on="1"/>
      </contour>
    </TTGlyph>
    <TTGlyph name="Hbar" xMin="3" yMin="0" xMax="802" yMax="740">
      <contour>
        <pt x="3" y="624" on="1"/>
        <pt x="70" y="624" on="1"/>
        <pt x="70" y="740" on="1"/>
        <pt x="261" y="740" on="1"/>
        <pt x="261" y="624" on="1"/>
        <pt x="535" y="624" on="1"/>
        <pt x="535" y="740" on="1"/>
        <pt x="725" y="740" on="1"/>
        <pt x="725" y="624" on="1"/>
        <pt x="802" y="624" on="1"/>
        <pt x="802" y="537" on="1"/>
        <pt x="725" y="537" on="1"/>
        <pt x="725" y="0" on="1"/>
        <pt x="535" y="0" on="1"/>
        <pt x="535" y="304" on="1"/>
        <pt x="261" y="304" on="1"/>
        <pt x="261" y="0" on="1"/>
        <pt x="70" y="0" on="1"/>
        <pt x="70" y="537" on="1"/>
        <pt x="3" y="537" on="1"/>
      </contour>
      <contour>
        <pt x="535" y="454" on="1"/>
        <pt x="535" y="537" on="1"/>
        <pt x="261" y="537" on="1"/>
        <pt x="261" y="454" on="1"/>
      </contour>
    </TTGlyph>
    <TTGlyph name="Hbar.sc" xMin="9" yMin="0" xMax="737" yMax="577">
      <contour>
        <pt x="9" y="496" on="1"/>
        <pt x="68" y="496" on="1"/>
        <pt x="68" y="577" on="1"/>
        <pt x="248" y="577" on="1"/>
        <pt x="248" y="496" on="1"/>
        <pt x="491" y="496" on="1"/>
        <pt x="491" y="577" on="1"/>
        <pt x="671" y="577" on="1"/>
        <pt x="671" y="496" on="1"/>
        <pt x="737" y="496" on="1"/>
        <pt x="737" y="416" on="1"/>
        <pt x="671" y="416" on="1"/>
        <pt x="671" y="0" on="1"/>
        <pt x="491" y="0" on="1"/>
        <pt x="491" y="217" on="1"/>
        <pt x="248" y="217" on="1"/>
        <pt x="248" y="0" on="1"/>
        <pt x="68" y="0" on="1"/>
        <pt x="68" y="416" on="1"/>
        <pt x="9" y="416" on="1"/>
      </contour>
      <contour>
        <pt x="491" y="357" on="1"/>
        <pt x="491" y="416" on="1"/>
        <pt x="248" y="416" on="1"/>
        <pt x="248" y="357" on="1"/>
      </contour>
    </TTGlyph>
    <TTGlyph name="Hcircumflex" xMin="62" yMin="0" xMax="717" yMax="994">
      <contour>
        <pt x="62" y="740" on="1"/>
        <pt x="253" y="740" on="1"/>
        <pt x="253" y="454" on="1"/>
        <pt x="527" y="454" on="1"/>
        <pt x="527" y="740" on="1"/>
        <pt x="717" y="740" on="1"/>
        <pt x="717" y="0" on="1"/>
        <pt x="527" y="0" on="1"/>
        <pt x="527" y="304" on="1"/>
        <pt x="253" y="304" on="1"/>
        <pt x="253" y="0" on="1"/>
        <pt x="62" y="0" on="1"/>
      </contour>
      <contour>
        <pt x="195" y="918" on="1"/>
        <pt x="388" y="994" on="1"/>
        <pt x="583" y="918" on="1"/>
        <pt x="583" y="795" on="1"/>
        <pt x="389" y="871" on="1"/>
        <pt x="195" y="795" on="1"/>
      </contour>
    </TTGlyph>
    <TTGlyph name="Hcircumflex.sc" xMin="60" yMin="0" xMax="663" yMax="790">
      <contour>
        <pt x="60" y="577" on="1"/>
        <pt x="240" y="577" on="1"/>
        <pt x="240" y="366" on="1"/>
        <pt x="483" y="366" on="1"/>
        <pt x="483" y="577" on="1"/>
        <pt x="663" y="577" on="1"/>
        <pt x="663" y="0" on="1"/>
        <pt x="483" y="0" on="1"/>
        <pt x="483" y="226" on="1"/>
        <pt x="240" y="226" on="1"/>
        <pt x="240" y="0" on="1"/>
        <pt x="60" y="0" on="1"/>
      </contour>
      <contour>
        <pt x="182" y="729" on="1"/>
        <pt x="360" y="790" on="1"/>
        <pt x="541" y="729" on="1"/>
        <pt x="541" y="616" on="1"/>
        <pt x="362" y="677" on="1"/>
        <pt x="182" y="616" on="1"/>
      </contour>
    </TTGlyph>
    <TTGlyph name="Hdotbelow" xMin="62" yMin="-212" xMax="717" yMax="740">
      <contour>
        <pt x="62" y="740" on="1"/>
        <pt x="253" y="740" on="1"/>
        <pt x="253" y="454" on="1"/>
        <pt x="527" y="454" on="1"/>
        <pt x="527" y="740" on="1"/>
        <pt x="717" y="740" on="1"/>
        <pt x="717" y="0" on="1"/>
        <pt x="527" y="0" on="1"/>
        <pt x="527" y="304" on="1"/>
        <pt x="253" y="304" on="1"/>
        <pt x="253" y="0" on="1"/>
        <pt x="62" y="0" on="1"/>
      </contour>
      <contour>
        <pt x="390" y="-212" on="1"/>
        <pt x="348" y="-212" on="0"/>
        <pt x="312" y="-177" on="0"/>
        <pt x="312" y="-137" on="1"/>
        <pt x="312" y="-96" on="0"/>
        <pt x="348" y="-61" on="0"/>
        <pt x="390" y="-61" on="1"/>
        <pt x="433" y="-61" on="0"/>
        <pt x="469" y="-97" on="0"/>
        <pt x="469" y="-137" on="1"/>
        <pt x="469" y="-176" on="0"/>
        <pt x="433" y="-212" on="0"/>
      </contour>
    </TTGlyph>
    <TTGlyph name="Hdotbelow.sc" xMin="60" yMin="-175" xMax="663" yMax="577">
      <contour>
        <pt x="60" y="577" on="1"/>
        <pt x="240" y="577" on="1"/>
        <pt x="240" y="366" on="1"/>
        <pt x="483" y="366" on="1"/>
        <pt x="483" y="577" on="1"/>
        <pt x="663" y="577" on="1"/>
        <pt x="663" y="0" on="1"/>
        <pt x="483" y="0" on="1"/>
        <pt x="483" y="226" on="1"/>
        <pt x="240" y="226" on="1"/>
        <pt x="240" y="0" on="1"/>
        <pt x="60" y="0" on="1"/>
      </contour>
      <contour>
        <pt x="360" y="-175" on="1"/>
        <pt x="321" y="-175" on="0"/>
        <pt x="288" y="-143" on="0"/>
        <pt x="288" y="-108" on="1"/>
        <pt x="288" y="-73" on="0"/>
        <pt x="321" y="-40" on="0"/>
        <pt x="360" y="-40" on="1"/>
        <pt x="401" y="-40" on="0"/>
        <pt x="434" y="-73" on="0"/>
        <pt x="434" y="-108" on="1"/>
        <pt x="434" y="-143" on="0"/>
        <pt x="401" y="-175" on="0"/>
      </contour>
    </TTGlyph>
    <TTGlyph name="I" xMin="62" yMin="0" xMax="253" yMax="740">
      <contour>
        <pt x="62" y="740" on="1"/>
        <pt x="253" y="740" on="1"/>
        <pt x="253" y="0" on="1"/>
        <pt x="62" y="0" on="1"/>
      </contour>
    </TTGlyph>
    <TTGlyph name="I.sc" xMin="60" yMin="0" xMax="240" yMax="577">
      <contour>
        <pt x="60" y="577" on="1"/>
        <pt x="240" y="577" on="1"/>
        <pt x="240" y="0" on="1"/>
        <pt x="60" y="0" on="1"/>
      </contour>
    </TTGlyph>
    <TTGlyph name="IJ" xMin="62" yMin="-211" xMax="570" yMax="740">
      <contour>
        <pt x="62" y="740" on="1"/>
        <pt x="253" y="740" on="1"/>
        <pt x="253" y="0" on="1"/>
        <pt x="62" y="0" on="1"/>
      </contour>
      <contour>
        <pt x="304" y="-158" on="1"/>
        <pt x="326" y="-108" on="0"/>
        <pt x="355" y="-24" on="0"/>
        <pt x="372" y="58" on="0"/>
        <pt x="379" y="145" on="0"/>
        <pt x="379" y="197" on="1"/>
        <pt x="379" y="740" on="1"/>
        <pt x="570" y="740" on="1"/>
        <pt x="570" y="182" on="1"/>
        <pt x="570" y="130" on="0"/>
        <pt x="555" y="37" on="0"/>
        <pt x="521" y="-56" on="0"/>
        <pt x="465" y="-154" on="0"/>
        <pt x="424" y="-211" on="1"/>
      </contour>
    </TTGlyph>
    <TTGlyph name="Iacute" xMin="62" yMin="0" xMax="341" yMax="987">
      <contour>
        <pt x="62" y="740" on="1"/>
        <pt x="253" y="740" on="1"/>
        <pt x="253" y="0" on="1"/>
        <pt x="62" y="0" on="1"/>
      </contour>
      <contour>
        <pt x="85" y="807" on="1"/>
        <pt x="151" y="987" on="1"/>
        <pt x="341" y="987" on="1"/>
        <pt x="219" y="798" on="1"/>
      </contour>
    </TTGlyph>
    <TTGlyph name="Iacute.sc" xMin="60" yMin="0" xMax="320" yMax="784">
      <contour>
        <pt x="60" y="577" on="1"/>
        <pt x="240" y="577" on="1"/>
        <pt x="240" y="0" on="1"/>
        <pt x="60" y="0" on="1"/>
      </contour>
      <contour>
        <pt x="82" y="632" on="1"/>
        <pt x="140" y="784" on="1"/>
        <pt x="320" y="784" on="1"/>
        <pt x="208" y="624" on="1"/>
      </contour>
    </TTGlyph>
    <TTGlyph name="Ibreve" xMin="-55" yMin="0" xMax="370" yMax="985">
      <contour>
        <pt x="62" y="740" on="1"/>
        <pt x="253" y="740" on="1"/>
        <pt x="253" y="0" on="1"/>
        <pt x="62" y="0" on="1"/>
      </contour>
      <contour>
        <pt x="158" y="803" on="1"/>
        <pt x="101" y="803" on="0"/>
        <pt x="20" y="830" on="0"/>
        <pt x="-31" y="878" on="0"/>
        <pt x="-55" y="945" on="0"/>
        <pt x="-55" y="985" on="1"/>
        <pt x="69" y="985" on="1"/>
        <pt x="69" y="935" on="0"/>
        <pt x="106" y="890" on="0"/>
        <pt x="158" y="890" on="1"/>
        <pt x="209" y="890" on="0"/>
        <pt x="246" y="935" on="0"/>
        <pt x="246" y="985" on="1"/>
        <pt x="370" y="985" on="1"/>
        <pt x="370" y="944" on="0"/>
        <pt x="346" y="877" on="0"/>
        <pt x="295" y="829" on="0"/>
        <pt x="215" y="803" on="0"/>
      </contour>
    </TTGlyph>
    <TTGlyph name="Ibreve.sc" xMin="-47" yMin="0" xMax="347" yMax="777">
      <contour>
        <pt x="60" y="577" on="1"/>
        <pt x="240" y="577" on="1"/>
        <pt x="240" y="0" on="1"/>
        <pt x="60" y="0" on="1"/>
      </contour>
      <contour>
        <pt x="150" y="625" on="1"/>
        <pt x="96" y="625" on="0"/>
        <pt x="21" y="648" on="0"/>
        <pt x="-26" y="688" on="0"/>
        <pt x="-47" y="744" on="0"/>
        <pt x="-47" y="777" on="1"/>
        <pt x="70" y="777" on="1"/>
        <pt x="70" y="739" on="0"/>
        <pt x="103" y="703" on="0"/>
        <pt x="150" y="703" on="1"/>
        <pt x="197" y="703" on="0"/>
        <pt x="230" y="739" on="0"/>
        <pt x="230" y="777" on="1"/>
        <pt x="347" y="777" on="1"/>
        <pt x="347" y="744" on="0"/>
        <pt x="325" y="688" on="0"/>
        <pt x="278" y="647" on="0"/>
        <pt x="203" y="625" on="0"/>
      </contour>
    </TTGlyph>
    <TTGlyph name="Icircumflex" xMin="-35" yMin="0" xMax="353" yMax="994">
      <contour>
        <pt x="62" y="740" on="1"/>
        <pt x="253" y="740" on="1"/>
        <pt x="253" y="0" on="1"/>
        <pt x="62" y="0" on="1"/>
      </contour>
      <contour>
        <pt x="-35" y="918" on="1"/>
        <pt x="158" y="994" on="1"/>
        <pt x="353" y="918" on="1"/>
        <pt x="353" y="795" on="1"/>
        <pt x="159" y="871" on="1"/>
        <pt x="-35" y="795" on="1"/>
      </contour>
    </TTGlyph>
    <TTGlyph name="Icircumflex.sc" xMin="-27" yMin="0" xMax="332" yMax="790">
      <contour>
        <pt x="60" y="577" on="1"/>
        <pt x="240" y="577" on="1"/>
        <pt x="240" y="0" on="1"/>
        <pt x="60" y="0" on="1"/>
      </contour>
      <contour>
        <pt x="-27" y="729" on="1"/>
        <pt x="151" y="790" on="1"/>
        <pt x="332" y="729" on="1"/>
        <pt x="332" y="616" on="1"/>
        <pt x="152" y="677" on="1"/>
        <pt x="-27" y="616" on="1"/>
      </contour>
    </TTGlyph>
    <TTGlyph name="Idblgrave" xMin="-115" yMin="0" xMax="334" yMax="987">
      <contour>
        <pt x="62" y="740" on="1"/>
        <pt x="253" y="740" on="1"/>
        <pt x="253" y="0" on="1"/>
        <pt x="62" y="0" on="1"/>
      </contour>
      <contour>
        <pt x="7" y="797" on="1"/>
        <pt x="-115" y="987" on="1"/>
        <pt x="57" y="987" on="1"/>
        <pt x="122" y="808" on="1"/>
      </contour>
      <contour>
        <pt x="219" y="797" on="1"/>
        <pt x="96" y="987" on="1"/>
        <pt x="269" y="987" on="1"/>
        <pt x="334" y="808" on="1"/>
      </contour>
    </TTGlyph>
    <TTGlyph name="Idblgrave.sc" xMin="-102" yMin="0" xMax="316" yMax="784">
      <contour>
        <pt x="60" y="577" on="1"/>
        <pt x="240" y="577" on="1"/>
        <pt x="240" y="0" on="1"/>
        <pt x="60" y="0" on="1"/>
      </contour>
      <contour>
        <pt x="9" y="624" on="1"/>
        <pt x="-102" y="784" on="1"/>
        <pt x="63" y="784" on="1"/>
        <pt x="119" y="632" on="1"/>
      </contour>
      <contour>
        <pt x="206" y="624" on="1"/>
        <pt x="94" y="784" on="1"/>
        <pt x="259" y="784" on="1"/>
        <pt x="316" y="632" on="1"/>
      </contour>
    </TTGlyph>
    <TTGlyph name="Idieresis" xMin="-82" yMin="0" xMax="402" yMax="996">
      <contour>
        <pt x="62" y="740" on="1"/>
        <pt x="253" y="740" on="1"/>
        <pt x="253" y="0" on="1"/>
        <pt x="62" y="0" on="1"/>
      </contour>
      <contour>
        <pt x="19" y="800" on="1"/>
        <pt x="-35" y="800" on="0"/>
        <pt x="-82" y="846" on="0"/>
        <pt x="-82" y="898" on="1"/>
        <pt x="-82" y="950" on="0"/>
        <pt x="-35" y="996" on="0"/>
        <pt x="19" y="996" on="1"/>
        <pt x="73" y="996" on="0"/>
        <pt x="120" y="949" on="0"/>
        <pt x="120" y="898" on="1"/>
        <pt x="120" y="847" on="0"/>
        <pt x="73" y="800" on="0"/>
      </contour>
      <contour>
        <pt x="301" y="800" on="1"/>
        <pt x="247" y="800" on="0"/>
        <pt x="200" y="846" on="0"/>
        <pt x="200" y="898" on="1"/>
        <pt x="200" y="950" on="0"/>
        <pt x="247" y="996" on="0"/>
        <pt x="301" y="996" on="1"/>
        <pt x="355" y="996" on="0"/>
        <pt x="402" y="949" on="0"/>
        <pt x="402" y="898" on="1"/>
        <pt x="402" y="847" on="0"/>
        <pt x="355" y="800" on="0"/>
      </contour>
    </TTGlyph>
    <TTGlyph name="Idieresis.sc" xMin="-72" yMin="0" xMax="377" yMax="800">
      <contour>
        <pt x="60" y="577" on="1"/>
        <pt x="240" y="577" on="1"/>
        <pt x="240" y="0" on="1"/>
        <pt x="60" y="0" on="1"/>
      </contour>
      <contour>
        <pt x="23" y="619" on="1"/>
        <pt x="-28" y="619" on="0"/>
        <pt x="-72" y="662" on="0"/>
        <pt x="-72" y="710" on="1"/>
        <pt x="-72" y="757" on="0"/>
        <pt x="-28" y="800" on="0"/>
        <pt x="23" y="800" on="1"/>
        <pt x="74" y="800" on="0"/>
        <pt x="117" y="756" on="0"/>
        <pt x="117" y="710" on="1"/>
        <pt x="117" y="662" on="0"/>
        <pt x="74" y="619" on="0"/>
      </contour>
      <contour>
        <pt x="281" y="619" on="1"/>
        <pt x="230" y="619" on="0"/>
        <pt x="187" y="662" on="0"/>
        <pt x="187" y="710" on="1"/>
        <pt x="187" y="757" on="0"/>
        <pt x="230" y="800" on="0"/>
        <pt x="281" y="800" on="1"/>
        <pt x="332" y="800" on="0"/>
        <pt x="377" y="756" on="0"/>
        <pt x="377" y="710" on="1"/>
        <pt x="377" y="662" on="0"/>
        <pt x="332" y="619" on="0"/>
      </contour>
    </TTGlyph>
    <TTGlyph name="Idotaccent" xMin="58" yMin="0" xMax="260" yMax="995">
      <contour>
        <pt x="62" y="740" on="1"/>
        <pt x="253" y="740" on="1"/>
        <pt x="253" y="0" on="1"/>
        <pt x="62" y="0" on="1"/>
      </contour>
      <contour>
        <pt x="159" y="798" on="1"/>
        <pt x="105" y="798" on="0"/>
        <pt x="58" y="845" on="0"/>
        <pt x="58" y="897" on="1"/>
        <pt x="58" y="948" on="0"/>
        <pt x="105" y="995" on="0"/>
        <pt x="159" y="995" on="1"/>
        <pt x="213" y="995" on="0"/>
        <pt x="260" y="948" on="0"/>
        <pt x="260" y="897" on="1"/>
        <pt x="260" y="846" on="0"/>
        <pt x="213" y="798" on="0"/>
      </contour>
    </TTGlyph>
    <TTGlyph name="Idotaccent.sc" xMin="56" yMin="0" xMax="246" yMax="800">
      <contour>
        <pt x="60" y="577" on="1"/>
        <pt x="240" y="577" on="1"/>
        <pt x="240" y="0" on="1"/>
        <pt x="60" y="0" on="1"/>
      </contour>
      <contour>
        <pt x="151" y="620" on="1"/>
        <pt x="100" y="620" on="0"/>
        <pt x="56" y="662" on="0"/>
        <pt x="56" y="710" on="1"/>
        <pt x="56" y="758" on="0"/>
        <pt x="100" y="800" on="0"/>
        <pt x="151" y="800" on="1"/>
        <pt x="202" y="800" on="0"/>
        <pt x="246" y="757" on="0"/>
        <pt x="246" y="710" on="1"/>
        <pt x="246" y="663" on="0"/>
        <pt x="202" y="620" on="0"/>
      </contour>
    </TTGlyph>
    <TTGlyph name="Idotbelow" xMin="62" yMin="-212" xMax="253" yMax="740">
      <contour>
        <pt x="62" y="740" on="1"/>
        <pt x="253" y="740" on="1"/>
        <pt x="253" y="0" on="1"/>
        <pt x="62" y="0" on="1"/>
      </contour>
      <contour>
        <pt x="158" y="-212" on="1"/>
        <pt x="116" y="-212" on="0"/>
        <pt x="80" y="-177" on="0"/>
        <pt x="80" y="-137" on="1"/>
        <pt x="80" y="-96" on="0"/>
        <pt x="116" y="-61" on="0"/>
        <pt x="158" y="-61" on="1"/>
        <pt x="201" y="-61" on="0"/>
        <pt x="237" y="-97" on="0"/>
        <pt x="237" y="-137" on="1"/>
        <pt x="237" y="-176" on="0"/>
        <pt x="201" y="-212" on="0"/>
      </contour>
    </TTGlyph>
    <TTGlyph name="Idotbelow.sc" xMin="60" yMin="-175" xMax="240" yMax="577">
      <contour>
        <pt x="60" y="577" on="1"/>
        <pt x="240" y="577" on="1"/>
        <pt x="240" y="0" on="1"/>
        <pt x="60" y="0" on="1"/>
      </contour>
      <contour>
        <pt x="151" y="-175" on="1"/>
        <pt x="111" y="-175" on="0"/>
        <pt x="78" y="-143" on="0"/>
        <pt x="78" y="-108" on="1"/>
        <pt x="78" y="-73" on="0"/>
        <pt x="111" y="-40" on="0"/>
        <pt x="151" y="-40" on="1"/>
        <pt x="191" y="-40" on="0"/>
        <pt x="224" y="-73" on="0"/>
        <pt x="224" y="-108" on="1"/>
        <pt x="224" y="-143" on="0"/>
        <pt x="191" y="-175" on="0"/>
      </contour>
    </TTGlyph>
    <TTGlyph name="Igrave" xMin="-23" yMin="0" xMax="253" yMax="987">
      <contour>
        <pt x="62" y="740" on="1"/>
        <pt x="253" y="740" on="1"/>
        <pt x="253" y="0" on="1"/>
        <pt x="62" y="0" on="1"/>
      </contour>
      <contour>
        <pt x="99" y="798" on="1"/>
        <pt x="-23" y="987" on="1"/>
        <pt x="168" y="987" on="1"/>
        <pt x="233" y="809" on="1"/>
      </contour>
    </TTGlyph>
    <TTGlyph name="Igrave.sc" xMin="-16" yMin="0" xMax="240" yMax="784">
      <contour>
        <pt x="60" y="577" on="1"/>
        <pt x="240" y="577" on="1"/>
        <pt x="240" y="0" on="1"/>
        <pt x="60" y="0" on="1"/>
      </contour>
      <contour>
        <pt x="96" y="624" on="1"/>
        <pt x="-16" y="784" on="1"/>
        <pt x="165" y="784" on="1"/>
        <pt x="222" y="632" on="1"/>
      </contour>
    </TTGlyph>
    <TTGlyph name="Iinvertedbreve" xMin="-53" yMin="0" xMax="373" yMax="994">
      <contour>
        <pt x="62" y="740" on="1"/>
        <pt x="253" y="740" on="1"/>
        <pt x="253" y="0" on="1"/>
        <pt x="62" y="0" on="1"/>
      </contour>
      <contour>
        <pt x="249" y="812" on="1"/>
        <pt x="249" y="861" on="0"/>
        <pt x="211" y="907" on="0"/>
        <pt x="160" y="907" on="1"/>
        <pt x="109" y="907" on="0"/>
        <pt x="71" y="861" on="0"/>
        <pt x="71" y="812" on="1"/>
        <pt x="-53" y="812" on="1"/>
        <pt x="-53" y="852" on="0"/>
        <pt x="-29" y="919" on="0"/>
        <pt x="22" y="967" on="0"/>
        <pt x="103" y="994" on="0"/>
        <pt x="160" y="994" on="1"/>
        <pt x="273" y="994" on="0"/>
        <pt x="373" y="894" on="0"/>
        <pt x="373" y="812" on="1"/>
      </contour>
    </TTGlyph>
    <TTGlyph name="Iinvertedbreve.sc" xMin="-44" yMin="0" xMax="349" yMax="785">
      <contour>
        <pt x="60" y="577" on="1"/>
        <pt x="240" y="577" on="1"/>
        <pt x="240" y="0" on="1"/>
        <pt x="60" y="0" on="1"/>
      </contour>
      <contour>
        <pt x="233" y="633" on="1"/>
        <pt x="233" y="670" on="0"/>
        <pt x="200" y="706" on="0"/>
        <pt x="153" y="706" on="1"/>
        <pt x="105" y="706" on="0"/>
        <pt x="72" y="671" on="0"/>
        <pt x="72" y="633" on="1"/>
        <pt x="-44" y="633" on="1"/>
        <pt x="-44" y="666" on="0"/>
        <pt x="-23" y="721" on="0"/>
        <pt x="24" y="762" on="0"/>
        <pt x="99" y="785" on="0"/>
        <pt x="153" y="785" on="1"/>
        <pt x="206" y="785" on="0"/>
        <pt x="280" y="763" on="0"/>
        <pt x="327" y="722" on="0"/>
        <pt x="349" y="666" on="0"/>
        <pt x="349" y="633" on="1"/>
      </contour>
    </TTGlyph>
    <TTGlyph name="Imacron" xMin="-32" yMin="0" xMax="352" yMax="962">
      <contour>
        <pt x="62" y="740" on="1"/>
        <pt x="253" y="740" on="1"/>
        <pt x="253" y="0" on="1"/>
        <pt x="62" y="0" on="1"/>
      </contour>
      <contour>
        <pt x="-32" y="962" on="1"/>
        <pt x="352" y="962" on="1"/>
        <pt x="352" y="840" on="1"/>
        <pt x="-32" y="840" on="1"/>
      </contour>
    </TTGlyph>
    <TTGlyph name="Imacron.sc" xMin="-24" yMin="0" xMax="332" yMax="768">
      <contour>
        <pt x="60" y="577" on="1"/>
        <pt x="240" y="577" on="1"/>
        <pt x="240" y="0" on="1"/>
        <pt x="60" y="0" on="1"/>
      </contour>
      <contour>
        <pt x="-24" y="768" on="1"/>
        <pt x="332" y="768" on="1"/>
        <pt x="332" y="655" on="1"/>
        <pt x="-24" y="655" on="1"/>
      </contour>
    </TTGlyph>
    <TTGlyph name="Iogonek" xMin="18" yMin="-220" xMax="254" yMax="740">
      <contour>
        <pt x="62" y="740" on="1"/>
        <pt x="253" y="740" on="1"/>
        <pt x="253" y="-7" on="1"/>
        <pt x="188" y="-33" on="0"/>
        <pt x="137" y="-79" on="0"/>
        <pt x="137" y="-98" on="1"/>
        <pt x="137" y="-120" on="0"/>
        <pt x="170" y="-120" on="1"/>
        <pt x="186" y="-120" on="0"/>
        <pt x="234" y="-111" on="0"/>
        <pt x="254" y="-106" on="1"/>
        <pt x="254" y="-208" on="1"/>
        <pt x="231" y="-214" on="0"/>
        <pt x="188" y="-220" on="0"/>
        <pt x="163" y="-220" on="1"/>
        <pt x="92" y="-220" on="0"/>
        <pt x="18" y="-171" on="0"/>
        <pt x="18" y="-123" on="1"/>
        <pt x="18" y="-55" on="0"/>
        <pt x="100" y="0" on="1"/>
        <pt x="62" y="0" on="1"/>
      </contour>
    </TTGlyph>
    <TTGlyph name="Iogonek.sc" xMin="23" yMin="-172" xMax="241" yMax="577">
      <contour>
        <pt x="60" y="577" on="1"/>
        <pt x="240" y="577" on="1"/>
        <pt x="240" y="-3" on="1"/>
        <pt x="207" y="-15" on="0"/>
        <pt x="165" y="-34" on="0"/>
        <pt x="143" y="-50" on="0"/>
        <pt x="135" y="-63" on="0"/>
        <pt x="135" y="-67" on="1"/>
        <pt x="135" y="-78" on="0"/>
        <pt x="163" y="-78" on="1"/>
        <pt x="178" y="-78" on="0"/>
        <pt x="226" y="-72" on="0"/>
        <pt x="241" y="-68" on="1"/>
        <pt x="241" y="-162" on="1"/>
        <pt x="200" y="-172" on="0"/>
        <pt x="158" y="-172" on="1"/>
        <pt x="92" y="-172" on="0"/>
        <pt x="23" y="-130" on="0"/>
        <pt x="23" y="-92" on="1"/>
        <pt x="23" y="-64" on="0"/>
        <pt x="59" y="-19" on="0"/>
        <pt x="91" y="0" on="1"/>
        <pt x="60" y="0" on="1"/>
      </contour>
    </TTGlyph>
    <TTGlyph name="Itilde" xMin="-62" yMin="0" xMax="395" yMax="977">
      <contour>
        <pt x="62" y="740" on="1"/>
        <pt x="253" y="740" on="1"/>
        <pt x="253" y="0" on="1"/>
        <pt x="62" y="0" on="1"/>
      </contour>
      <contour>
        <pt x="-62" y="849" on="1"/>
        <pt x="-29" y="913" on="0"/>
        <pt x="56" y="977" on="0"/>
        <pt x="96" y="977" on="1"/>
        <pt x="120" y="977" on="0"/>
        <pt x="166" y="965" on="0"/>
        <pt x="212" y="951" on="0"/>
        <pt x="258" y="939" on="0"/>
        <pt x="282" y="939" on="1"/>
        <pt x="304" y="939" on="0"/>
        <pt x="346" y="954" on="0"/>
        <pt x="372" y="976" on="1"/>
        <pt x="395" y="948" on="1"/>
        <pt x="362" y="883" on="0"/>
        <pt x="277" y="819" on="0"/>
        <pt x="237" y="819" on="1"/>
        <pt x="213" y="819" on="0"/>
        <pt x="167" y="831" on="0"/>
        <pt x="121" y="845" on="0"/>
        <pt x="75" y="857" on="0"/>
        <pt x="51" y="857" on="1"/>
        <pt x="28" y="857" on="0"/>
        <pt x="-13" y="842" on="0"/>
        <pt x="-39" y="820" on="1"/>
      </contour>
    </TTGlyph>
    <TTGlyph name="Itilde.sc" xMin="-54" yMin="0" xMax="368" yMax="778">
      <contour>
        <pt x="60" y="577" on="1"/>
        <pt x="240" y="577" on="1"/>
        <pt x="240" y="0" on="1"/>
        <pt x="60" y="0" on="1"/>
      </contour>
      <contour>
        <pt x="-54" y="661" on="1"/>
        <pt x="-23" y="720" on="0"/>
        <pt x="55" y="778" on="0"/>
        <pt x="92" y="778" on="1"/>
        <pt x="114" y="778" on="0"/>
        <pt x="157" y="769" on="0"/>
        <pt x="200" y="759" on="0"/>
        <pt x="243" y="750" on="0"/>
        <pt x="265" y="750" on="1"/>
        <pt x="285" y="750" on="0"/>
        <pt x="323" y="761" on="0"/>
        <pt x="347" y="778" on="1"/>
        <pt x="368" y="754" on="1"/>
        <pt x="337" y="694" on="0"/>
        <pt x="258" y="638" on="0"/>
        <pt x="222" y="638" on="1"/>
        <pt x="200" y="638" on="0"/>
        <pt x="157" y="647" on="0"/>
        <pt x="114" y="657" on="0"/>
        <pt x="71" y="666" on="0"/>
        <pt x="49" y="666" on="1"/>
        <pt x="29" y="666" on="0"/>
        <pt x="-9" y="655" on="0"/>
        <pt x="-33" y="638" on="1"/>
      </contour>
    </TTGlyph>
    <TTGlyph name="J" xMin="-11" yMin="-211" xMax="255" yMax="740">
      <contour>
        <pt x="-11" y="-158" on="1"/>
        <pt x="11" y="-108" on="0"/>
        <pt x="40" y="-24" on="0"/>
        <pt x="57" y="58" on="0"/>
        <pt x="64" y="145" on="0"/>
        <pt x="64" y="197" on="1"/>
        <pt x="64" y="740" on="1"/>
        <pt x="255" y="740" on="1"/>
        <pt x="255" y="182" on="1"/>
        <pt x="255" y="130" on="0"/>
        <pt x="240" y="37" on="0"/>
        <pt x="206" y="-56" on="0"/>
        <pt x="150" y="-154" on="0"/>
        <pt x="109" y="-211" on="1"/>
      </contour>
    </TTGlyph>
    <TTGlyph name="J.sc" xMin="-5" yMin="-172" xMax="242" yMax="577">
      <contour>
        <pt x="-5" y="-123" on="1"/>
        <pt x="14" y="-84" on="0"/>
        <pt x="40" y="-17" on="0"/>
        <pt x="56" y="48" on="0"/>
        <pt x="62" y="116" on="0"/>
        <pt x="62" y="157" on="1"/>
        <pt x="62" y="577" on="1"/>
        <pt x="242" y="577" on="1"/>
        <pt x="242" y="143" on="1"/>
        <pt x="242" y="101" on="0"/>
        <pt x="229" y="26" on="0"/>
        <pt x="197" y="-48" on="0"/>
        <pt x="146" y="-126" on="0"/>
        <pt x="109" y="-172" on="1"/>
      </contour>
    </TTGlyph>
    <TTGlyph name="Jcircumflex" xMin="-32" yMin="-211" xMax="356" yMax="994">
      <contour>
        <pt x="-11" y="-158" on="1"/>
        <pt x="11" y="-108" on="0"/>
        <pt x="40" y="-24" on="0"/>
        <pt x="57" y="58" on="0"/>
        <pt x="64" y="145" on="0"/>
        <pt x="64" y="197" on="1"/>
        <pt x="64" y="740" on="1"/>
        <pt x="255" y="740" on="1"/>
        <pt x="255" y="182" on="1"/>
        <pt x="255" y="130" on="0"/>
        <pt x="240" y="37" on="0"/>
        <pt x="206" y="-56" on="0"/>
        <pt x="150" y="-154" on="0"/>
        <pt x="109" y="-211" on="1"/>
      </contour>
      <contour>
        <pt x="-32" y="918" on="1"/>
        <pt x="161" y="994" on="1"/>
        <pt x="356" y="918" on="1"/>
        <pt x="356" y="795" on="1"/>
        <pt x="162" y="871" on="1"/>
        <pt x="-32" y="795" on="1"/>
      </contour>
    </TTGlyph>
    <TTGlyph name="Jcircumflex.sc" xMin="-25" yMin="-172" xMax="334" yMax="790">
      <contour>
        <pt x="-5" y="-123" on="1"/>
        <pt x="14" y="-84" on="0"/>
        <pt x="40" y="-17" on="0"/>
        <pt x="55" y="48" on="0"/>
        <pt x="62" y="116" on="0"/>
        <pt x="62" y="157" on="1"/>
        <pt x="62" y="577" on="1"/>
        <pt x="242" y="577" on="1"/>
        <pt x="242" y="143" on="1"/>
        <pt x="242" y="101" on="0"/>
        <pt x="228" y="26" on="0"/>
        <pt x="197" y="-48" on="0"/>
        <pt x="146" y="-126" on="0"/>
        <pt x="109" y="-172" on="1"/>
      </contour>
      <contour>
        <pt x="-25" y="729" on="1"/>
        <pt x="154" y="790" on="1"/>
        <pt x="334" y="729" on="1"/>
        <pt x="334" y="616" on="1"/>
        <pt x="154" y="677" on="1"/>
        <pt x="-25" y="616" on="1"/>
      </contour>
    </TTGlyph>
    <TTGlyph name="K" xMin="62" yMin="0" xMax="717" yMax="740">
      <contour>
        <pt x="62" y="740" on="1"/>
        <pt x="253" y="740" on="1"/>
        <pt x="253" y="450" on="1"/>
        <pt x="339" y="450" on="1"/>
        <pt x="487" y="740" on="1"/>
        <pt x="698" y="740" on="1"/>
        <pt x="517" y="413" on="1"/>
        <pt x="463" y="387" on="1"/>
        <pt x="463" y="379" on="1"/>
        <pt x="519" y="351" on="1"/>
        <pt x="717" y="0" on="1"/>
        <pt x="505" y="0" on="1"/>
        <pt x="345" y="299" on="1"/>
        <pt x="253" y="299" on="1"/>
        <pt x="253" y="0" on="1"/>
        <pt x="62" y="0" on="1"/>
      </contour>
    </TTGlyph>
    <TTGlyph name="K.sc" xMin="60" yMin="0" xMax="661" yMax="577">
      <contour>
        <pt x="60" y="577" on="1"/>
        <pt x="240" y="577" on="1"/>
        <pt x="240" y="361" on="1"/>
        <pt x="316" y="361" on="1"/>
        <pt x="446" y="577" on="1"/>
        <pt x="645" y="577" on="1"/>
        <pt x="484" y="325" on="1"/>
        <pt x="428" y="303" on="1"/>
        <pt x="428" y="297" on="1"/>
        <pt x="486" y="274" on="1"/>
        <pt x="661" y="0" on="1"/>
        <pt x="461" y="0" on="1"/>
        <pt x="323" y="221" on="1"/>
        <pt x="240" y="221" on="1"/>
        <pt x="240" y="0" on="1"/>
        <pt x="60" y="0" on="1"/>
      </contour>
    </TTGlyph>
    <TTGlyph name="Kcommaaccent" xMin="62" yMin="-220" xMax="717" yMax="740">
      <contour>
        <pt x="252" y="-70" on="1"/>
        <pt x="443" y="-70" on="1"/>
        <pt x="350" y="-220" on="1"/>
        <pt x="211" y="-220" on="1"/>
      </contour>
      <contour>
        <pt x="62" y="740" on="1"/>
        <pt x="253" y="740" on="1"/>
        <pt x="253" y="450" on="1"/>
        <pt x="339" y="450" on="1"/>
        <pt x="487" y="740" on="1"/>
        <pt x="698" y="740" on="1"/>
        <pt x="517" y="413" on="1"/>
        <pt x="463" y="387" on="1"/>
        <pt x="463" y="379" on="1"/>
        <pt x="519" y="351" on="1"/>
        <pt x="717" y="0" on="1"/>
        <pt x="505" y="0" on="1"/>
        <pt x="345" y="299" on="1"/>
        <pt x="253" y="299" on="1"/>
        <pt x="253" y="0" on="1"/>
        <pt x="62" y="0" on="1"/>
      </contour>
    </TTGlyph>
    <TTGlyph name="Kcommaaccent.sc" xMin="60" yMin="-172" xMax="661" yMax="577">
      <contour>
        <pt x="60" y="577" on="1"/>
        <pt x="240" y="577" on="1"/>
        <pt x="240" y="361" on="1"/>
        <pt x="316" y="361" on="1"/>
        <pt x="446" y="577" on="1"/>
        <pt x="645" y="577" on="1"/>
        <pt x="484" y="325" on="1"/>
        <pt x="428" y="303" on="1"/>
        <pt x="428" y="297" on="1"/>
        <pt x="486" y="274" on="1"/>
        <pt x="661" y="0" on="1"/>
        <pt x="461" y="0" on="1"/>
        <pt x="323" y="221" on="1"/>
        <pt x="240" y="221" on="1"/>
        <pt x="240" y="0" on="1"/>
        <pt x="60" y="0" on="1"/>
      </contour>
      <contour>
        <pt x="250" y="-55" on="1"/>
        <pt x="431" y="-55" on="1"/>
        <pt x="345" y="-172" on="1"/>
        <pt x="214" y="-172" on="1"/>
      </contour>
    </TTGlyph>
    <TTGlyph name="L" xMin="62" yMin="0" xMax="536" yMax="740">
      <contour>
        <pt x="62" y="740" on="1"/>
        <pt x="253" y="740" on="1"/>
        <pt x="253" y="150" on="1"/>
        <pt x="536" y="150" on="1"/>
        <pt x="536" y="0" on="1"/>
        <pt x="62" y="0" on="1"/>
      </contour>
    </TTGlyph>
    <TTGlyph name="L.sc" xMin="60" yMin="0" xMax="497" yMax="577">
      <contour>
        <pt x="60" y="577" on="1"/>
        <pt x="240" y="577" on="1"/>
        <pt x="240" y="140" on="1"/>
        <pt x="497" y="140" on="1"/>
        <pt x="497" y="0" on="1"/>
        <pt x="60" y="0" on="1"/>
      </contour>
    </TTGlyph>
    <TTGlyph name="Lacute" xMin="62" yMin="0" xMax="536" yMax="987">
      <contour>
        <pt x="91" y="807" on="1"/>
        <pt x="157" y="987" on="1"/>
        <pt x="347" y="987" on="1"/>
        <pt x="225" y="798" on="1"/>
      </contour>
      <contour>
        <pt x="62" y="740" on="1"/>
        <pt x="253" y="740" on="1"/>
        <pt x="253" y="150" on="1"/>
        <pt x="536" y="150" on="1"/>
        <pt x="536" y="0" on="1"/>
        <pt x="62" y="0" on="1"/>
      </contour>
    </TTGlyph>
    <TTGlyph name="Lacute.sc" xMin="60" yMin="0" xMax="497" yMax="784">
      <contour>
        <pt x="60" y="577" on="1"/>
        <pt x="240" y="577" on="1"/>
        <pt x="240" y="140" on="1"/>
        <pt x="497" y="140" on="1"/>
        <pt x="497" y="0" on="1"/>
        <pt x="60" y="0" on="1"/>
      </contour>
      <contour>
        <pt x="88" y="632" on="1"/>
        <pt x="145" y="784" on="1"/>
        <pt x="325" y="784" on="1"/>
        <pt x="214" y="624" on="1"/>
      </contour>
    </TTGlyph>
    <TTGlyph name="Lcaron" xMin="62" yMin="0" xMax="550" yMax="799">
      <contour>
        <pt x="404" y="799" on="1"/>
        <pt x="550" y="799" on="1"/>
        <pt x="504" y="571" on="1"/>
        <pt x="404" y="571" on="1"/>
      </contour>
      <contour>
        <pt x="62" y="740" on="1"/>
        <pt x="253" y="740" on="1"/>
        <pt x="253" y="150" on="1"/>
        <pt x="536" y="150" on="1"/>
        <pt x="536" y="0" on="1"/>
        <pt x="62" y="0" on="1"/>
      </contour>
    </TTGlyph>
    <TTGlyph name="Lcaron.sc" xMin="60" yMin="0" xMax="509" yMax="634">
      <contour>
        <pt x="60" y="577" on="1"/>
        <pt x="240" y="577" on="1"/>
        <pt x="240" y="140" on="1"/>
        <pt x="497" y="140" on="1"/>
        <pt x="497" y="0" on="1"/>
        <pt x="60" y="0" on="1"/>
      </contour>
      <contour>
        <pt x="371" y="634" on="1"/>
        <pt x="509" y="634" on="1"/>
        <pt x="466" y="457" on="1"/>
        <pt x="371" y="457" on="1"/>
      </contour>
    </TTGlyph>
    <TTGlyph name="Lcommaaccent" xMin="62" yMin="-220" xMax="536" yMax="740">
      <contour>
        <pt x="193" y="-70" on="1"/>
        <pt x="384" y="-70" on="1"/>
        <pt x="291" y="-220" on="1"/>
        <pt x="152" y="-220" on="1"/>
      </contour>
      <contour>
        <pt x="62" y="740" on="1"/>
        <pt x="253" y="740" on="1"/>
        <pt x="253" y="150" on="1"/>
        <pt x="536" y="150" on="1"/>
        <pt x="536" y="0" on="1"/>
        <pt x="62" y="0" on="1"/>
      </contour>
    </TTGlyph>
    <TTGlyph name="Lcommaaccent.sc" xMin="60" yMin="-172" xMax="497" yMax="577">
      <contour>
        <pt x="60" y="577" on="1"/>
        <pt x="240" y="577" on="1"/>
        <pt x="240" y="140" on="1"/>
        <pt x="497" y="140" on="1"/>
        <pt x="497" y="0" on="1"/>
        <pt x="60" y="0" on="1"/>
      </contour>
      <contour>
        <pt x="176" y="-55" on="1"/>
        <pt x="356" y="-55" on="1"/>
        <pt x="271" y="-172" on="1"/>
        <pt x="139" y="-172" on="1"/>
      </contour>
    </TTGlyph>
    <TTGlyph name="Ldot" xMin="62" yMin="0" xMax="553" yMax="740">
      <contour>
        <pt x="62" y="740" on="1"/>
        <pt x="253" y="740" on="1"/>
        <pt x="253" y="150" on="1"/>
        <pt x="536" y="150" on="1"/>
        <pt x="536" y="0" on="1"/>
        <pt x="62" y="0" on="1"/>
      </contour>
      <contour>
        <pt x="451" y="287" on="1"/>
        <pt x="397" y="287" on="0"/>
        <pt x="350" y="333" on="0"/>
        <pt x="350" y="385" on="1"/>
        <pt x="350" y="437" on="0"/>
        <pt x="397" y="483" on="0"/>
        <pt x="451" y="483" on="1"/>
        <pt x="505" y="483" on="0"/>
        <pt x="553" y="436" on="0"/>
        <pt x="553" y="385" on="1"/>
        <pt x="553" y="334" on="0"/>
        <pt x="505" y="287" on="0"/>
      </contour>
    </TTGlyph>
    <TTGlyph name="Ldot.sc" xMin="60" yMin="0" xMax="515" yMax="577">
      <contour>
        <pt x="60" y="577" on="1"/>
        <pt x="240" y="577" on="1"/>
        <pt x="240" y="140" on="1"/>
        <pt x="497" y="140" on="1"/>
        <pt x="497" y="0" on="1"/>
        <pt x="60" y="0" on="1"/>
      </contour>
      <contour>
        <pt x="421" y="214" on="1"/>
        <pt x="370" y="214" on="0"/>
        <pt x="326" y="257" on="0"/>
        <pt x="326" y="305" on="1"/>
        <pt x="326" y="353" on="0"/>
        <pt x="370" y="395" on="0"/>
        <pt x="421" y="395" on="1"/>
        <pt x="472" y="395" on="0"/>
        <pt x="515" y="352" on="0"/>
        <pt x="515" y="305" on="1"/>
        <pt x="515" y="258" on="0"/>
        <pt x="472" y="214" on="0"/>
      </contour>
    </TTGlyph>
    <TTGlyph name="Lslash" xMin="9" yMin="0" xMax="553" yMax="740">
      <contour>
        <pt x="9" y="361" on="1"/>
        <pt x="79" y="396" on="1"/>
        <pt x="79" y="740" on="1"/>
        <pt x="270" y="740" on="1"/>
        <pt x="270" y="493" on="1"/>
        <pt x="391" y="555" on="1"/>
        <pt x="391" y="419" on="1"/>
        <pt x="270" y="358" on="1"/>
        <pt x="270" y="150" on="1"/>
        <pt x="553" y="150" on="1"/>
        <pt x="553" y="0" on="1"/>
        <pt x="79" y="0" on="1"/>
        <pt x="79" y="261" on="1"/>
        <pt x="9" y="226" on="1"/>
      </contour>
    </TTGlyph>
    <TTGlyph name="Lslash.sc" xMin="13" yMin="0" xMax="512" yMax="577">
      <contour>
        <pt x="13" y="301" on="1"/>
        <pt x="75" y="329" on="1"/>
        <pt x="75" y="577" on="1"/>
        <pt x="255" y="577" on="1"/>
        <pt x="255" y="400" on="1"/>
        <pt x="364" y="447" on="1"/>
        <pt x="364" y="322" on="1"/>
        <pt x="255" y="275" on="1"/>
        <pt x="255" y="140" on="1"/>
        <pt x="512" y="140" on="1"/>
        <pt x="512" y="0" on="1"/>
        <pt x="75" y="0" on="1"/>
        <pt x="75" y="204" on="1"/>
        <pt x="13" y="176" on="1"/>
      </contour>
    </TTGlyph>
    <TTGlyph name="M" xMin="62" yMin="0" xMax="910" yMax="740">
      <contour>
        <pt x="62" y="740" on="1"/>
        <pt x="326" y="740" on="1"/>
        <pt x="446" y="401" on="1"/>
        <pt x="482" y="259" on="1"/>
        <pt x="489" y="259" on="1"/>
        <pt x="525" y="401" on="1"/>
        <pt x="646" y="740" on="1"/>
        <pt x="910" y="740" on="1"/>
        <pt x="910" y="0" on="1"/>
        <pt x="738" y="0" on="1"/>
        <pt x="738" y="524" on="1"/>
        <pt x="731" y="524" on="1"/>
        <pt x="677" y="348" on="1"/>
        <pt x="563" y="33" on="1"/>
        <pt x="408" y="33" on="1"/>
        <pt x="294" y="348" on="1"/>
        <pt x="240" y="524" on="1"/>
        <pt x="232" y="524" on="1"/>
        <pt x="232" y="0" on="1"/>
        <pt x="62" y="0" on="1"/>
      </contour>
    </TTGlyph>
    <TTGlyph name="M.sc" xMin="60" yMin="0" xMax="835" yMax="577">
      <contour>
        <pt x="60" y="577" on="1"/>
        <pt x="302" y="577" on="1"/>
        <pt x="408" y="334" on="1"/>
        <pt x="443" y="235" on="1"/>
        <pt x="451" y="235" on="1"/>
        <pt x="487" y="334" on="1"/>
        <pt x="593" y="577" on="1"/>
        <pt x="835" y="577" on="1"/>
        <pt x="835" y="0" on="1"/>
        <pt x="673" y="0" on="1"/>
        <pt x="673" y="385" on="1"/>
        <pt x="665" y="385" on="1"/>
        <pt x="608" y="237" on="1"/>
        <pt x="519" y="26" on="1"/>
        <pt x="376" y="26" on="1"/>
        <pt x="288" y="237" on="1"/>
        <pt x="230" y="385" on="1"/>
        <pt x="222" y="385" on="1"/>
        <pt x="222" y="0" on="1"/>
        <pt x="60" y="0" on="1"/>
      </contour>
    </TTGlyph>
    <TTGlyph name="N" xMin="62" yMin="0" xMax="714" yMax="740">
      <contour>
        <pt x="62" y="740" on="1"/>
        <pt x="215" y="740" on="1"/>
        <pt x="486" y="378" on="1"/>
        <pt x="538" y="297" on="1"/>
        <pt x="548" y="297" on="1"/>
        <pt x="548" y="740" on="1"/>
        <pt x="714" y="740" on="1"/>
        <pt x="714" y="0" on="1"/>
        <pt x="562" y="0" on="1"/>
        <pt x="295" y="357" on="1"/>
        <pt x="238" y="444" on="1"/>
        <pt x="229" y="444" on="1"/>
        <pt x="229" y="0" on="1"/>
        <pt x="62" y="0" on="1"/>
      </contour>
    </TTGlyph>
    <TTGlyph name="N.sc" xMin="60" yMin="0" xMax="644" yMax="577">
      <contour>
        <pt x="60" y="577" on="1"/>
        <pt x="200" y="577" on="1"/>
        <pt x="424" y="326" on="1"/>
        <pt x="476" y="262" on="1"/>
        <pt x="485" y="262" on="1"/>
        <pt x="485" y="577" on="1"/>
        <pt x="644" y="577" on="1"/>
        <pt x="644" y="0" on="1"/>
        <pt x="504" y="0" on="1"/>
        <pt x="285" y="246" on="1"/>
        <pt x="228" y="317" on="1"/>
        <pt x="219" y="317" on="1"/>
        <pt x="219" y="0" on="1"/>
        <pt x="60" y="0" on="1"/>
      </contour>
    </TTGlyph>
    <TTGlyph name="Nacute" xMin="62" yMin="0" xMax="714" yMax="987">
      <contour>
        <pt x="296" y="807" on="1"/>
        <pt x="362" y="987" on="1"/>
        <pt x="552" y="987" on="1"/>
        <pt x="430" y="798" on="1"/>
      </contour>
      <contour>
        <pt x="62" y="740" on="1"/>
        <pt x="215" y="740" on="1"/>
        <pt x="486" y="378" on="1"/>
        <pt x="538" y="297" on="1"/>
        <pt x="548" y="297" on="1"/>
        <pt x="548" y="740" on="1"/>
        <pt x="714" y="740" on="1"/>
        <pt x="714" y="0" on="1"/>
        <pt x="562" y="0" on="1"/>
        <pt x="295" y="357" on="1"/>
        <pt x="238" y="444" on="1"/>
        <pt x="229" y="444" on="1"/>
        <pt x="229" y="0" on="1"/>
        <pt x="62" y="0" on="1"/>
      </contour>
    </TTGlyph>
    <TTGlyph name="Nacute.sc" xMin="60" yMin="0" xMax="644" yMax="784">
      <contour>
        <pt x="60" y="577" on="1"/>
        <pt x="200" y="577" on="1"/>
        <pt x="424" y="326" on="1"/>
        <pt x="476" y="262" on="1"/>
        <pt x="485" y="262" on="1"/>
        <pt x="485" y="577" on="1"/>
        <pt x="644" y="577" on="1"/>
        <pt x="644" y="0" on="1"/>
        <pt x="504" y="0" on="1"/>
        <pt x="285" y="246" on="1"/>
        <pt x="228" y="317" on="1"/>
        <pt x="219" y="317" on="1"/>
        <pt x="219" y="0" on="1"/>
        <pt x="60" y="0" on="1"/>
      </contour>
      <contour>
        <pt x="267" y="632" on="1"/>
        <pt x="324" y="784" on="1"/>
        <pt x="504" y="784" on="1"/>
        <pt x="393" y="624" on="1"/>
      </contour>
    </TTGlyph>
    <TTGlyph name="Ncaron" xMin="62" yMin="0" xMax="714" yMax="993">
      <contour>
        <pt x="195" y="993" on="1"/>
        <pt x="389" y="917" on="1"/>
        <pt x="583" y="993" on="1"/>
        <pt x="583" y="869" on="1"/>
        <pt x="388" y="794" on="1"/>
        <pt x="195" y="869" on="1"/>
      </contour>
      <contour>
        <pt x="62" y="740" on="1"/>
        <pt x="215" y="740" on="1"/>
        <pt x="486" y="378" on="1"/>
        <pt x="538" y="297" on="1"/>
        <pt x="548" y="297" on="1"/>
        <pt x="548" y="740" on="1"/>
        <pt x="714" y="740" on="1"/>
        <pt x="714" y="0" on="1"/>
        <pt x="562" y="0" on="1"/>
        <pt x="295" y="357" on="1"/>
        <pt x="238" y="444" on="1"/>
        <pt x="229" y="444" on="1"/>
        <pt x="229" y="0" on="1"/>
        <pt x="62" y="0" on="1"/>
      </contour>
    </TTGlyph>
    <TTGlyph name="Ncaron.sc" xMin="60" yMin="0" xMax="644" yMax="790">
      <contour>
        <pt x="60" y="577" on="1"/>
        <pt x="200" y="577" on="1"/>
        <pt x="424" y="326" on="1"/>
        <pt x="476" y="262" on="1"/>
        <pt x="485" y="262" on="1"/>
        <pt x="485" y="577" on="1"/>
        <pt x="644" y="577" on="1"/>
        <pt x="644" y="0" on="1"/>
        <pt x="504" y="0" on="1"/>
        <pt x="285" y="246" on="1"/>
        <pt x="228" y="317" on="1"/>
        <pt x="219" y="317" on="1"/>
        <pt x="219" y="0" on="1"/>
        <pt x="60" y="0" on="1"/>
      </contour>
      <contour>
        <pt x="173" y="677" on="1"/>
        <pt x="173" y="790" on="1"/>
        <pt x="353" y="730" on="1"/>
        <pt x="533" y="790" on="1"/>
        <pt x="533" y="677" on="1"/>
        <pt x="352" y="617" on="1"/>
      </contour>
    </TTGlyph>
    <TTGlyph name="Ncommaaccent" xMin="62" yMin="-220" xMax="714" yMax="740">
      <contour>
        <pt x="302" y="-70" on="1"/>
        <pt x="493" y="-70" on="1"/>
        <pt x="400" y="-220" on="1"/>
        <pt x="261" y="-220" on="1"/>
      </contour>
      <contour>
        <pt x="62" y="740" on="1"/>
        <pt x="215" y="740" on="1"/>
        <pt x="486" y="378" on="1"/>
        <pt x="538" y="297" on="1"/>
        <pt x="548" y="297" on="1"/>
        <pt x="548" y="740" on="1"/>
        <pt x="714" y="740" on="1"/>
        <pt x="714" y="0" on="1"/>
        <pt x="562" y="0" on="1"/>
        <pt x="295" y="357" on="1"/>
        <pt x="238" y="444" on="1"/>
        <pt x="229" y="444" on="1"/>
        <pt x="229" y="0" on="1"/>
        <pt x="62" y="0" on="1"/>
      </contour>
    </TTGlyph>
    <TTGlyph name="Ncommaaccent.sc" xMin="60" yMin="-172" xMax="644" yMax="577">
      <contour>
        <pt x="60" y="577" on="1"/>
        <pt x="200" y="577" on="1"/>
        <pt x="424" y="326" on="1"/>
        <pt x="476" y="262" on="1"/>
        <pt x="485" y="262" on="1"/>
        <pt x="485" y="577" on="1"/>
        <pt x="644" y="577" on="1"/>
        <pt x="644" y="0" on="1"/>
        <pt x="504" y="0" on="1"/>
        <pt x="285" y="246" on="1"/>
        <pt x="228" y="317" on="1"/>
        <pt x="219" y="317" on="1"/>
        <pt x="219" y="0" on="1"/>
        <pt x="60" y="0" on="1"/>
      </contour>
      <contour>
        <pt x="270" y="-55" on="1"/>
        <pt x="450" y="-55" on="1"/>
        <pt x="365" y="-172" on="1"/>
        <pt x="233" y="-172" on="1"/>
      </contour>
    </TTGlyph>
    <TTGlyph name="Ndotaccent" xMin="62" yMin="0" xMax="714" yMax="995">
      <contour>
        <pt x="385" y="798" on="1"/>
        <pt x="331" y="798" on="0"/>
        <pt x="284" y="845" on="0"/>
        <pt x="284" y="897" on="1"/>
        <pt x="284" y="948" on="0"/>
        <pt x="331" y="995" on="0"/>
        <pt x="385" y="995" on="1"/>
        <pt x="439" y="995" on="0"/>
        <pt x="486" y="948" on="0"/>
        <pt x="486" y="897" on="1"/>
        <pt x="486" y="846" on="0"/>
        <pt x="439" y="798" on="0"/>
      </contour>
      <contour>
        <pt x="62" y="740" on="1"/>
        <pt x="215" y="740" on="1"/>
        <pt x="486" y="378" on="1"/>
        <pt x="538" y="297" on="1"/>
        <pt x="548" y="297" on="1"/>
        <pt x="548" y="740" on="1"/>
        <pt x="714" y="740" on="1"/>
        <pt x="714" y="0" on="1"/>
        <pt x="562" y="0" on="1"/>
        <pt x="295" y="357" on="1"/>
        <pt x="238" y="444" on="1"/>
        <pt x="229" y="444" on="1"/>
        <pt x="229" y="0" on="1"/>
        <pt x="62" y="0" on="1"/>
      </contour>
    </TTGlyph>
    <TTGlyph name="Ndotaccent.sc" xMin="60" yMin="0" xMax="644" yMax="800">
      <contour>
        <pt x="60" y="577" on="1"/>
        <pt x="200" y="577" on="1"/>
        <pt x="424" y="326" on="1"/>
        <pt x="476" y="262" on="1"/>
        <pt x="485" y="262" on="1"/>
        <pt x="485" y="577" on="1"/>
        <pt x="644" y="577" on="1"/>
        <pt x="644" y="0" on="1"/>
        <pt x="504" y="0" on="1"/>
        <pt x="285" y="246" on="1"/>
        <pt x="228" y="317" on="1"/>
        <pt x="219" y="317" on="1"/>
        <pt x="219" y="0" on="1"/>
        <pt x="60" y="0" on="1"/>
      </contour>
      <contour>
        <pt x="350" y="620" on="1"/>
        <pt x="299" y="620" on="0"/>
        <pt x="255" y="662" on="0"/>
        <pt x="255" y="710" on="1"/>
        <pt x="255" y="758" on="0"/>
        <pt x="299" y="800" on="0"/>
        <pt x="350" y="800" on="1"/>
        <pt x="401" y="800" on="0"/>
        <pt x="445" y="757" on="0"/>
        <pt x="445" y="710" on="1"/>
        <pt x="445" y="663" on="0"/>
        <pt x="401" y="620" on="0"/>
      </contour>
    </TTGlyph>
</ttFont>
